<svg xmlns="http://www.w3.org/2000/svg" xmlns:xlink="http://www.w3.org/1999/xlink" preserveAspectRatio="xMidYMid meet" width="200" height="200" viewBox="0 0 200 200" style="width:100%;height:100%"><defs><animate repeatCount="indefinite" dur="4.76s" begin="0s" xlink:href="#_R_G_L_8_G_D_0_P_0" fill="freeze" attributeName="d" attributeType="XML" from="M42.64 4.74 C38.46,10.97 31.74,13.89 25.13,13.6 C18.86,13.32 12.69,10.15 8.92,4.15 C6.47,0.25 0.25,3.85 2.72,7.78 C7.66,15.63 16.23,20.9 25.62,21.01 C35.03,21.13 43.66,16.09 48.84,8.37 C51.42,4.52 45.2,0.92 42.64,4.74z " to="M42.64 4.74 C38.46,10.97 31.74,13.89 25.13,13.6 C18.86,13.32 12.69,10.15 8.92,4.15 C6.47,0.25 0.25,3.85 2.72,7.78 C7.66,15.63 16.23,20.9 25.62,21.01 C35.03,21.13 43.66,16.09 48.84,8.37 C51.42,4.52 45.2,0.92 42.64,4.74z " keyTimes="0;0.0168067;0.0252101;0.0420168;0.2605042;0.2773109;0.2857143;1" values="M42.64 4.74 C38.46,10.97 31.74,13.89 25.13,13.6 C18.86,13.32 12.69,10.15 8.92,4.15 C6.47,0.25 0.25,3.85 2.72,7.78 C7.66,15.63 16.23,20.9 25.62,21.01 C35.03,21.13 43.66,16.09 48.84,8.37 C51.42,4.52 45.2,0.92 42.64,4.74z ;M42.64 4.74 C38.46,10.97 31.74,13.89 25.13,13.6 C18.86,13.32 12.69,10.15 8.92,4.15 C6.47,0.25 0.25,3.85 2.72,7.78 C7.66,15.63 16.23,20.9 25.62,21.01 C35.03,21.13 43.66,16.09 48.84,8.37 C51.42,4.52 45.2,0.92 42.64,4.74z ;M42.64 4.74 C38.35,8.74 31.49,10.89 24.88,10.6 C18.61,10.32 14.67,8.27 8.92,4.15 C5.75,1.49 0.25,3.85 2.72,7.78 C7.66,15.63 15.73,27.15 25.12,27.26 C34.53,27.38 43.66,16.09 48.84,8.37 C51.42,4.52 45.87,2.35 42.64,4.74z ;M38.14 10.25 C33.63,9.77 32.24,12.64 25.63,12.35 C19.36,12.07 22.63,10.52 12.92,10.15 C8.31,9.98 5.93,16.36 7.97,20.53 C11.62,28.03 15.98,22.65 25.37,22.76 C34.78,22.88 39.41,27.34 44.59,19.62 C47.17,15.77 42.72,10.72 38.14,10.25z ;M38.14 10.25 C33.63,9.77 32.24,12.64 25.63,12.35 C19.36,12.07 22.63,10.52 12.92,10.15 C8.31,9.98 5.93,16.36 7.97,20.53 C11.62,28.03 15.98,22.65 25.37,22.76 C34.78,22.88 39.41,27.34 44.59,19.62 C47.17,15.77 42.72,10.72 38.14,10.25z ;M42.64 4.74 C38.35,8.74 31.49,10.89 24.88,10.6 C18.61,10.32 14.67,8.27 8.92,4.15 C5.75,1.49 0.25,3.85 2.72,7.78 C7.66,15.63 15.73,27.15 25.12,27.26 C34.53,27.38 43.66,16.09 48.84,8.37 C51.42,4.52 45.87,2.35 42.64,4.74z ;M42.64 4.74 C38.46,10.97 31.74,13.89 25.13,13.6 C18.86,13.32 12.69,10.15 8.92,4.15 C6.47,0.25 0.25,3.85 2.72,7.78 C7.66,15.63 16.23,20.9 25.62,21.01 C35.03,21.13 43.66,16.09 48.84,8.37 C51.42,4.52 45.2,0.92 42.64,4.74z ;M42.64 4.74 C38.46,10.97 31.74,13.89 25.13,13.6 C18.86,13.32 12.69,10.15 8.92,4.15 C6.47,0.25 0.25,3.85 2.72,7.78 C7.66,15.63 16.23,20.9 25.62,21.01 C35.03,21.13 43.66,16.09 48.84,8.37 C51.42,4.52 45.2,0.92 42.64,4.74z " keySplines="0.167 0.167 0.833 0.833;0.167 0.167 0.833 0.833;0.167 0.167 0.833 0.833;0.167 0.167 0.833 0.833;0.167 0.167 0.833 0.833;0.167 0.167 0.833 0.833;0 0 0 0" calcMode="spline"/><animate repeatCount="indefinite" dur="4.76s" begin="0s" xlink:href="#_R_G_L_8_G_N_5_T_0_M" fill="freeze" attributeName="opacity" from="1" to="0" keyTimes="0;0.3109244;0.3109244;1" values="1;1;0;0" keySplines="0 0 0 0;0 0 0 0;0 0 0 0" calcMode="spline"/><animate repeatCount="indefinite" dur="4.76s" begin="0s" xlink:href="#_R_G_L_7_G" fill="freeze" attributeName="opacity" from="1" to="0" keyTimes="0;0.0672269;0.0756303;1" values="1;1;0;0" keySplines="0.167 0.167 0.833 0.833;0.167 0.167 0.833 0.833;0 0 0 0" calcMode="spline"/><animate repeatCount="indefinite" dur="4.76s" begin="0s" xlink:href="#_R_G_L_7_G_N_5_T_0_M" fill="freeze" attributeName="opacity" from="1" to="0" keyTimes="0;0.0756303;0.0756303;1" values="1;1;0;0" keySplines="0 0 0 0;0 0 0 0;0 0 0 0" calcMode="spline"/><animate repeatCount="indefinite" dur="4.76s" begin="0s" xlink:href="#_R_G_L_6_G" fill="freeze" attributeName="opacity" from="1" to="0" keyTimes="0;0.0672269;0.0756303;1" values="1;1;0;0" keySplines="0.167 0.167 0.833 0.833;0.167 0.167 0.833 0.833;0 0 0 0" calcMode="spline"/><animate repeatCount="indefinite" dur="4.76s" begin="0s" xlink:href="#_R_G_L_6_G_N_5_T_0_M" fill="freeze" attributeName="opacity" from="1" to="0" keyTimes="0;0.0756303;0.0756303;1" values="1;1;0;0" keySplines="0 0 0 0;0 0 0 0;0 0 0 0" calcMode="spline"/><animate repeatCount="indefinite" dur="4.76s" begin="0s" xlink:href="#_R_G_L_5_G_D_1_P_0" fill="freeze" attributeName="d" attributeType="XML" from="M21.04 9.25 C21.02,9.13 20.99,9 20.96,8.88 C20.64,7.32 19.11,6.24 17.57,6.61 C15.88,7.02 14.91,8.55 15.26,10.22 C15.29,10.35 15.32,10.47 15.34,10.6 C15.67,12.15 17.19,13.24 18.73,12.87 C20.43,12.46 21.39,10.93 21.04,9.25z " to="M21.04 9.25 C21.02,9.13 20.99,9 20.96,8.88 C20.64,7.32 19.11,6.24 17.57,6.61 C15.88,7.02 14.91,8.55 15.26,10.22 C15.29,10.35 15.32,10.47 15.34,10.6 C15.67,12.15 17.19,13.24 18.73,12.87 C20.43,12.46 21.39,10.93 21.04,9.25z " keyTimes="0;0.3193277;0.394958;0.4621849;0.7226891;0.7983193;0.8655462;1" values="M21.04 9.25 C21.02,9.13 20.99,9 20.96,8.88 C20.64,7.32 19.11,6.24 17.57,6.61 C15.88,7.02 14.91,8.55 15.26,10.22 C15.29,10.35 15.32,10.47 15.34,10.6 C15.67,12.15 17.19,13.24 18.73,12.87 C20.43,12.46 21.39,10.93 21.04,9.25z ;M21.04 9.25 C21.02,9.13 20.99,9 20.96,8.88 C20.64,7.32 19.11,6.24 17.57,6.61 C15.88,7.02 14.91,8.55 15.26,10.22 C15.29,10.35 15.32,10.47 15.34,10.6 C15.67,12.15 17.19,13.24 18.73,12.87 C20.43,12.46 21.39,10.93 21.04,9.25z ;M17.92 9.25 C17.89,9.13 17.86,9 17.84,8.88 C17.51,7.33 15.99,6.24 14.44,6.61 C12.75,7.02 11.79,8.55 12.14,10.22 C12.16,10.35 12.19,10.47 12.22,10.6 C12.54,12.15 14.07,13.24 15.61,12.87 C17.3,12.46 18.27,10.93 17.92,9.25z ;M21.04 9.25 C21.02,9.13 20.99,9 20.96,8.88 C20.64,7.32 19.11,6.24 17.57,6.61 C15.88,7.02 14.91,8.55 15.26,10.22 C15.29,10.35 15.32,10.47 15.34,10.6 C15.67,12.15 17.19,13.24 18.73,12.87 C20.43,12.46 21.39,10.93 21.04,9.25z ;M21.04 9.25 C21.02,9.13 20.99,9 20.96,8.88 C20.64,7.32 19.11,6.24 17.57,6.61 C15.88,7.02 14.91,8.55 15.26,10.22 C15.29,10.35 15.32,10.47 15.34,10.6 C15.67,12.15 17.19,13.24 18.73,12.87 C20.43,12.46 21.39,10.93 21.04,9.25z ;M17.92 9.25 C17.89,9.13 17.86,9 17.84,8.88 C17.51,7.33 15.99,6.24 14.44,6.61 C12.75,7.02 11.79,8.55 12.14,10.22 C12.16,10.35 12.19,10.47 12.22,10.6 C12.54,12.15 14.07,13.24 15.61,12.87 C17.3,12.46 18.27,10.93 17.92,9.25z ;M21.04 9.25 C21.02,9.13 20.99,9 20.96,8.88 C20.64,7.32 19.11,6.24 17.57,6.61 C15.88,7.02 14.91,8.55 15.26,10.22 C15.29,10.35 15.32,10.47 15.34,10.6 C15.67,12.15 17.19,13.24 18.73,12.87 C20.43,12.46 21.39,10.93 21.04,9.25z ;M21.04 9.25 C21.02,9.13 20.99,9 20.96,8.88 C20.64,7.32 19.11,6.24 17.57,6.61 C15.88,7.02 14.91,8.55 15.26,10.22 C15.29,10.35 15.32,10.47 15.34,10.6 C15.67,12.15 17.19,13.24 18.73,12.87 C20.43,12.46 21.39,10.93 21.04,9.25z " keySplines="0.333 0 0.667 1;0.333 0 0.667 1;0.333 0 0.667 1;0.333 0 0.667 1;0.333 0 0.667 1;0.333 0 0.667 1;0 0 0 0" calcMode="spline"/><animate repeatCount="indefinite" dur="4.76s" begin="0s" xlink:href="#_R_G_L_5_G" fill="freeze" attributeName="opacity" from="0" to="1" keyTimes="0;0.2857143;0.2941176;1" values="0;0;1;1" keySplines="0.167 0.167 0.833 0.833;0.167 0.167 0.833 0.833;0 0 0 0" calcMode="spline"/><animate repeatCount="indefinite" dur="4.76s" begin="0s" xlink:href="#_R_G_L_5_G_N_5_T_0_M" fill="freeze" attributeName="opacity" from="0" to="1" keyTimes="0;0.2857143;0.2857151;1" values="0;0;1;1" keySplines="0 0 0 0;0 0 0 0;0 0 0 0" calcMode="spline"/><animate repeatCount="indefinite" dur="4.76s" begin="0s" xlink:href="#_R_G_L_4_G_D_1_P_0" fill="freeze" attributeName="d" attributeType="XML" from="M21.04 9.25 C21.02,9.13 20.99,9 20.96,8.88 C20.64,7.32 19.11,6.24 17.57,6.61 C15.88,7.02 14.91,8.55 15.26,10.22 C15.29,10.35 15.32,10.47 15.34,10.6 C15.67,12.15 17.19,13.24 18.73,12.87 C20.43,12.46 21.39,10.93 21.04,9.25z " to="M21.04 9.25 C21.02,9.13 20.99,9 20.96,8.88 C20.64,7.32 19.11,6.24 17.57,6.61 C15.88,7.02 14.91,8.55 15.26,10.22 C15.29,10.35 15.32,10.47 15.34,10.6 C15.67,12.15 17.19,13.24 18.73,12.87 C20.43,12.46 21.39,10.93 21.04,9.25z " keyTimes="0;0.3193277;0.394958;0.4621849;0.7226891;0.7983193;0.8655462;1" values="M21.04 9.25 C21.02,9.13 20.99,9 20.96,8.88 C20.64,7.32 19.11,6.24 17.57,6.61 C15.88,7.02 14.91,8.55 15.26,10.22 C15.29,10.35 15.32,10.47 15.34,10.6 C15.67,12.15 17.19,13.24 18.73,12.87 C20.43,12.46 21.39,10.93 21.04,9.25z ;M21.04 9.25 C21.02,9.13 20.99,9 20.96,8.88 C20.64,7.32 19.11,6.24 17.57,6.61 C15.88,7.02 14.91,8.55 15.26,10.22 C15.29,10.35 15.32,10.47 15.34,10.6 C15.67,12.15 17.19,13.24 18.73,12.87 C20.43,12.46 21.39,10.93 21.04,9.25z ;M17.92 9.25 C17.89,9.13 17.86,9 17.84,8.88 C17.51,7.33 15.99,6.24 14.44,6.61 C12.75,7.02 11.79,8.55 12.14,10.22 C12.16,10.35 12.19,10.47 12.22,10.6 C12.54,12.15 14.07,13.24 15.61,12.87 C17.3,12.46 18.27,10.93 17.92,9.25z ;M21.04 9.25 C21.02,9.13 20.99,9 20.96,8.88 C20.64,7.32 19.11,6.24 17.57,6.61 C15.88,7.02 14.91,8.55 15.26,10.22 C15.29,10.35 15.32,10.47 15.34,10.6 C15.67,12.15 17.19,13.24 18.73,12.87 C20.43,12.46 21.39,10.93 21.04,9.25z ;M21.04 9.25 C21.02,9.13 20.99,9 20.96,8.88 C20.64,7.32 19.11,6.24 17.57,6.61 C15.88,7.02 14.91,8.55 15.26,10.22 C15.29,10.35 15.32,10.47 15.34,10.6 C15.67,12.15 17.19,13.24 18.73,12.87 C20.43,12.46 21.39,10.93 21.04,9.25z ;M17.92 9.25 C17.89,9.13 17.86,9 17.84,8.88 C17.51,7.33 15.99,6.24 14.44,6.61 C12.75,7.02 11.79,8.55 12.14,10.22 C12.16,10.35 12.19,10.47 12.22,10.6 C12.54,12.15 14.07,13.24 15.61,12.87 C17.3,12.46 18.27,10.93 17.92,9.25z ;M21.04 9.25 C21.02,9.13 20.99,9 20.96,8.88 C20.64,7.32 19.11,6.24 17.57,6.61 C15.88,7.02 14.91,8.55 15.26,10.22 C15.29,10.35 15.32,10.47 15.34,10.6 C15.67,12.15 17.19,13.24 18.73,12.87 C20.43,12.46 21.39,10.93 21.04,9.25z ;M21.04 9.25 C21.02,9.13 20.99,9 20.96,8.88 C20.64,7.32 19.11,6.24 17.57,6.61 C15.88,7.02 14.91,8.55 15.26,10.22 C15.29,10.35 15.32,10.47 15.34,10.6 C15.67,12.15 17.19,13.24 18.73,12.87 C20.43,12.46 21.39,10.93 21.04,9.25z " keySplines="0.333 0 0.667 1;0.333 0 0.667 1;0.333 0 0.667 1;0.333 0 0.667 1;0.333 0 0.667 1;0.333 0 0.667 1;0 0 0 0" calcMode="spline"/><animate repeatCount="indefinite" dur="4.76s" begin="0s" xlink:href="#_R_G_L_4_G" fill="freeze" attributeName="opacity" from="0" to="1" keyTimes="0;0.2857143;0.2941176;1" values="0;0;1;1" keySplines="0.167 0.167 0.833 0.833;0.167 0.167 0.833 0.833;0 0 0 0" calcMode="spline"/><animate repeatCount="indefinite" dur="4.76s" begin="0s" xlink:href="#_R_G_L_4_G_N_5_T_0_M" fill="freeze" attributeName="opacity" from="0" to="1" keyTimes="0;0.2857143;0.2857151;1" values="0;0;1;1" keySplines="0 0 0 0;0 0 0 0;0 0 0 0" calcMode="spline"/><animate repeatCount="indefinite" dur="4.76s" begin="0s" xlink:href="#_R_G_L_3_G" fill="freeze" attributeName="opacity" from="0" to="0" keyTimes="0;0.0672269;0.0756303;0.2857143;0.2941176;1" values="0;0;1;1;0;0" keySplines="0.167 0.167 0.833 0.833;0.167 0.167 0.833 0.833;0.167 0.167 0.833 0.833;0.167 0.167 0.833 0.833;0 0 0 0" calcMode="spline"/><animateTransform repeatCount="indefinite" dur="4.76s" begin="0s" xlink:href="#_R_G_L_3_G" fill="freeze" attributeName="transform" from="0" to="0" type="rotate" additive="sum" keyTimes="0;0.0756303;0.105042;0.1344538;0.1680672;0.197479;0.2268908;0.2563025;1" values="0;0;13;0;13;0;13;0;0" keySplines="0.333 0 0.667 1;0.333 0 0.667 1;0.333 0 0.667 1;0.167 0 0.667 1;0.333 0 0.667 1;0.167 0 0.667 1;0.333 0 0.667 1;0 0 0 0" calcMode="spline"/><animateTransform repeatCount="indefinite" dur="4.76s" begin="0s" xlink:href="#_R_G_L_3_G" fill="freeze" attributeName="transform" from="-14.103 -11.488" to="-14.103 -11.488" type="translate" additive="sum" keyTimes="0;1" values="-14.103 -11.488;-14.103 -11.488" keySplines="0 0 1 1" calcMode="spline"/><animate repeatCount="indefinite" dur="4.76s" begin="0s" xlink:href="#_R_G_L_3_G_M" fill="freeze" attributeName="opacity" from="0" to="0" keyTimes="0;0.0672269;0.0672277;0.2941176;0.2941177;1" values="0;0;1;1;0;0" keySplines="0 0 0 0;0 0 0 0;0 0 0 0;0 0 0 0;0 0 0 0" calcMode="spline"/><animate repeatCount="indefinite" dur="4.76s" begin="0s" xlink:href="#_R_G_L_2_G" fill="freeze" attributeName="opacity" from="0" to="0" keyTimes="0;0.0672269;0.0756303;0.2857143;0.2941176;1" values="0;0;1;1;0;0" keySplines="0.167 0.167 0.833 0.833;0.167 0.167 0.833 0.833;0.167 0.167 0.833 0.833;0.167 0.167 0.833 0.833;0 0 0 0" calcMode="spline"/><animateTransform repeatCount="indefinite" dur="4.76s" begin="0s" xlink:href="#_R_G_L_2_G" fill="freeze" attributeName="transform" from="0" to="0" type="rotate" additive="sum" keyTimes="0;0.0756303;0.105042;0.1344538;0.1680672;0.197479;0.2268908;0.2563025;1" values="0;0;-13;0;-13;0;-13;0;0" keySplines="0.333 0 0.667 1;0.333 0 0.667 1;0.333 0 0.667 1;0.167 0 0.667 1;0.333 0 0.667 1;0.167 0 0.667 1;0.333 0 0.667 1;0 0 0 0" calcMode="spline"/><animateTransform repeatCount="indefinite" dur="4.76s" begin="0s" xlink:href="#_R_G_L_2_G" fill="freeze" attributeName="transform" from="-14.101 -11.49" to="-14.101 -11.49" type="translate" additive="sum" keyTimes="0;1" values="-14.101 -11.49;-14.101 -11.49" keySplines="0 0 1 1" calcMode="spline"/><animate repeatCount="indefinite" dur="4.76s" begin="0s" xlink:href="#_R_G_L_2_G_M" fill="freeze" attributeName="opacity" from="0" to="0" keyTimes="0;0.0672269;0.0672277;0.2941176;0.2941177;1" values="0;0;1;1;0;0" keySplines="0 0 0 0;0 0 0 0;0 0 0 0;0 0 0 0;0 0 0 0" calcMode="spline"/><animateMotion repeatCount="indefinite" dur="4.76s" begin="0s" xlink:href="#_R_G_L_1_G" fill="freeze" keyTimes="0;0.0672269;0.0968992;0.1265714;0.1562437;0.1859076;0.2224286;0.2521008;1" path="M100 144.25 C100,144.25 100,144.25 100,144.25 C100,144.25 100,141.75 100,141.75 C100,141.75 100,144.25 100,144.25 C100,144.25 100,141.75 100,141.75 C100,141.75 100,144.25 100,144.25 C100,144.25 100,141.75 100,141.75 C100,141.75 100,144.25 100,144.25 C100,144.25 100,144.25 100,144.25 " keyPoints="0;0;0.17;0.33;0.5;0.67;0.83;1;1" keySplines="0.333 0 0.667 1;0.333 0 0.667 1;0.333 0 0.667 1;0.333 0 0.667 1;0.333 0 0.667 1;0.167 0 0.667 1;0.333 0 0.667 1;0 0 0 0" calcMode="spline"/><animateTransform repeatCount="indefinite" dur="4.76s" begin="0s" xlink:href="#_R_G_L_1_G" fill="freeze" attributeName="transform" from="0 0" to="0 0" type="scale" additive="sum" keyTimes="0;0.0168067;0.0672269;0.2605042;0.2857143;1" values="0 0;0 0;1 1;1 1;0 0;0 0" keySplines="0.167 0.167 0.833 0.833;0.167 0.167 0.833 0.833;0.167 0.167 0.833 0.833;0.167 0.167 0.833 0.833;0 0 0 0" calcMode="spline"/><animateTransform repeatCount="indefinite" dur="4.76s" begin="0s" xlink:href="#_R_G_L_1_G" fill="freeze" attributeName="transform" from="-100 -144.25" to="-100 -144.25" type="translate" additive="sum" keyTimes="0;1" values="-100 -144.25;-100 -144.25" keySplines="0 0 1 1" calcMode="spline"/><animate repeatCount="indefinite" dur="4.76s" begin="0s" xlink:href="#_R_G_L_1_G_M" fill="freeze" attributeName="opacity" from="0" to="1" keyTimes="0;0.0084034;0.0084042;1" values="0;0;1;1" keySplines="0 0 0 0;0 0 0 0;0 0 0 0" calcMode="spline"/><animate repeatCount="indefinite" dur="4.76s" begin="0s" xlink:href="#_R_G_L_0_G_D_0_P_0" fill="freeze" attributeName="d" attributeType="XML" from="M42.64 4.74 C38.57,10.81 32.08,13.74 25.64,13.61 C19.19,13.49 12.79,10.31 8.92,4.15 C6.47,0.25 0.25,3.85 2.72,7.78 C7.66,15.63 16.23,20.9 25.62,21.01 C35.03,21.13 43.66,16.09 48.84,8.37 C51.42,4.52 45.2,0.92 42.64,4.74z " to="M39.38 5.5 C33.87,5.53 32.46,6.74 26.01,6.61 C19.57,6.49 18.75,5.65 11.18,5.66 C6.56,5.66 7.14,9.36 9.61,13.29 C14.54,21.14 16.35,15.64 25.74,15.76 C35.16,15.87 38.15,20.22 43.33,12.5 C45.91,8.65 43.98,5.47 39.38,5.5z " keyTimes="0;0.2857143;0.323395;0.3673697;0.4102773;0.4458739;0.4814622;0.5170504;0.5526471;0.5882353;0.6238235;0.6594202;0.692916;0.7310924;0.774;0.8095966;0.8451849;0.8807731;0.9163697;0.951958;0.9875546;1" values="M42.64 4.74 C38.57,10.81 32.08,13.74 25.64,13.61 C19.19,13.49 12.79,10.31 8.92,4.15 C6.47,0.25 0.25,3.85 2.72,7.78 C7.66,15.63 16.23,20.9 25.62,21.01 C35.03,21.13 43.66,16.09 48.84,8.37 C51.42,4.52 45.2,0.92 42.64,4.74z ;M42.64 4.74 C38.57,10.81 32.08,13.74 25.64,13.61 C19.19,13.49 12.79,10.31 8.92,4.15 C6.47,0.25 0.25,3.85 2.72,7.78 C7.66,15.63 16.23,20.9 25.62,21.01 C35.03,21.13 43.66,16.09 48.84,8.37 C51.42,4.52 45.2,0.92 42.64,4.74z ;M42.64 4.37 C37.13,4.4 31.83,4.48 25.39,4.36 C18.94,4.24 16.5,4.15 8.92,4.15 C4.31,4.16 0.25,3.85 2.72,7.78 C7.66,15.63 16.23,20.9 25.62,21.01 C35.03,21.13 43.66,16.09 48.84,8.37 C51.42,4.52 47.24,4.34 42.64,4.37z ;M34.31 3.34 C32.63,2.73 29.37,2.2 26.47,2.08 C23.57,1.95 18.8,2.56 15.56,3.66 C12.32,4.77 7.39,6.71 7.9,11.52 C8.42,16.33 16.29,19.78 25.67,19.9 C35.09,20.01 42.88,16.26 42.91,11.92 C42.95,7.58 35.98,3.94 34.31,3.34z ;M39.38 5.5 C33.87,5.53 32.46,6.74 26.01,6.61 C19.57,6.49 18.75,5.65 11.18,5.66 C6.56,5.66 7.14,9.36 9.61,13.29 C14.54,21.14 16.35,15.64 25.74,15.76 C35.16,15.87 38.15,20.22 43.33,12.5 C45.91,8.65 43.98,5.47 39.38,5.5z ;M40.71 1.07 C35.2,1.1 40.24,0.2 26.76,-0.4 C13.27,-1 18.05,1.17 10.47,1.17 C5.86,1.17 0.48,6.09 2.95,10.02 C7.89,17.87 16.32,19.16 25.7,19.27 C35.12,19.39 45.5,17.8 50.68,10.09 C53.26,6.24 45.32,1.04 40.71,1.07z ;M39.38 5.5 C33.87,5.53 32.46,6.74 26.01,6.61 C19.57,6.49 18.75,5.65 11.18,5.66 C6.56,5.66 7.14,9.36 9.61,13.29 C14.54,21.14 16.35,15.64 25.74,15.76 C35.16,15.87 38.15,20.22 43.33,12.5 C45.91,8.65 43.98,5.47 39.38,5.5z ;M40.71 1.07 C35.2,1.1 40.24,0.2 26.76,-0.4 C13.27,-1 18.05,1.17 10.47,1.17 C5.86,1.17 0.48,6.09 2.95,10.02 C7.89,17.87 16.32,19.16 25.7,19.27 C35.12,19.39 45.5,17.8 50.68,10.09 C53.26,6.24 45.32,1.04 40.71,1.07z ;M39.38 5.5 C33.87,5.53 32.46,6.74 26.01,6.61 C19.57,6.49 18.75,5.65 11.18,5.66 C6.56,5.66 7.14,9.36 9.61,13.29 C14.54,21.14 16.35,15.64 25.74,15.76 C35.16,15.87 38.15,20.22 43.33,12.5 C45.91,8.65 43.98,5.47 39.38,5.5z ;M40.71 1.07 C35.2,1.1 40.24,0.2 26.76,-0.4 C13.27,-1 18.05,1.17 10.47,1.17 C5.86,1.17 0.48,6.09 2.95,10.02 C7.89,17.87 16.32,19.16 25.7,19.27 C35.12,19.39 45.5,17.8 50.68,10.09 C53.26,6.24 45.32,1.04 40.71,1.07z ;M39.38 5.5 C33.87,5.53 32.46,6.74 26.01,6.61 C19.57,6.49 18.75,5.65 11.18,5.66 C6.56,5.66 7.14,9.36 9.61,13.29 C14.54,21.14 16.35,15.64 25.74,15.76 C35.16,15.87 38.15,20.22 43.33,12.5 C45.91,8.65 43.98,5.47 39.38,5.5z ;M40.71 1.07 C35.2,1.1 40.24,0.2 26.76,-0.4 C13.27,-1 18.05,1.17 10.47,1.17 C5.86,1.17 0.48,6.09 2.95,10.02 C7.89,17.87 16.32,19.16 25.7,19.27 C35.12,19.39 45.5,17.8 50.68,10.09 C53.26,6.24 45.32,1.04 40.71,1.07z ;M42.64 4.37 C37.13,4.4 31.83,4.48 25.39,4.36 C18.94,4.24 16.5,4.15 8.92,4.15 C4.31,4.16 0.25,3.85 2.72,7.78 C7.66,15.63 16.23,20.9 25.62,21.01 C35.03,21.13 43.66,16.09 48.84,8.37 C51.42,4.52 47.24,4.34 42.64,4.37z ;M34.31 3.34 C32.63,2.73 29.37,2.2 26.47,2.08 C23.57,1.95 18.8,2.56 15.56,3.66 C12.32,4.77 7.39,6.71 7.9,11.52 C8.42,16.33 16.29,19.78 25.67,19.9 C35.09,20.01 42.88,16.26 42.91,11.92 C42.95,7.58 35.98,3.94 34.31,3.34z ;M39.38 5.5 C33.87,5.53 32.46,6.74 26.01,6.61 C19.57,6.49 18.75,5.65 11.18,5.66 C6.56,5.66 7.14,9.36 9.61,13.29 C14.54,21.14 16.35,15.64 25.74,15.76 C35.16,15.87 38.15,20.22 43.33,12.5 C45.91,8.65 43.98,5.47 39.38,5.5z ;M40.71 1.07 C35.2,1.1 40.24,0.2 26.76,-0.4 C13.27,-1 18.05,1.17 10.47,1.17 C5.86,1.17 0.48,6.09 2.95,10.02 C7.89,17.87 16.32,19.16 25.7,19.27 C35.12,19.39 45.5,17.8 50.68,10.09 C53.26,6.24 45.32,1.04 40.71,1.07z ;M39.38 5.5 C33.87,5.53 32.46,6.74 26.01,6.61 C19.57,6.49 18.75,5.65 11.18,5.66 C6.56,5.66 7.14,9.36 9.61,13.29 C14.54,21.14 16.35,15.64 25.74,15.76 C35.16,15.87 38.15,20.22 43.33,12.5 C45.91,8.65 43.98,5.47 39.38,5.5z ;M40.71 1.07 C35.2,1.1 40.24,0.2 26.76,-0.4 C13.27,-1 18.05,1.17 10.47,1.17 C5.86,1.17 0.48,6.09 2.95,10.02 C7.89,17.87 16.32,19.16 25.7,19.27 C35.12,19.39 45.5,17.8 50.68,10.09 C53.26,6.24 45.32,1.04 40.71,1.07z ;M39.38 5.5 C33.87,5.53 32.46,6.74 26.01,6.61 C19.57,6.49 18.75,5.65 11.18,5.66 C6.56,5.66 7.14,9.36 9.61,13.29 C14.54,21.14 16.35,15.64 25.74,15.76 C35.16,15.87 38.15,20.22 43.33,12.5 C45.91,8.65 43.98,5.47 39.38,5.5z ;M40.71 1.07 C35.2,1.1 40.24,0.2 26.76,-0.4 C13.27,-1 18.05,1.17 10.47,1.17 C5.86,1.17 0.48,6.09 2.95,10.02 C7.89,17.87 16.32,19.16 25.7,19.27 C35.12,19.39 45.5,17.8 50.68,10.09 C53.26,6.24 45.32,1.04 40.71,1.07z ;M39.38 5.5 C33.87,5.53 32.46,6.74 26.01,6.61 C19.57,6.49 18.75,5.65 11.18,5.66 C6.56,5.66 7.14,9.36 9.61,13.29 C14.54,21.14 16.35,15.64 25.74,15.76 C35.16,15.87 38.15,20.22 43.33,12.5 C45.91,8.65 43.98,5.47 39.38,5.5z ;M39.38 5.5 C33.87,5.53 32.46,6.74 26.01,6.61 C19.57,6.49 18.75,5.65 11.18,5.66 C6.56,5.66 7.14,9.36 9.61,13.29 C14.54,21.14 16.35,15.64 25.74,15.76 C35.16,15.87 38.15,20.22 43.33,12.5 C45.91,8.65 43.98,5.47 39.38,5.5z " keySplines="0.333 0 0.667 1;0.333 0 0.667 1;0.167 0 0.833 0.777;0.167 0.223 0.833 0.777;0.167 0.223 0.833 0.777;0.167 0.223 0.833 0.777;0.167 0.223 0.833 0.777;0.167 0.223 0.833 0.777;0.167 0.223 0.833 0.777;0.167 0.223 0.833 0.777;0.167 0.223 0.833 0.777;0.167 0.223 0.667 1;0.167 0 0.833 0.777;0.167 0.223 0.833 0.777;0.167 0.223 0.833 0.777;0.167 0.223 0.833 0.777;0.167 0.223 0.833 0.777;0.167 0.223 0.833 0.777;0.167 0.223 0.833 0.777;0.167 0.223 0.833 0.777;0 0 0 0" calcMode="spline"/><animate repeatCount="indefinite" dur="4.76s" begin="0s" xlink:href="#_R_G_L_0_G_M" fill="freeze" attributeName="opacity" from="0" to="1" keyTimes="0;0.2857143;0.2857151;1" values="0;0;1;1" keySplines="0 0 0 0;0 0 0 0;0 0 0 0" calcMode="spline"/><animate attributeType="XML" attributeName="opacity" dur="5s" from="0" to="1" xlink:href="#time_group"/></defs><g id="_R_G"><g id="_R_G_L_13_G_N_5_T_0" transform=" translate(95, 100) translate(0, 0)"><g id="_R_G_L_13_G" transform=" translate(5.102, -3.876) translate(-99.135, -33.19)"><path id="_R_G_L_13_G_D_0_P_0" fill="#606060" fill-opacity="1" fill-rule="nonzero" d=" M175.5 4.23 C175.5,4.23 182.88,4.44 182.88,4.44 C187.41,4.56 191.18,7.94 191.8,12.43 C193.13,22.24 195,39.65 193.92,54.52 C193.57,59.47 189.38,63.26 184.42,63.13 C184.42,63.13 181.69,63.05 181.69,63.05 C181.69,63.05 186.74,26.85 175.5,4.23z "/><path id="_R_G_L_13_G_D_1_P_0" fill="#353535" fill-opacity="1" fill-rule="nonzero" d=" M184.69 66.13 C184.57,66.13 184.46,66.13 184.34,66.13 C184.34,66.13 178.26,65.96 178.26,65.96 C178.26,65.96 178.72,62.64 178.72,62.64 C178.77,62.28 183.51,27.08 172.81,5.57 C172.81,5.57 170.59,1.1 170.59,1.1 C170.59,1.1 182.96,1.44 182.96,1.44 C188.99,1.6 193.96,6.06 194.77,12.02 C196.05,21.39 198.02,39.4 196.91,54.74 C196.45,61.19 191.11,66.13 184.69,66.13z  M180.15 7.36 C187.55,26.35 185.95,51.18 185.05,60.12 C188.17,59.94 190.7,57.48 190.93,54.31 C192,39.52 190.07,21.99 188.83,12.85 C188.41,9.81 185.86,7.52 182.8,7.44 C182.8,7.44 180.15,7.36 180.15,7.36z "/><path id="_R_G_L_13_G_D_2_P_0" fill="#606060" fill-opacity="1" fill-rule="nonzero" d=" M24.82 3.61 C24.82,3.61 16.7,3.39 16.7,3.39 C12.6,3.27 9.02,6.14 8.24,10.17 C6.32,19.96 3.26,38.3 3.66,53.81 C3.78,58.14 7.49,61.78 11.82,61.9 C11.82,61.9 15.39,62 15.39,62 C15.39,62 12.34,25.57 24.82,3.61z "/><path id="_R_G_L_13_G_D_3_P_0" fill="#353535" fill-opacity="1" fill-rule="nonzero" d=" M18.65 65.09 C18.65,65.09 11.74,64.9 11.74,64.9 C5.69,64.73 0.82,59.9 0.66,53.89 C0.25,38.03 3.39,19.33 5.29,9.6 C6.37,4.11 11.21,0.25 16.79,0.39 C16.79,0.39 29.9,0.75 29.9,0.75 C29.9,0.75 27.43,5.09 27.43,5.09 C15.57,25.98 18.35,61.4 18.37,61.75 C18.37,61.75 18.65,65.09 18.65,65.09z  M16.47 6.38 C13.89,6.38 11.68,8.2 11.18,10.75 C9.32,20.24 6.26,38.45 6.66,53.73 C6.74,56.55 9.04,58.82 11.9,58.9 C11.9,58.9 12.19,58.91 12.19,58.91 C11.79,49.95 11.56,25.05 20,6.48 C20,6.48 16.62,6.39 16.62,6.39 C16.57,6.39 16.52,6.38 16.47,6.38z "/><path id="_R_G_L_13_G_D_4_P_0" fill="#353535" fill-opacity="1" fill-rule="nonzero" d=" M193.64 54.26 C194.09,48.05 194.03,41.4 193.71,35.05 C192.55,39.02 188.85,41.84 184.56,41.72 C184.56,41.72 182.53,41.67 182.53,41.67 C182.69,53.62 181.41,62.74 181.41,62.74 C181.41,62.74 184.15,62.82 184.15,62.82 C189.09,62.95 193.29,59.19 193.64,54.26z "/><path id="_R_G_L_13_G_D_5_P_0" fill="#353535" fill-opacity="1" fill-rule="nonzero" d=" M15.16 40.59 C15.16,40.59 11.95,40.5 11.95,40.5 C8.36,40.4 5.31,38.05 4.22,34.8 C3.6,40.99 3.23,47.41 3.39,53.41 C3.5,57.87 7.08,61.47 11.54,61.59 C11.54,61.59 15.11,61.69 15.11,61.69 C15.11,61.69 14.35,52.51 15.16,40.59z "/></g></g><g id="_R_G_L_12_G_N_5_T_0" transform=" translate(95, 100) translate(0, 0)"><g id="_R_G_L_12_G" transform=" translate(6.12, 2.505) translate(-85.146, -81.027)"><path id="_R_G_L_12_G_D_0_P_0" fill="#ffffff" fill-opacity="1" fill-rule="nonzero" d=" M168.66 87.49 C167.27,137.47 129.18,161.8 83.06,160.53 C36.94,159.25 0.25,132.85 1.64,82.86 C3.02,32.88 40.64,0.25 86.77,1.53 C132.89,2.81 170.04,37.51 168.66,87.49z "/></g></g><g id="_R_G_L_11_G_N_5_T_0" transform=" translate(95, 100) translate(0, 0)"><g id="_R_G_L_11_G" transform=" translate(9.367, 14.182) translate(-79.539, -68.49)"><path id="_R_G_L_11_G_D_0_P_0" fill="#adadad" fill-opacity="1" fill-rule="nonzero" d=" M137.9 0 C146.36,14.99 153.08,37.07 152.57,55.66 C151.18,105.64 113.09,129.97 66.97,128.69 C40.33,127.96 14.83,114.46 0,97.26 C13.1,122.61 40.91,136.03 73.44,136.93 C119.56,138.21 157.66,113.88 159.04,63.9 C159.71,39.78 151.63,17.13 137.9,0z "/></g></g><g id="_R_G_L_10_G_N_5_T_0" transform=" translate(95, 100) translate(0, 0)"><g id="_R_G_L_10_G" transform=" translate(7.199, -45.762) translate(-53.297, -32.628)"><path id="_R_G_L_10_G_D_0_P_0" fill="#00ffb6" fill-opacity="1" fill-rule="nonzero" d=" M103.5 21.49 C95.21,45.78 75.13,62.68 52.16,62.04 C29.18,61.41 10.07,43.42 3.14,18.71 C3.14,18.71 19.27,0.25 53.84,1.21 C88.42,2.17 103.5,21.49 103.5,21.49z "/><path id="_R_G_L_10_G_D_1_P_0" fill="#00d895" fill-opacity="1" fill-rule="nonzero" d=" M94.82 12.36 C86,35.2 66.57,50.83 44.46,50.22 C31.25,49.85 19.33,43.75 10.26,33.94 C19.61,49.72 34.8,60.16 52.2,60.64 C75.17,61.27 95.25,44.38 103.54,20.09 C103.54,20.09 100.74,16.51 94.82,12.36z "/><path id="_R_G_L_10_G_D_2_P_0" fill="#353535" fill-opacity="1" fill-rule="nonzero" d=" M53.38 65.01 C52.94,65.01 52.51,65 52.08,64.99 C28.53,64.33 7.71,46.04 0.25,19.47 C0.25,19.47 6.03,17.85 6.03,17.85 C12.77,41.88 31.34,58.41 52.24,58.99 C73.14,59.6 92.6,44.09 100.67,20.47 C100.67,20.47 106.34,22.41 106.34,22.41 C97.59,48.04 76.42,65.01 53.38,65.01z "/></g></g><g id="_R_G_L_9_G_N_5_T_0" transform=" translate(95, 100) translate(0, 0)"><g id="_R_G_L_9_G" transform=" translate(5.787, 2.693) translate(-87.759, -83.103)"><path id="_R_G_L_9_G_D_0_P_0" fill="#353535" fill-opacity="1" fill-rule="nonzero" d=" M89.51 165.95 C88.32,165.95 87.12,165.94 85.91,165.91 C33.36,164.45 0.25,132.75 1.57,85.16 C2.25,60.56 11.75,38.53 28.32,23.15 C44.47,8.16 66.26,0.25 89.78,0.91 C113.35,1.56 134.95,10.66 150.59,26.52 C166.75,42.89 175.27,65.42 174.59,89.95 C173.91,114.45 164.52,134.51 147.42,147.97 C132.43,159.77 112.47,165.95 89.51,165.95z  M87.1 6.87 C66.16,6.87 46.82,14.17 32.4,27.55 C17.02,41.83 8.2,62.34 7.57,85.33 C6.94,107.98 14.5,126.92 29.45,140.09 C43.44,152.41 63.02,159.27 86.07,159.91 C109.13,160.55 129.06,154.79 143.71,143.25 C159.36,130.93 167.96,112.45 168.59,89.79 C169.22,66.9 161.32,45.93 146.32,30.73 C131.77,15.98 111.63,7.52 89.62,6.91 C88.78,6.89 87.94,6.87 87.1,6.87z "/></g></g><g id="_R_G_L_8_G_N_5_T_0_M"><g id="_R_G_L_8_G_N_5_T_0" transform=" translate(95, 100) translate(0, 0)"><g id="_R_G_L_8_G" transform=" translate(4.211, 48.415) translate(-25.086, -20.44)"><path id="_R_G_L_8_G_D_0_P_0" fill="#1c1c1c" fill-opacity="1" fill-rule="nonzero" d=" M42.64 4.74 C38.46,10.97 31.74,13.89 25.13,13.6 C18.86,13.32 12.69,10.15 8.92,4.15 C6.47,0.25 0.25,3.85 2.72,7.78 C7.66,15.63 16.23,20.9 25.62,21.01 C35.03,21.13 43.66,16.09 48.84,8.37 C51.42,4.52 45.2,0.92 42.64,4.74z "/></g></g></g><g id="_R_G_L_7_G_N_5_T_0_M"><g id="_R_G_L_7_G_N_5_T_0" transform=" translate(95, 100) translate(0, 0)"><g id="_R_G_L_7_G" transform=" translate(-35.539, 5.595) translate(-13.809, -11.946)"><path id="_R_G_L_7_G_D_0_P_0" fill="#1c1c1c" fill-opacity="1" fill-rule="nonzero" d=" M24.49 7.71 C27.37,15.14 22.19,23.07 14.24,23.43 C9.42,23.64 4.87,20.67 3.13,16.18 C0.25,8.75 5.43,0.82 13.38,0.46 C18.2,0.25 22.75,3.22 24.49,7.71z "/><path id="_R_G_L_7_G_D_1_P_0" fill="#ffffff" fill-opacity="1" fill-rule="nonzero" d=" M21.04 9.25 C21.02,9.13 20.99,9 20.96,8.88 C20.64,7.32 19.11,6.24 17.57,6.61 C15.88,7.02 14.91,8.55 15.26,10.22 C15.29,10.35 15.32,10.47 15.34,10.6 C15.67,12.15 17.19,13.24 18.73,12.87 C20.43,12.46 21.39,10.93 21.04,9.25z "/></g></g></g><g id="_R_G_L_6_G_N_5_T_0_M"><g id="_R_G_L_6_G_N_5_T_0" transform=" translate(95, 100) translate(0, 0)"><g id="_R_G_L_6_G" transform=" translate(46.711, 5.595) translate(-13.809, -11.946)"><path id="_R_G_L_6_G_D_0_P_0" fill="#1c1c1c" fill-opacity="1" fill-rule="nonzero" d=" M24.49 7.71 C27.37,15.14 22.19,23.07 14.24,23.43 C9.42,23.64 4.87,20.67 3.13,16.18 C0.25,8.75 5.43,0.82 13.38,0.46 C18.2,0.25 22.75,3.22 24.49,7.71z "/><path id="_R_G_L_6_G_D_1_P_0" fill="#ffffff" fill-opacity="1" fill-rule="nonzero" d=" M21.04 9.25 C21.02,9.13 20.99,9 20.96,8.88 C20.64,7.32 19.11,6.24 17.57,6.61 C15.88,7.02 14.91,8.55 15.26,10.22 C15.29,10.35 15.32,10.47 15.34,10.6 C15.67,12.15 17.19,13.24 18.73,12.87 C20.43,12.46 21.39,10.93 21.04,9.25z "/></g></g></g><g id="_R_G_L_5_G_N_5_T_0_M"><g id="_R_G_L_5_G_N_5_T_0" transform=" translate(95, 100) translate(0, 0)"><g id="_R_G_L_5_G" transform=" translate(-35.539, 5.595) translate(-13.809, -11.946)"><path id="_R_G_L_5_G_D_0_P_0" fill="#1c1c1c" fill-opacity="1" fill-rule="nonzero" d=" M24.49 7.71 C27.37,15.14 22.19,23.07 14.24,23.43 C9.42,23.64 4.87,20.67 3.13,16.18 C0.25,8.75 5.43,0.82 13.38,0.46 C18.2,0.25 22.75,3.22 24.49,7.71z "/><path id="_R_G_L_5_G_D_1_P_0" fill="#ffffff" fill-opacity="1" fill-rule="nonzero" d=" M21.04 9.25 C21.02,9.13 20.99,9 20.96,8.88 C20.64,7.32 19.11,6.24 17.57,6.61 C15.88,7.02 14.91,8.55 15.26,10.22 C15.29,10.35 15.32,10.47 15.34,10.6 C15.67,12.15 17.19,13.24 18.73,12.87 C20.43,12.46 21.39,10.93 21.04,9.25z "/></g></g></g><g id="_R_G_L_4_G_N_5_T_0_M"><g id="_R_G_L_4_G_N_5_T_0" transform=" translate(95, 100) translate(0, 0)"><g id="_R_G_L_4_G" transform=" translate(46.711, 5.595) translate(-13.809, -11.946)"><path id="_R_G_L_4_G_D_0_P_0" fill="#1c1c1c" fill-opacity="1" fill-rule="nonzero" d=" M24.49 7.71 C27.37,15.14 22.19,23.07 14.24,23.43 C9.42,23.64 4.87,20.67 3.13,16.18 C0.25,8.75 5.43,0.82 13.38,0.46 C18.2,0.25 22.75,3.22 24.49,7.71z "/><path id="_R_G_L_4_G_D_1_P_0" fill="#ffffff" fill-opacity="1" fill-rule="nonzero" d=" M21.04 9.25 C21.02,9.13 20.99,9 20.96,8.88 C20.64,7.32 19.11,6.24 17.57,6.61 C15.88,7.02 14.91,8.55 15.26,10.22 C15.29,10.35 15.32,10.47 15.34,10.6 C15.67,12.15 17.19,13.24 18.73,12.87 C20.43,12.46 21.39,10.93 21.04,9.25z "/></g></g></g><g id="_R_G_L_3_G_M"><g id="_R_G_L_3_G" transform=" translate(59.851, 102.314)"><path id="_R_G_L_3_G_D_0_P_0" fill="#1c1c1c" fill-opacity="1" fill-rule="nonzero" d=" M4.88 22.73 C4.88,22.73 23.5,22.73 23.5,22.73 C27.39,22.73 27.96,18.07 25.32,16.03 C19.71,11.71 14.1,7.39 8.49,3.07 C4.83,0.25 1.25,6.49 4.86,9.27 C10.47,13.6 16.08,17.92 21.69,22.24 C22.29,20.01 22.9,17.77 23.5,15.54 C23.5,15.54 4.88,15.54 4.88,15.54 C0.26,15.54 0.25,22.73 4.88,22.73z "/></g></g><g id="_R_G_L_2_G_M"><g id="_R_G_L_2_G" transform=" translate(139.537, 102.306)"><path id="_R_G_L_2_G_D_0_P_0" fill="#1c1c1c" fill-opacity="1" fill-rule="nonzero" d=" M23.32 15.55 C23.32,15.55 4.7,15.55 4.7,15.55 C5.3,17.78 5.91,20.01 6.51,22.24 C12.12,17.92 17.73,13.6 23.34,9.28 C26.95,6.49 23.38,0.25 19.71,3.07 C14.1,7.39 8.5,11.72 2.89,16.04 C0.25,18.07 0.8,22.73 4.7,22.73 C4.7,22.73 23.32,22.73 23.32,22.73 C27.94,22.73 27.95,15.55 23.32,15.55z "/></g></g><g id="_R_G_L_1_G_M"><g id="_R_G_L_1_G"><g id="_R_G_L_1_G_L_3_G" transform=" translate(100.192, 146.119) translate(-38.31, -16.077)"><path id="_R_G_L_1_G_L_3_G_D_0_P_0" fill="#a3d850" fill-opacity="1" fill-rule="nonzero" d=" M20.9 31.9 C19.32,31.41 18.12,30.81 17.01,30.06 C15.91,29.32 14.96,28.46 14.11,27.51 C13.26,26.55 12.53,25.5 11.93,24.3 C11.33,23.1 10.88,21.83 10.62,20.19 C12.3,20.29 13.64,20.91 14.82,21.6 C16,22.31 17.01,23.19 17.88,24.18 C18.75,25.18 19.5,26.29 20.05,27.55 C20.58,28.82 21.04,30.23 20.9,31.9z "/><path id="_R_G_L_1_G_L_3_G_D_1_P_0" fill="#a3d850" fill-opacity="1" fill-rule="nonzero" d=" M59.39 31.9 C58.91,30.27 58.9,28.83 59.03,27.43 C59.17,26.04 59.51,24.74 60,23.48 C60.49,22.23 61.13,21.04 61.98,19.93 C62.83,18.82 63.83,17.77 65.3,16.91 C65.78,18.54 65.79,19.99 65.66,21.38 C65.52,22.77 65.17,24.08 64.68,25.33 C64.18,26.58 63.54,27.77 62.7,28.88 C61.84,29.99 60.85,31.04 59.39,31.9z "/><path id="_R_G_L_1_G_L_3_G_D_2_P_0" fill="#1c1c1c" fill-opacity="1" fill-rule="nonzero" d=" M76.03 18.97 C75.18,5.18 67.25,0.25 61.39,0.25 C53.49,0.25 50.44,5.8 38.31,6.91 C26.19,5.8 23.13,0.25 15.23,0.25 C9.37,0.25 1.44,5.18 0.6,18.97 C0.25,24.6 5.38,30.8 12.14,29.11 C19.05,27.38 31.08,25.74 38.31,25.83 C45.54,25.92 57.57,27.38 64.48,29.11 C71.24,30.8 76.37,24.6 76.03,18.97z "/></g><g id="_R_G_L_1_G_L_2_G" transform=" translate(99.707, 145.165) translate(-42.401, -19.438)"><path id="_R_G_L_1_G_L_2_G_D_0_P_0" fill="#1c1c1c" fill-opacity="1" fill-rule="nonzero" d=" M84.19 23.29 C83.64,16.09 81.47,8.72 75.43,4.24 C71.08,1.01 65.64,0.25 60.46,1.77 C53.41,3.83 47.49,8.75 39.7,7.15 C33.35,5.85 27.94,1.63 21.43,1.05 C16.19,0.59 11.04,2.81 7.58,6.75 C3.12,11.83 0.25,20.55 2.02,27.2 C4.05,34.86 11.11,38.31 18.49,36.69 C26.19,34.99 34.13,33.76 42.03,33.73 C50.82,33.69 59.52,35.16 68.1,36.89 C76.75,38.63 84.31,32.09 84.19,23.29 C84.13,18.67 76.95,18.65 77.01,23.29 C77.04,25.81 75.93,28.35 73.58,29.56 C70.91,30.92 67.29,29.31 64.53,28.82 C58.13,27.68 51.6,26.88 45.1,26.61 C38.89,26.36 32.67,27.05 26.53,27.93 C23.48,28.37 20.44,28.89 17.44,29.56 C14.33,30.26 11.62,30.24 9.76,27.23 C7,22.75 9.8,14.85 13.15,11.29 C15.7,8.58 19.1,7.64 22.7,8.5 C27.75,9.71 32.12,12.83 37.25,13.97 C43.97,15.46 50.2,13.99 56.39,11.24 C60.31,9.49 64.57,7.02 68.94,8.73 C74.67,10.98 76.58,17.75 77.01,23.29 C77.36,27.87 84.55,27.9 84.19,23.29z "/></g><g id="_R_G_L_1_G_L_1_G" transform=" translate(100.752, 144.443) translate(-27.695, -14.401)"><path id="_R_G_L_1_G_L_1_G_D_0_P_0" fill="#ffffff" fill-opacity="1" fill-rule="nonzero" d=" M55.14 1.37 C53.47,0.6 51.77,0.25 50.21,0.25 C42.32,0.25 39.26,5.8 27.14,6.91 C15.01,5.8 11.95,0.25 4.06,0.25 C2.85,0.25 1.55,0.46 0.25,0.92 C3.91,9.47 5.79,18.77 5.76,28.07 C12.6,26.78 21.38,25.75 27.14,25.83 C33.58,25.91 43.82,27.08 50.87,28.55 C51.39,19.38 52.82,10.26 55.14,1.37z "/></g><g id="_R_G_L_1_G_L_0_G" transform=" translate(100.58, 145.461) translate(-32.251, -4.899)"><path id="_R_G_L_1_G_L_0_G_D_0_P_0" fill="#1c1c1c" fill-opacity="1" fill-rule="nonzero" d=" M3.43 8.93 C21.79,3.89 42.67,5 61.03,8.93 C63.29,9.42 64.25,5.96 61.99,5.47 C42.97,1.4 21.47,0.25 2.48,5.47 C0.25,6.08 1.2,9.55 3.43,8.93z "/></g></g></g><g id="_R_G_L_0_G_M"><g id="_R_G_L_0_G" transform=" translate(99.211, 148.415) translate(-25.086, -20.44)"><path id="_R_G_L_0_G_D_0_P_0" fill="#1c1c1c" fill-opacity="1" fill-rule="nonzero" d=" M42.64 4.74 C38.57,10.81 32.08,13.74 25.64,13.61 C19.19,13.49 12.79,10.31 8.92,4.15 C6.47,0.25 0.25,3.85 2.72,7.78 C7.66,15.63 16.23,20.9 25.62,21.01 C35.03,21.13 43.66,16.09 48.84,8.37 C51.42,4.52 45.2,0.92 42.64,4.74z "/></g></g></g><g id="time_group"/></svg>