<svg width="188" height="157" viewBox="0 0 188 157" fill="none" xmlns="http://www.w3.org/2000/svg">
<path d="M174.975 84.1719C173.646 131.722 137.234 154.841 93.1456 153.595C49.0574 152.35 13.9838 127.262 15.3125 79.7307C16.6413 32.1994 52.5943 1.16805 96.6921 2.38534C140.79 3.60263 176.294 36.6406 174.975 84.1719Z" fill="white"/>
<path d="M144.164 21.5291C136.24 44.629 117.044 60.701 95.0863 60.0924C73.1282 59.4837 54.8505 42.3847 48.2449 18.8853C48.2449 18.8853 63.6643 1.3297 96.7113 2.24266C129.758 3.15563 144.164 21.5291 144.164 21.5291Z" fill="#00FFB6"/>
<path opacity="0.3" d="M154.039 24.0017C162.127 38.2668 168.551 59.2555 168.054 76.9252C166.734 124.476 130.313 147.604 86.2246 146.349C60.7582 145.645 36.3816 132.806 22.1763 116.449C34.6896 140.567 61.284 153.32 92.3809 154.185C136.469 155.393 172.881 132.255 174.21 84.7615C174.888 62.7772 167.745 41.2601 154.039 24.0017Z" fill="#1C1C1C"/>
<path d="M135.867 12.8464C127.435 34.5674 108.861 49.4316 87.7255 48.8515C75.0975 48.5091 63.7024 42.6985 55.032 33.3786C63.9701 48.376 78.4911 58.3045 95.1245 58.761C117.111 59.3696 136.278 43.2976 144.203 20.1977C141.768 17.3869 138.964 14.9143 135.867 12.8464Z" fill="#00D895"/>
<path d="M96.501 157C95.3538 157 94.2066 157 93.0499 156.952C42.8149 155.564 11.1733 125.427 12.4256 80.1586C13.0852 56.7639 22.1571 35.8227 37.9971 21.1962C53.4356 6.93113 74.2752 -0.59133 96.7591 0.0363344C119.243 0.663999 139.93 9.30866 154.89 24.3916C170.329 39.9596 178.473 61.3858 177.833 84.714C177.192 108.042 168.206 127.091 151.869 139.872C137.53 151.113 118.449 157 96.501 157ZM94.1972 5.70433C74.1797 5.70433 55.682 12.6467 41.8972 25.3712C27.2043 38.9515 18.7731 58.4662 18.1612 80.3203C17.559 101.87 24.7954 119.873 39.0772 132.397C52.4605 144.123 71.1685 150.638 93.2126 151.246C115.257 151.855 134.318 146.377 148.313 135.412C163.274 123.696 171.495 106.112 172.097 84.5618C172.699 62.7933 165.138 42.8507 150.808 28.3954C136.89 14.368 117.637 6.32249 96.5966 5.74237C95.7937 5.72335 94.9907 5.70433 94.1972 5.70433Z" fill="#353535"/>
<path d="M96.2429 62.9169H95.0001C72.4876 62.2987 52.585 44.8477 45.4536 19.6271L50.9788 18.0864C57.4219 40.9106 75.174 56.6592 95.1532 57.2108C115.132 57.7624 133.735 43.0408 141.45 20.5781L146.87 22.423C138.515 46.7878 118.277 62.9169 96.2429 62.9169Z" fill="#353535"/>
<path d="M167.164 44.4198L174.219 44.61C176.317 44.6654 178.327 45.4611 179.889 46.8549C181.451 48.2486 182.464 50.1496 182.746 52.218C184.027 61.5569 185.806 78.1044 184.783 92.2554C184.621 94.5205 183.586 96.6359 181.894 98.1599C180.201 99.6839 177.983 100.499 175.701 100.434L173.082 100.368C173.082 100.368 177.919 65.9221 167.164 44.4198Z" fill="#606060"/>
<path d="M175.95 103.287H175.586L169.851 103.106L170.29 99.9491C170.338 99.6163 174.87 66.1313 164.65 45.6752L162.519 41.4242L174.353 41.7475C177.131 41.816 179.792 42.8678 181.86 44.7139C183.928 46.5599 185.266 49.0791 185.633 51.8187C186.857 60.7296 188.75 77.8572 187.689 92.4362C187.482 95.3895 186.155 98.1542 183.975 100.169C181.794 102.184 178.925 103.299 175.95 103.287ZM171.619 47.3965C178.684 65.4656 177.164 89.0601 176.294 97.5716C177.748 97.4891 179.121 96.8811 180.157 95.8619C181.192 94.8426 181.817 93.4823 181.915 92.0367C182.938 77.9714 181.093 61.2907 179.907 52.5985C179.718 51.2053 179.037 49.9244 177.987 48.9839C176.936 48.0434 175.584 47.5044 174.172 47.4631L171.619 47.3965Z" fill="#353535"/>
<path d="M23.1322 43.8302L15.3698 43.6115C13.4704 43.5608 11.6147 44.1818 10.1322 45.3641C8.64969 46.5464 7.63649 48.2135 7.273 50.0688C5.44714 59.3696 2.49344 76.8111 2.90449 91.5612C2.96969 93.5918 3.81274 95.5207 5.26122 96.9529C6.70969 98.385 8.65386 99.212 10.6954 99.2644L14.1081 99.3499C14.1081 99.3499 11.1638 64.7143 23.1322 43.8302Z" fill="#606060"/>
<path d="M17.234 102.298L10.6187 102.108C7.84395 102.043 5.19988 100.923 3.2311 98.9763C1.26232 97.0301 0.118985 94.4067 0.0365277 91.6468C-0.364969 76.5734 2.63659 58.7895 4.46244 49.5267C4.95306 47.0087 6.32658 44.7459 8.33827 43.1417C10.35 41.5375 12.8691 40.6963 15.4463 40.768L27.9788 41.1198L25.6176 45.2472C14.2801 65.1042 16.9377 98.7889 17.0141 99.1312L17.234 102.298ZM15.1403 46.4645C13.9454 46.4632 12.7875 46.8766 11.8661 47.6335C10.9448 48.3904 10.3176 49.4433 10.0929 50.6109C8.3148 59.6454 5.38982 76.9632 5.7722 91.5041C5.81598 92.8057 6.35967 94.0411 7.29154 94.9558C8.22341 95.8705 9.47251 96.3948 10.7813 96.4209H11.0584C10.6664 87.8618 10.4562 64.2293 18.5244 46.5691L15.2934 46.474L15.1403 46.4645Z" fill="#353535"/>
<g opacity="0.4">
<path d="M184.515 91.9511C184.902 85.8809 184.921 79.7929 184.572 73.7203C184.027 75.5932 182.872 77.233 181.289 78.3826C179.706 79.5323 177.785 80.1269 175.825 80.0731L173.913 80.016C174.013 86.7148 173.655 93.4126 172.843 100.063L175.453 100.13C177.731 100.189 179.945 99.3724 181.633 97.8489C183.321 96.3254 184.353 94.2128 184.515 91.9511Z" fill="#353535"/>
</g>
<g opacity="0.4">
<path d="M13.898 78.9889L10.8292 78.9033C9.18934 78.8602 7.60229 78.3185 6.2812 77.3511C4.96011 76.3837 3.96839 75.0369 3.43973 73.4921C2.80886 79.3951 2.54084 85.3309 2.63689 91.2664C2.70231 93.2977 3.54708 95.2269 4.99781 96.6578C6.44855 98.0886 8.39501 98.9125 10.4373 98.9601L13.8501 99.0551C13.4049 92.3732 13.4209 85.6687 13.898 78.9889Z" fill="#353535"/>
</g>
<path d="M144.509 78.7131C144.958 80.8283 144.766 83.0285 143.958 85.0354C143.15 87.0422 141.762 88.7655 139.969 89.9872C138.176 91.2089 136.059 91.8741 133.886 91.8985C131.713 91.923 129.582 91.3056 127.762 90.1246C125.942 88.9436 124.515 87.252 123.661 85.2639C122.808 83.2757 122.566 81.0804 122.967 78.9556C123.368 76.8309 124.394 74.8722 125.914 73.3275C127.434 71.7828 129.381 70.7214 131.508 70.2777C132.918 69.9822 134.373 69.966 135.79 70.23C137.207 70.494 138.557 71.033 139.765 71.8164C140.972 72.5997 142.012 73.6119 142.826 74.7953C143.64 75.9786 144.212 77.3099 144.509 78.7131Z" fill="#1C1C1C"/>
<path d="M134.682 78.3803L134.777 78.8368C134.975 79.5458 135.44 80.1513 136.076 80.527C136.712 80.9027 137.469 81.0195 138.19 80.8529C138.901 80.6542 139.507 80.1903 139.883 79.5579C140.259 78.9255 140.375 78.1732 140.207 77.4578L140.111 77.0108C139.913 76.3039 139.449 75.6999 138.816 75.3244C138.182 74.9489 137.427 74.8309 136.708 74.9947C135.998 75.1914 135.39 75.653 135.013 76.2835C134.636 76.914 134.517 77.665 134.682 78.3803Z" fill="white"/>
<path d="M66.0637 78.7131C66.513 80.8283 66.3215 83.0285 65.5134 85.0354C64.7053 87.0422 63.317 88.7655 61.5241 89.9872C59.7313 91.2089 57.6144 91.8741 55.4414 91.8985C53.2685 91.923 51.1371 91.3056 49.3169 90.1246C47.4967 88.9436 46.0696 87.252 45.2161 85.2639C44.3626 83.2757 44.121 81.0804 44.522 78.9556C44.9231 76.8309 45.9487 74.8722 47.469 73.3275C48.9893 71.7828 50.9361 70.7214 53.063 70.2777C54.4734 69.9822 55.9284 69.966 57.3451 70.23C58.7619 70.494 60.1124 71.033 61.3197 71.8164C62.527 72.5997 63.5672 73.6119 64.3812 74.7953C65.1952 75.9786 65.767 77.3099 66.0637 78.7131Z" fill="#1C1C1C"/>
<path d="M62.2304 78.3803L62.1349 77.9333C61.9371 77.2263 61.4732 76.6224 60.8394 76.2469C60.2056 75.8714 59.4507 75.7533 58.7317 75.9172C58.021 76.1139 57.4138 76.5755 57.0364 77.206C56.6589 77.8365 56.5403 78.5875 56.705 79.3028C56.705 79.4549 56.772 79.6071 56.8006 79.7593C56.9984 80.4662 57.4624 81.0702 58.0962 81.4457C58.73 81.8211 59.4848 81.9392 60.2039 81.7754C60.9166 81.5787 61.5253 81.1156 61.9029 80.483C62.2806 79.8503 62.3978 79.097 62.2304 78.3803Z" fill="white"/>
<path d="M110.095 106.758C108.305 109.402 105.88 111.558 103.039 113.03C100.198 114.503 97.0318 115.245 93.8289 115.189C90.626 115.133 87.4881 114.281 84.7007 112.711C81.9133 111.14 79.565 108.901 77.8698 106.197C75.5182 102.488 69.5722 105.912 71.9334 109.649C74.188 113.442 77.3855 116.593 81.2184 118.8C85.0513 121.008 89.3904 122.197 93.8189 122.253C98.2473 122.309 102.616 121.231 106.504 119.122C110.393 117.013 113.67 113.944 116.022 110.21C118.488 106.549 112.542 103.125 110.095 106.758Z" fill="#1C1C1C"/>
</svg>
