<svg xmlns="http://www.w3.org/2000/svg" xmlns:xlink="http://www.w3.org/1999/xlink" preserveAspectRatio="xMidYMid meet" width="300" height="300" viewBox="0 0 300 300" style="width:100%;height:100%"><defs><animate repeatCount="indefinite" dur="3.8s" begin="0s" xlink:href="#_R_G_L_9_G_D_0_P_0" fill="freeze" attributeName="d" attributeType="XML" from="M42.64 4.74 C38.47,10.96 31.75,13.88 25.15,13.6 C18.87,13.33 12.69,10.15 8.92,4.15 C6.47,0.25 0.25,3.85 2.72,7.78 C7.66,15.63 16.23,20.9 25.62,21.01 C35.03,21.13 43.66,16.09 48.84,8.37 C51.42,4.52 45.2,0.92 42.64,4.74z " to="M31.76 2.12 C31.76,2.12 27.31,1.42 23.78,1.47 C20.25,1.53 16.47,2.66 14.67,3.15 C12.87,3.65 8.94,7.04 9.72,9.91 C10.5,12.77 14.85,16.88 24.87,17.14 C34.88,17.4 43.55,13.34 41.84,8.37 C40.13,3.4 31.76,2.12 31.76,2.12z " keyTimes="0;0.0438632;0.0694526;0.1052632;1" values="M42.64 4.74 C38.47,10.96 31.75,13.88 25.15,13.6 C18.87,13.33 12.69,10.15 8.92,4.15 C6.47,0.25 0.25,3.85 2.72,7.78 C7.66,15.63 16.23,20.9 25.62,21.01 C35.03,21.13 43.66,16.09 48.84,8.37 C51.42,4.52 45.2,0.92 42.64,4.74z ;M42.64 4.74 C38.47,10.96 31.75,13.88 25.15,13.6 C18.87,13.33 12.69,10.15 8.92,4.15 C6.47,0.25 0.25,3.85 2.72,7.78 C7.66,15.63 16.23,20.9 25.62,21.01 C35.03,21.13 43.66,16.09 48.84,8.37 C51.42,4.52 45.2,0.92 42.64,4.74z ;M28.89 7.87 C27.5,7.4 26.31,7.29 23.03,6.97 C19.75,6.65 17.72,7.91 15.92,8.4 C14.12,8.9 12.19,11.66 12.97,14.53 C13.75,17.4 12.98,18.75 22.99,19.01 C33,19.27 35.05,16.47 34.59,13.37 C34.13,10.27 30.27,8.34 28.89,7.87z ;M31.76 2.12 C31.76,2.12 27.31,1.42 23.78,1.47 C20.25,1.53 16.47,2.66 14.67,3.15 C12.87,3.65 8.94,7.04 9.72,9.91 C10.5,12.77 14.85,16.88 24.87,17.14 C34.88,17.4 43.55,13.34 41.84,8.37 C40.13,3.4 31.76,2.12 31.76,2.12z ;M31.76 2.12 C31.76,2.12 27.31,1.42 23.78,1.47 C20.25,1.53 16.47,2.66 14.67,3.15 C12.87,3.65 8.94,7.04 9.72,9.91 C10.5,12.77 14.85,16.88 24.87,17.14 C34.88,17.4 43.55,13.34 41.84,8.37 C40.13,3.4 31.76,2.12 31.76,2.12z " keySplines="0.167 0.167 0.833 0.833;0.167 0.167 0.833 0.833;0.167 0.167 0.833 0.833;0 0 0 0" calcMode="spline"/><animate repeatCount="indefinite" dur="3.8s" begin="0s" xlink:href="#_R_G_L_9_G_N_7_T_0_M" fill="freeze" attributeName="opacity" from="1" to="0" keyTimes="0;0.1263158;0.1263158;1" values="1;1;0;0" keySplines="0 0 0 0;0 0 0 0;0 0 0 0" calcMode="spline"/><animateTransform repeatCount="indefinite" dur="3.8s" begin="0s" xlink:href="#_R_G_L_8_G" fill="freeze" attributeName="transform" from="1 1" to="1 0.2" type="scale" additive="sum" keyTimes="0;0.0350842;0.0614;0.1052632;1" values="1 1;1 1;1 1.1;1 0.2;1 0.2" keySplines="0.167 0.167 0.833 0.833;0.167 0.167 0.833 0.833;0.167 0.167 0.833 0.833;0 0 0 0" calcMode="spline"/><animateTransform repeatCount="indefinite" dur="3.8s" begin="0s" xlink:href="#_R_G_L_8_G" fill="freeze" attributeName="transform" from="-13.809 -11.946" to="-13.809 -11.946" type="translate" additive="sum" keyTimes="0;1" values="-13.809 -11.946;-13.809 -11.946" keySplines="0 0 1 1" calcMode="spline"/><animate repeatCount="indefinite" dur="3.8s" begin="0s" xlink:href="#_R_G_L_8_G_N_7_T_0_M" fill="freeze" attributeName="opacity" from="1" to="0" keyTimes="0;0.1052632;0.1052632;1" values="1;1;0;0" keySplines="0 0 0 0;0 0 0 0;0 0 0 0" calcMode="spline"/><animateTransform repeatCount="indefinite" dur="3.8s" begin="0s" xlink:href="#_R_G_L_7_G" fill="freeze" attributeName="transform" from="1 1" to="1 0.2" type="scale" additive="sum" keyTimes="0;0.0350842;0.0614;0.1052632;1" values="1 1;1 1;1 1.1;1 0.2;1 0.2" keySplines="0.167 0.167 0.833 0.833;0.167 0.167 0.833 0.833;0.167 0.167 0.833 0.833;0 0 0 0" calcMode="spline"/><animateTransform repeatCount="indefinite" dur="3.8s" begin="0s" xlink:href="#_R_G_L_7_G" fill="freeze" attributeName="transform" from="-13.809 -11.946" to="-13.809 -11.946" type="translate" additive="sum" keyTimes="0;1" values="-13.809 -11.946;-13.809 -11.946" keySplines="0 0 1 1" calcMode="spline"/><animate repeatCount="indefinite" dur="3.8s" begin="0s" xlink:href="#_R_G_L_7_G_N_7_T_0_M" fill="freeze" attributeName="opacity" from="1" to="0" keyTimes="0;0.1052632;0.1052632;1" values="1;1;0;0" keySplines="0 0 0 0;0 0 0 0;0 0 0 0" calcMode="spline"/><animateTransform repeatCount="indefinite" dur="3.8s" begin="0s" xlink:href="#_R_G_L_6_G" fill="freeze" attributeName="transform" from="1 0.25" to="1 1" type="scale" additive="sum" keyTimes="0;0.8964842;0.9315789;0.9666667;1" values="1 0.25;1 0.25;1 1.1;1 1;1 1" keySplines="0.333 0 0.667 1;0.333 0 0.667 1;0.333 0 0.667 1;0 0 0 0" calcMode="spline"/><animateTransform repeatCount="indefinite" dur="3.8s" begin="0s" xlink:href="#_R_G_L_6_G" fill="freeze" attributeName="transform" from="-13.809 -11.946" to="-13.809 -11.946" type="translate" additive="sum" keyTimes="0;1" values="-13.809 -11.946;-13.809 -11.946" keySplines="0 0 1 1" calcMode="spline"/><animate repeatCount="indefinite" dur="3.8s" begin="0s" xlink:href="#_R_G_L_6_G_N_7_T_0_M" fill="freeze" attributeName="opacity" from="0" to="1" keyTimes="0;0.8877193;0.8877204;1" values="0;0;1;1" keySplines="0 0 0 0;0 0 0 0;0 0 0 0" calcMode="spline"/><animateTransform repeatCount="indefinite" dur="3.8s" begin="0s" xlink:href="#_R_G_L_5_G" fill="freeze" attributeName="transform" from="1 0.25" to="1 1" type="scale" additive="sum" keyTimes="0;0.8964842;0.9315789;0.9666667;1" values="1 0.25;1 0.25;1 1.1;1 1;1 1" keySplines="0.333 0 0.667 1;0.333 0 0.667 1;0.333 0 0.667 1;0 0 0 0" calcMode="spline"/><animateTransform repeatCount="indefinite" dur="3.8s" begin="0s" xlink:href="#_R_G_L_5_G" fill="freeze" attributeName="transform" from="-13.809 -11.946" to="-13.809 -11.946" type="translate" additive="sum" keyTimes="0;1" values="-13.809 -11.946;-13.809 -11.946" keySplines="0 0 1 1" calcMode="spline"/><animate repeatCount="indefinite" dur="3.8s" begin="0s" xlink:href="#_R_G_L_5_G_N_7_T_0_M" fill="freeze" attributeName="opacity" from="0" to="1" keyTimes="0;0.8877193;0.8877204;1" values="0;0;1;1" keySplines="0 0 0 0;0 0 0 0;0 0 0 0" calcMode="spline"/><animateTransform repeatCount="indefinite" dur="3.8s" begin="0s" xlink:href="#_R_G_L_4_G" fill="freeze" attributeName="transform" from="0 0" to="0 0" type="scale" additive="sum" keyTimes="0;0.1929895;0.2543895;0.3157895;0.3859684;0.4649158;0.5263158;0.5877263;0.6578947;0.7263158;0.7877158;0.8491263;0.9192948;1" values="0 0;0 0;1 1;1 1;0 0;0 0;1 1;1 1;0 0;0 0;1 1;1 1;0 0;0 0" keySplines="0.333 0 0.667 1;0.333 0 0.667 1;0.333 0 0.667 1;0.333 0 0.667 1;0.167 0 0.667 1;0.333 0 0.667 1;0.333 0 0.667 1;0.333 0 0.667 1;0.167 0 0.667 1;0.333 0 0.667 1;0.333 0 0.667 1;0.333 0 0.667 1;0 0 0 0" calcMode="spline"/><animateTransform repeatCount="indefinite" dur="3.8s" begin="0s" xlink:href="#_R_G_L_4_G" fill="freeze" attributeName="transform" from="-11.182 -12.952" to="-11.182 -12.952" type="translate" additive="sum" keyTimes="0;1" values="-11.182 -12.952;-11.182 -12.952" keySplines="0 0 1 1" calcMode="spline"/><animate repeatCount="indefinite" dur="3.8s" begin="0s" xlink:href="#_R_G_L_4_G_M" fill="freeze" attributeName="opacity" from="0" to="1" keyTimes="0;0.1368421;0.1368432;1" values="0;0;1;1" keySplines="0 0 0 0;0 0 0 0;0 0 0 0" calcMode="spline"/><animateTransform repeatCount="indefinite" dur="3.8s" begin="0s" xlink:href="#_R_G_L_3_G" fill="freeze" attributeName="transform" from="0 0" to="0 0" type="scale" additive="sum" keyTimes="0;0.1666737;0.2280737;0.2894737;0.3596526;0.4298316;0.4912316;0.5526316;0.6228105;0.6947368;0.7561368;0.8175368;0.8877159;1" values="0 0;0 0;1 1;1 1;0 0;0 0;1 1;1 1;0 0;0 0;1 1;1 1;0 0;0 0" keySplines="0.333 0 0.667 1;0.333 0 0.667 1;0.333 0 0.667 1;0.333 0 0.667 1;0.167 0 0.667 1;0.333 0 0.667 1;0.333 0 0.667 1;0.333 0 0.667 1;0.167 0 0.667 1;0.333 0 0.667 1;0.333 0 0.667 1;0.333 0 0.667 1;0 0 0 0" calcMode="spline"/><animateTransform repeatCount="indefinite" dur="3.8s" begin="0s" xlink:href="#_R_G_L_3_G" fill="freeze" attributeName="transform" from="-14.423 -16.875" to="-14.423 -16.875" type="translate" additive="sum" keyTimes="0;1" values="-14.423 -16.875;-14.423 -16.875" keySplines="0 0 1 1" calcMode="spline"/><animate repeatCount="indefinite" dur="3.8s" begin="0s" xlink:href="#_R_G_L_3_G_M" fill="freeze" attributeName="opacity" from="0" to="1" keyTimes="0;0.1368421;0.1368432;1" values="0;0;1;1" keySplines="0 0 0 0;0 0 0 0;0 0 0 0" calcMode="spline"/><animateTransform repeatCount="indefinite" dur="3.8s" begin="0s" xlink:href="#_R_G_L_2_G" fill="freeze" attributeName="transform" from="0 0" to="0 0" type="scale" additive="sum" keyTimes="0;0.1403579;0.2017579;0.2631579;0.3333368;0.3947368;0.4561474;0.5175474;0.5877263;0.6596421;0.7210526;0.7824526;0.8526316;1" values="0 0;0 0;1 1;1 1;0 0;0 0;1 1;1 1;0 0;0 0;1 1;1 1;0 0;0 0" keySplines="0.333 0 0.667 1;0.333 0 0.667 1;0.333 0 0.667 1;0.167 0 0.667 1;0.167 0 0.667 1;0.333 0 0.667 1;0.333 0 0.667 1;0.167 0 0.667 1;0.167 0 0.667 1;0.333 0 0.667 1;0.333 0 0.667 1;0.167 0 0.667 1;0 0 0 0" calcMode="spline"/><animateTransform repeatCount="indefinite" dur="3.8s" begin="0s" xlink:href="#_R_G_L_2_G" fill="freeze" attributeName="transform" from="-14.732 -17.336" to="-14.732 -17.336" type="translate" additive="sum" keyTimes="0;1" values="-14.732 -17.336;-14.732 -17.336" keySplines="0 0 1 1" calcMode="spline"/><animate repeatCount="indefinite" dur="3.8s" begin="0s" xlink:href="#_R_G_L_2_G_M" fill="freeze" attributeName="opacity" from="0" to="1" keyTimes="0;0.1368421;0.1368432;1" values="0;0;1;1" keySplines="0 0 0 0;0 0 0 0;0 0 0 0" calcMode="spline"/><animateMotion repeatCount="indefinite" dur="3.8s" begin="0s" xlink:href="#_R_G_L_1_G" fill="freeze" keyTimes="0;0.1140421;0.2368421;0.3684211;0.5;0.6315789;0.7473684;0.8631579;1" path="M151.28 157.09 C151.28,157.09 151.28,157.09 151.28,157.09 C151.28,157.09 151.28,159.59 151.28,159.59 C151.28,159.59 151.28,157.09 151.28,157.09 C151.28,157.09 151.28,159.59 151.28,159.59 C151.28,159.59 151.28,157.09 151.28,157.09 C151.28,157.09 151.28,159.59 151.28,159.59 C151.28,159.59 151.28,157.09 151.28,157.09 C151.28,157.09 151.28,157.09 151.28,157.09 " keyPoints="0;0;0.17;0.33;0.5;0.67;0.83;1;1" keySplines="0.333 0 0.667 1;0.333 0 0.667 1;0.333 0 0.667 1;0.333 0 0.667 1;0.333 0 0.667 1;0.167 0 0.667 1;0.167 0 0.667 1;0 0 0 0" calcMode="spline"/><animateTransform repeatCount="indefinite" dur="3.8s" begin="0s" xlink:href="#_R_G_L_1_G" fill="freeze" attributeName="transform" from="-57.681 -8.714" to="-57.681 -8.714" type="translate" additive="sum" keyTimes="0;1" values="-57.681 -8.714;-57.681 -8.714" keySplines="0 0 1 1" calcMode="spline"/><animate repeatCount="indefinite" dur="3.8s" begin="0s" xlink:href="#_R_G_L_1_G_M" fill="freeze" attributeName="opacity" from="0" to="0" keyTimes="0;0.1263158;0.1263168;0.8947368;0.8947369;1" values="0;0;1;1;0;0" keySplines="0 0 0 0;0 0 0 0;0 0 0 0;0 0 0 0;0 0 0 0" calcMode="spline"/><animate repeatCount="indefinite" dur="3.8s" begin="0s" xlink:href="#_R_G_L_0_G_D_0_P_0" fill="freeze" attributeName="d" attributeType="XML" from="M39.38 5.5 C33.87,5.53 32.46,6.74 26.01,6.61 C19.57,6.49 18.75,5.65 11.18,5.66 C6.56,5.66 7.14,9.36 9.61,13.29 C14.54,21.14 16.35,15.64 25.74,15.76 C35.16,15.87 38.15,20.22 43.33,12.5 C45.91,8.65 43.98,5.47 39.38,5.5z " to="M42.64 4.37 C37.13,4.4 31.83,4.48 25.39,4.36 C18.94,4.24 16.5,4.15 8.92,4.15 C4.31,4.16 0.25,3.85 2.72,7.78 C7.66,15.63 16.23,20.9 25.62,21.01 C35.03,21.13 43.66,16.09 48.84,8.37 C51.42,4.52 47.24,4.34 42.64,4.37z " keyTimes="0;0.1244526;0.1690421;0.2136211;0.2582;0.3027895;0.3473684;0.3919474;0.4365368;0.4784947;0.5263158;0.5800632;0.6246526;0.6692316;0.7138105;0.7584;0.8029789;0.8475684;0.8921474;0.9341053;1" values="M39.38 5.5 C33.87,5.53 32.46,6.74 26.01,6.61 C19.57,6.49 18.75,5.65 11.18,5.66 C6.56,5.66 7.14,9.36 9.61,13.29 C14.54,21.14 16.35,15.64 25.74,15.76 C35.16,15.87 38.15,20.22 43.33,12.5 C45.91,8.65 43.98,5.47 39.38,5.5z ;M39.38 5.5 C33.87,5.53 32.46,6.74 26.01,6.61 C19.57,6.49 18.75,5.65 11.18,5.66 C6.56,5.66 7.14,9.36 9.61,13.29 C14.54,21.14 16.35,15.64 25.74,15.76 C35.16,15.87 38.15,20.22 43.33,12.5 C45.91,8.65 43.98,5.47 39.38,5.5z ;M40.71 1.07 C35.2,1.1 40.24,0.2 26.76,-0.4 C13.27,-1 18.05,1.17 10.47,1.17 C5.86,1.17 0.48,6.09 2.95,10.02 C7.89,17.87 16.32,19.16 25.7,19.27 C35.12,19.39 45.5,17.8 50.68,10.09 C53.26,6.24 45.32,1.04 40.71,1.07z ;M39.38 5.5 C33.87,5.53 32.46,6.74 26.01,6.61 C19.57,6.49 18.75,5.65 11.18,5.66 C6.56,5.66 7.14,9.36 9.61,13.29 C14.54,21.14 16.35,15.64 25.74,15.76 C35.16,15.87 38.15,20.22 43.33,12.5 C45.91,8.65 43.98,5.47 39.38,5.5z ;M40.71 1.07 C35.2,1.1 40.24,0.2 26.76,-0.4 C13.27,-1 18.05,1.17 10.47,1.17 C5.86,1.17 0.48,6.09 2.95,10.02 C7.89,17.87 16.32,19.16 25.7,19.27 C35.12,19.39 45.5,17.8 50.68,10.09 C53.26,6.24 45.32,1.04 40.71,1.07z ;M39.38 5.5 C33.87,5.53 32.46,6.74 26.01,6.61 C19.57,6.49 18.75,5.65 11.18,5.66 C6.56,5.66 7.14,9.36 9.61,13.29 C14.54,21.14 16.35,15.64 25.74,15.76 C35.16,15.87 38.15,20.22 43.33,12.5 C45.91,8.65 43.98,5.47 39.38,5.5z ;M40.71 1.07 C35.2,1.1 40.24,0.2 26.76,-0.4 C13.27,-1 18.05,1.17 10.47,1.17 C5.86,1.17 0.48,6.09 2.95,10.02 C7.89,17.87 16.32,19.16 25.7,19.27 C35.12,19.39 45.5,17.8 50.68,10.09 C53.26,6.24 45.32,1.04 40.71,1.07z ;M39.38 5.5 C33.87,5.53 32.46,6.74 26.01,6.61 C19.57,6.49 18.75,5.65 11.18,5.66 C6.56,5.66 7.14,9.36 9.61,13.29 C14.54,21.14 16.35,15.64 25.74,15.76 C35.16,15.87 38.15,20.22 43.33,12.5 C45.91,8.65 43.98,5.47 39.38,5.5z ;M40.71 1.07 C35.2,1.1 40.24,0.2 26.76,-0.4 C13.27,-1 18.05,1.17 10.47,1.17 C5.86,1.17 0.48,6.09 2.95,10.02 C7.89,17.87 16.32,19.16 25.7,19.27 C35.12,19.39 45.5,17.8 50.68,10.09 C53.26,6.24 45.32,1.04 40.71,1.07z ;M42.64 4.37 C37.13,4.4 31.83,4.48 25.39,4.36 C18.94,4.24 16.5,4.15 8.92,4.15 C4.31,4.16 0.25,3.85 2.72,7.78 C7.66,15.63 16.23,20.9 25.62,21.01 C35.03,21.13 43.66,16.09 48.84,8.37 C51.42,4.52 47.24,4.34 42.64,4.37z ;M34.31 3.34 C32.63,2.73 29.37,2.2 26.47,2.08 C23.57,1.95 18.8,2.56 15.56,3.66 C12.32,4.77 7.39,6.71 7.9,11.52 C8.42,16.33 16.29,19.78 25.67,19.9 C35.09,20.01 42.88,16.26 42.91,11.92 C42.95,7.58 35.98,3.94 34.31,3.34z ;M39.38 5.5 C33.87,5.53 32.46,6.74 26.01,6.61 C19.57,6.49 18.75,5.65 11.18,5.66 C6.56,5.66 7.14,9.36 9.61,13.29 C14.54,21.14 16.35,15.64 25.74,15.76 C35.16,15.87 38.15,20.22 43.33,12.5 C45.91,8.65 43.98,5.47 39.38,5.5z ;M40.71 1.07 C35.2,1.1 40.24,0.2 26.76,-0.4 C13.27,-1 18.05,1.17 10.47,1.17 C5.86,1.17 0.48,6.09 2.95,10.02 C7.89,17.87 16.32,19.16 25.7,19.27 C35.12,19.39 45.5,17.8 50.68,10.09 C53.26,6.24 45.32,1.04 40.71,1.07z ;M39.38 5.5 C33.87,5.53 32.46,6.74 26.01,6.61 C19.57,6.49 18.75,5.65 11.18,5.66 C6.56,5.66 7.14,9.36 9.61,13.29 C14.54,21.14 16.35,15.64 25.74,15.76 C35.16,15.87 38.15,20.22 43.33,12.5 C45.91,8.65 43.98,5.47 39.38,5.5z ;M40.71 1.07 C35.2,1.1 40.24,0.2 26.76,-0.4 C13.27,-1 18.05,1.17 10.47,1.17 C5.86,1.17 0.48,6.09 2.95,10.02 C7.89,17.87 16.32,19.16 25.7,19.27 C35.12,19.39 45.5,17.8 50.68,10.09 C53.26,6.24 45.32,1.04 40.71,1.07z ;M39.38 5.5 C33.87,5.53 32.46,6.74 26.01,6.61 C19.57,6.49 18.75,5.65 11.18,5.66 C6.56,5.66 7.14,9.36 9.61,13.29 C14.54,21.14 16.35,15.64 25.74,15.76 C35.16,15.87 38.15,20.22 43.33,12.5 C45.91,8.65 43.98,5.47 39.38,5.5z ;M40.71 1.07 C35.2,1.1 40.24,0.2 26.76,-0.4 C13.27,-1 18.05,1.17 10.47,1.17 C5.86,1.17 0.48,6.09 2.95,10.02 C7.89,17.87 16.32,19.16 25.7,19.27 C35.12,19.39 45.5,17.8 50.68,10.09 C53.26,6.24 45.32,1.04 40.71,1.07z ;M39.38 5.5 C33.87,5.53 32.46,6.74 26.01,6.61 C19.57,6.49 18.75,5.65 11.18,5.66 C6.56,5.66 7.14,9.36 9.61,13.29 C14.54,21.14 16.35,15.64 25.74,15.76 C35.16,15.87 38.15,20.22 43.33,12.5 C45.91,8.65 43.98,5.47 39.38,5.5z ;M40.71 1.07 C35.2,1.1 40.24,0.2 26.76,-0.4 C13.27,-1 18.05,1.17 10.47,1.17 C5.86,1.17 0.48,6.09 2.95,10.02 C7.89,17.87 16.32,19.16 25.7,19.27 C35.12,19.39 45.5,17.8 50.68,10.09 C53.26,6.24 45.32,1.04 40.71,1.07z ;M42.64 4.37 C37.13,4.4 31.83,4.48 25.39,4.36 C18.94,4.24 16.5,4.15 8.92,4.15 C4.31,4.16 0.25,3.85 2.72,7.78 C7.66,15.63 16.23,20.9 25.62,21.01 C35.03,21.13 43.66,16.09 48.84,8.37 C51.42,4.52 47.24,4.34 42.64,4.37z ;M42.64 4.37 C37.13,4.4 31.83,4.48 25.39,4.36 C18.94,4.24 16.5,4.15 8.92,4.15 C4.31,4.16 0.25,3.85 2.72,7.78 C7.66,15.63 16.23,20.9 25.62,21.01 C35.03,21.13 43.66,16.09 48.84,8.37 C51.42,4.52 47.24,4.34 42.64,4.37z " keySplines="0.167 0.223 0.833 0.777;0.167 0.223 0.833 0.777;0.167 0.223 0.833 0.777;0.167 0.223 0.833 0.777;0.167 0.223 0.833 0.777;0.167 0.223 0.833 0.777;0.167 0.223 0.833 0.777;0.167 0.223 0.833 0.777;0.167 0.223 0.667 1;0.167 0 0.833 0.777;0.167 0.223 0.833 0.777;0.167 0.223 0.833 0.777;0.167 0.223 0.833 0.777;0.167 0.223 0.833 0.777;0.167 0.223 0.833 0.777;0.167 0.223 0.833 0.777;0.167 0.223 0.833 0.777;0.167 0.223 0.833 0.777;0.167 0.223 0.667 1;0 0 0 0" calcMode="spline"/><animate repeatCount="indefinite" dur="3.8s" begin="0s" xlink:href="#_R_G_L_0_G_M" fill="freeze" attributeName="opacity" from="0" to="1" keyTimes="0;0.1263158;0.1263168;1" values="0;0;1;1" keySplines="0 0 0 0;0 0 0 0;0 0 0 0" calcMode="spline"/><animate attributeType="XML" attributeName="opacity" dur="4s" from="0" to="1" xlink:href="#time_group"/></defs><g id="_R_G"><g id="_R_G_L_14_G_N_7_T_0" transform=" translate(145, 150) translate(0, 0)"><g id="_R_G_L_14_G" transform=" translate(5.102, -3.876) translate(-99.135, -33.19)"><path id="_R_G_L_14_G_D_0_P_0" fill="#606060" fill-opacity="1" fill-rule="nonzero" d=" M175.5 4.23 C175.5,4.23 182.88,4.44 182.88,4.44 C187.41,4.56 191.18,7.94 191.8,12.43 C193.13,22.24 195,39.65 193.92,54.52 C193.57,59.47 189.38,63.26 184.42,63.13 C184.42,63.13 181.69,63.05 181.69,63.05 C181.69,63.05 186.74,26.85 175.5,4.23z "/><path id="_R_G_L_14_G_D_1_P_0" fill="#353535" fill-opacity="1" fill-rule="nonzero" d=" M184.69 66.13 C184.57,66.13 184.46,66.13 184.34,66.13 C184.34,66.13 178.26,65.96 178.26,65.96 C178.26,65.96 178.72,62.64 178.72,62.64 C178.77,62.28 183.51,27.08 172.81,5.57 C172.81,5.57 170.59,1.1 170.59,1.1 C170.59,1.1 182.96,1.44 182.96,1.44 C188.99,1.6 193.96,6.06 194.77,12.02 C196.05,21.39 198.02,39.4 196.91,54.74 C196.45,61.19 191.11,66.13 184.69,66.13z  M180.15 7.36 C187.55,26.35 185.95,51.18 185.05,60.12 C188.17,59.94 190.7,57.48 190.93,54.31 C192,39.52 190.07,21.99 188.83,12.85 C188.41,9.81 185.86,7.52 182.8,7.44 C182.8,7.44 180.15,7.36 180.15,7.36z "/><path id="_R_G_L_14_G_D_2_P_0" fill="#606060" fill-opacity="1" fill-rule="nonzero" d=" M24.82 3.61 C24.82,3.61 16.7,3.39 16.7,3.39 C12.6,3.27 9.02,6.14 8.24,10.17 C6.32,19.96 3.26,38.3 3.66,53.81 C3.78,58.14 7.49,61.78 11.82,61.9 C11.82,61.9 15.39,62 15.39,62 C15.39,62 12.34,25.57 24.82,3.61z "/><path id="_R_G_L_14_G_D_3_P_0" fill="#353535" fill-opacity="1" fill-rule="nonzero" d=" M18.65 65.09 C18.65,65.09 11.74,64.9 11.74,64.9 C5.69,64.73 0.82,59.9 0.66,53.89 C0.25,38.03 3.39,19.33 5.29,9.6 C6.37,4.11 11.21,0.25 16.79,0.39 C16.79,0.39 29.9,0.75 29.9,0.75 C29.9,0.75 27.43,5.09 27.43,5.09 C15.57,25.98 18.35,61.4 18.37,61.75 C18.37,61.75 18.65,65.09 18.65,65.09z  M16.47 6.38 C13.89,6.38 11.68,8.2 11.18,10.75 C9.32,20.24 6.26,38.45 6.66,53.73 C6.74,56.55 9.04,58.82 11.9,58.9 C11.9,58.9 12.19,58.91 12.19,58.91 C11.79,49.95 11.56,25.05 20,6.48 C20,6.48 16.62,6.39 16.62,6.39 C16.57,6.39 16.52,6.38 16.47,6.38z "/><path id="_R_G_L_14_G_D_4_P_0" fill="#353535" fill-opacity="1" fill-rule="nonzero" d=" M193.64 54.26 C194.09,48.05 194.03,41.4 193.71,35.05 C192.55,39.02 188.85,41.84 184.56,41.72 C184.56,41.72 182.53,41.67 182.53,41.67 C182.69,53.62 181.41,62.74 181.41,62.74 C181.41,62.74 184.15,62.82 184.15,62.82 C189.09,62.95 193.29,59.19 193.64,54.26z "/><path id="_R_G_L_14_G_D_5_P_0" fill="#353535" fill-opacity="1" fill-rule="nonzero" d=" M15.16 40.59 C15.16,40.59 11.95,40.5 11.95,40.5 C8.36,40.4 5.31,38.05 4.22,34.8 C3.6,40.99 3.23,47.41 3.39,53.41 C3.5,57.87 7.08,61.47 11.54,61.59 C11.54,61.59 15.11,61.69 15.11,61.69 C15.11,61.69 14.35,52.51 15.16,40.59z "/></g></g><g id="_R_G_L_13_G_N_7_T_0" transform=" translate(145, 150) translate(0, 0)"><g id="_R_G_L_13_G" transform=" translate(6.12, 2.505) translate(-85.146, -81.027)"><path id="_R_G_L_13_G_D_0_P_0" fill="#ffffff" fill-opacity="1" fill-rule="nonzero" d=" M168.66 87.49 C167.27,137.47 129.18,161.8 83.06,160.53 C36.94,159.25 0.25,132.85 1.64,82.86 C3.02,32.88 40.64,0.25 86.77,1.53 C132.89,2.81 170.04,37.51 168.66,87.49z "/></g></g><g id="_R_G_L_12_G_N_7_T_0" transform=" translate(145, 150) translate(0, 0)"><g id="_R_G_L_12_G" transform=" translate(9.367, 14.182) translate(-79.539, -68.49)"><path id="_R_G_L_12_G_D_0_P_0" fill="#adadad" fill-opacity="1" fill-rule="nonzero" d=" M137.9 0 C146.36,14.99 153.08,37.07 152.57,55.66 C151.18,105.64 113.09,129.97 66.97,128.69 C40.33,127.96 14.83,114.46 0,97.26 C13.1,122.61 40.91,136.03 73.44,136.93 C119.56,138.21 157.66,113.88 159.04,63.9 C159.71,39.78 151.63,17.13 137.9,0z "/></g></g><g id="_R_G_L_11_G_N_7_T_0" transform=" translate(145, 150) translate(0, 0)"><g id="_R_G_L_11_G" transform=" translate(7.199, -45.762) translate(-53.297, -32.628)"><path id="_R_G_L_11_G_D_0_P_0" fill="#00ffb6" fill-opacity="1" fill-rule="nonzero" d=" M103.5 21.49 C95.21,45.78 75.13,62.68 52.16,62.04 C29.18,61.41 10.07,43.42 3.14,18.71 C3.14,18.71 19.27,0.25 53.84,1.21 C88.42,2.17 103.5,21.49 103.5,21.49z "/><path id="_R_G_L_11_G_D_1_P_0" fill="#00d895" fill-opacity="1" fill-rule="nonzero" d=" M94.82 12.36 C86,35.2 66.57,50.83 44.46,50.22 C31.25,49.85 19.33,43.75 10.26,33.94 C19.61,49.72 34.8,60.16 52.2,60.64 C75.17,61.27 95.25,44.38 103.54,20.09 C103.54,20.09 100.74,16.51 94.82,12.36z "/><path id="_R_G_L_11_G_D_2_P_0" fill="#353535" fill-opacity="1" fill-rule="nonzero" d=" M53.38 65.01 C52.94,65.01 52.51,65 52.08,64.99 C28.53,64.33 7.71,46.04 0.25,19.47 C0.25,19.47 6.03,17.85 6.03,17.85 C12.77,41.88 31.34,58.41 52.24,58.99 C73.14,59.6 92.6,44.09 100.67,20.47 C100.67,20.47 106.34,22.41 106.34,22.41 C97.59,48.04 76.42,65.01 53.38,65.01z "/></g></g><g id="_R_G_L_10_G_N_7_T_0" transform=" translate(145, 150) translate(0, 0)"><g id="_R_G_L_10_G" transform=" translate(5.787, 2.693) translate(-87.759, -83.103)"><path id="_R_G_L_10_G_D_0_P_0" fill="#353535" fill-opacity="1" fill-rule="nonzero" d=" M89.51 165.95 C88.32,165.95 87.12,165.94 85.91,165.91 C33.36,164.45 0.25,132.75 1.57,85.16 C2.25,60.56 11.75,38.53 28.32,23.15 C44.47,8.16 66.26,0.25 89.78,0.91 C113.35,1.56 134.95,10.66 150.59,26.52 C166.75,42.89 175.27,65.42 174.59,89.95 C173.91,114.45 164.52,134.51 147.42,147.97 C132.43,159.77 112.47,165.95 89.51,165.95z  M87.1 6.87 C66.16,6.87 46.82,14.17 32.4,27.55 C17.02,41.83 8.2,62.34 7.57,85.33 C6.94,107.98 14.5,126.92 29.45,140.09 C43.44,152.41 63.02,159.27 86.07,159.91 C109.13,160.55 129.06,154.79 143.71,143.25 C159.36,130.93 167.96,112.45 168.59,89.79 C169.22,66.9 161.32,45.93 146.32,30.73 C131.77,15.98 111.63,7.52 89.62,6.91 C88.78,6.89 87.94,6.87 87.1,6.87z "/></g></g><g id="_R_G_L_9_G_N_7_T_0_M"><g id="_R_G_L_9_G_N_7_T_0" transform=" translate(145, 150) translate(0, 0)"><g id="_R_G_L_9_G" transform=" translate(3.461, 46.165) translate(-25.336, -19.69)"><path id="_R_G_L_9_G_D_0_P_0" fill="#1c1c1c" fill-opacity="1" fill-rule="nonzero" d=" M42.64 4.74 C38.47,10.96 31.75,13.88 25.15,13.6 C18.87,13.33 12.69,10.15 8.92,4.15 C6.47,0.25 0.25,3.85 2.72,7.78 C7.66,15.63 16.23,20.9 25.62,21.01 C35.03,21.13 43.66,16.09 48.84,8.37 C51.42,4.52 45.2,0.92 42.64,4.74z "/></g></g></g><g id="_R_G_L_8_G_N_7_T_0_M"><g id="_R_G_L_8_G_N_7_T_0" transform=" translate(145, 150) translate(0, 0)"><g id="_R_G_L_8_G" transform=" translate(-35.539, 5.595)"><path id="_R_G_L_8_G_D_0_P_0" fill="#1c1c1c" fill-opacity="1" fill-rule="nonzero" d=" M24.49 7.71 C27.37,15.14 22.19,23.07 14.24,23.43 C9.42,23.64 4.87,20.67 3.13,16.18 C0.25,8.75 5.43,0.82 13.38,0.46 C18.2,0.25 22.75,3.22 24.49,7.71z "/><path id="_R_G_L_8_G_D_1_P_0" fill="#ffffff" fill-opacity="1" fill-rule="nonzero" d=" M21.04 9.25 C21.02,9.13 20.99,9 20.96,8.88 C20.64,7.32 19.11,6.24 17.57,6.61 C15.88,7.02 14.91,8.55 15.26,10.22 C15.29,10.35 15.32,10.47 15.34,10.6 C15.67,12.15 17.19,13.24 18.73,12.87 C20.43,12.46 21.39,10.93 21.04,9.25z "/></g></g></g><g id="_R_G_L_7_G_N_7_T_0_M"><g id="_R_G_L_7_G_N_7_T_0" transform=" translate(145, 150) translate(0, 0)"><g id="_R_G_L_7_G" transform=" translate(46.711, 5.595)"><path id="_R_G_L_7_G_D_0_P_0" fill="#1c1c1c" fill-opacity="1" fill-rule="nonzero" d=" M24.49 7.71 C27.37,15.14 22.19,23.07 14.24,23.43 C9.42,23.64 4.87,20.67 3.13,16.18 C0.25,8.75 5.43,0.82 13.38,0.46 C18.2,0.25 22.75,3.22 24.49,7.71z "/><path id="_R_G_L_7_G_D_1_P_0" fill="#ffffff" fill-opacity="1" fill-rule="nonzero" d=" M21.04 9.25 C21.02,9.13 20.99,9 20.96,8.88 C20.64,7.32 19.11,6.24 17.57,6.61 C15.88,7.02 14.91,8.55 15.26,10.22 C15.29,10.35 15.32,10.47 15.34,10.6 C15.67,12.15 17.19,13.24 18.73,12.87 C20.43,12.46 21.39,10.93 21.04,9.25z "/></g></g></g><g id="_R_G_L_6_G_N_7_T_0_M"><g id="_R_G_L_6_G_N_7_T_0" transform=" translate(145, 150) translate(0, 0)"><g id="_R_G_L_6_G" transform=" translate(-35.539, 5.595)"><path id="_R_G_L_6_G_D_0_P_0" fill="#1c1c1c" fill-opacity="1" fill-rule="nonzero" d=" M24.49 7.71 C27.37,15.14 22.19,23.07 14.24,23.43 C9.42,23.64 4.87,20.67 3.13,16.18 C0.25,8.75 5.43,0.82 13.38,0.46 C18.2,0.25 22.75,3.22 24.49,7.71z "/><path id="_R_G_L_6_G_D_1_P_0" fill="#ffffff" fill-opacity="1" fill-rule="nonzero" d=" M21.04 9.25 C21.02,9.13 20.99,9 20.96,8.88 C20.64,7.32 19.11,6.24 17.57,6.61 C15.88,7.02 14.91,8.55 15.26,10.22 C15.29,10.35 15.32,10.47 15.34,10.6 C15.67,12.15 17.19,13.24 18.73,12.87 C20.43,12.46 21.39,10.93 21.04,9.25z "/></g></g></g><g id="_R_G_L_5_G_N_7_T_0_M"><g id="_R_G_L_5_G_N_7_T_0" transform=" translate(145, 150) translate(0, 0)"><g id="_R_G_L_5_G" transform=" translate(46.711, 5.595)"><path id="_R_G_L_5_G_D_0_P_0" fill="#1c1c1c" fill-opacity="1" fill-rule="nonzero" d=" M24.49 7.71 C27.37,15.14 22.19,23.07 14.24,23.43 C9.42,23.64 4.87,20.67 3.13,16.18 C0.25,8.75 5.43,0.82 13.38,0.46 C18.2,0.25 22.75,3.22 24.49,7.71z "/><path id="_R_G_L_5_G_D_1_P_0" fill="#ffffff" fill-opacity="1" fill-rule="nonzero" d=" M21.04 9.25 C21.02,9.13 20.99,9 20.96,8.88 C20.64,7.32 19.11,6.24 17.57,6.61 C15.88,7.02 14.91,8.55 15.26,10.22 C15.29,10.35 15.32,10.47 15.34,10.6 C15.67,12.15 17.19,13.24 18.73,12.87 C20.43,12.46 21.39,10.93 21.04,9.25z "/></g></g></g><g id="_R_G_L_4_G_M"><g id="_R_G_L_4_G" transform=" translate(25.403, 24.766)"><path id="_R_G_L_4_G_D_0_P_0" fill="#1c1c1c" fill-opacity="1" fill-rule="nonzero" d=" M5.45 7.8 C9.11,8.3 13.52,9.46 17.18,9.06 C16.34,7.02 15.49,4.97 14.64,2.93 C10.38,8.16 6.11,13.38 1.84,18.61 C0.25,20.56 0.55,23.98 3.43,24.62 C7.81,25.59 13,25.61 17.48,25.63 C22.11,25.66 22.11,18.47 17.48,18.45 C15.42,18.44 13.34,18.2 11.28,18.07 C9.85,17.97 8.41,17.88 6.98,17.77 C6.49,17.74 3.56,17.29 5.34,17.69 C5.34,17.69 6.92,23.69 6.92,23.69 C11.19,18.46 15.45,13.24 19.72,8.01 C21.44,5.91 20.61,1.51 17.18,1.88 C15.59,2.05 13.72,1.57 12.14,1.39 C11.03,1.27 9.91,1.15 8.8,1.02 C8.33,0.96 5.67,0.64 7.36,0.87 C2.84,0.25 0.88,7.17 5.45,7.8z "/></g></g><g id="_R_G_L_3_G_M"><g id="_R_G_L_3_G" transform=" translate(48.304, 39.249)"><path id="_R_G_L_3_G_D_0_P_0" fill="#1c1c1c" fill-opacity="1" fill-rule="nonzero" d=" M10.91 8.93 C14.89,10.57 19.54,13.05 23.84,13.51 C23.23,11.28 22.63,9.04 22.02,6.81 C15.63,11.53 9.23,16.26 2.83,20.98 C0.79,22.49 0.25,25.78 2.83,27.18 C5.21,28.46 8.15,29.06 10.69,29.9 C13.24,30.73 15.79,31.73 18.39,32.38 C22.88,33.5 24.79,26.57 20.3,25.45 C17.93,24.86 15.59,23.95 13.27,23.19 C11.61,22.64 9.94,22.1 8.28,21.54 C7.73,21.36 4.89,20.13 6.46,20.98 C6.46,20.98 6.46,27.18 6.46,27.18 C12.86,22.46 19.25,17.74 25.65,13.02 C28.6,10.84 27.48,6.71 23.84,6.32 C25.56,6.51 22.99,5.84 22.5,5.66 C21.15,5.17 19.81,4.66 18.46,4.16 C16.58,3.45 14.68,2.77 12.82,2.01 C8.55,0.25 6.69,7.2 10.91,8.93z "/></g></g><g id="_R_G_L_2_G_M"><g id="_R_G_L_2_G" transform=" translate(71.184, 69.264)"><path id="_R_G_L_2_G_D_0_P_0" fill="#1c1c1c" fill-opacity="1" fill-rule="nonzero" d=" M7.88 8.08 C10.63,8.64 13.43,9.03 16.19,9.49 C18.98,9.94 22.22,10.93 25.04,10.53 C25.04,10.53 21.55,4.52 21.55,4.52 C15.08,11.64 8.6,18.75 2.13,25.86 C0.25,27.93 1.11,30.97 3.72,31.86 C6.66,32.87 10.52,32.77 13.6,33.14 C16.78,33.52 20.05,34.14 23.25,34.26 C27.88,34.42 27.87,27.24 23.25,27.07 C20.28,26.97 17.26,26.39 14.31,26.04 C11.58,25.71 7.61,25.61 5.63,24.93 C5.63,24.93 7.21,30.94 7.21,30.94 C13.68,23.83 20.16,16.72 26.63,9.61 C29.21,6.76 26.58,3.11 23.13,3.6 C25.1,3.32 22.82,3.32 21.67,3.13 C20.02,2.88 18.37,2.6 16.72,2.33 C14.42,1.95 12.09,1.62 9.79,1.16 C5.28,0.25 3.35,7.17 7.88,8.08z "/></g></g><g id="_R_G_L_1_G_M"><g id="_R_G_L_1_G"><path id="_R_G_L_1_G_D_0_P_0" fill="#1c1c1c" fill-opacity="1" fill-rule="nonzero" d=" M107.13 3.84 C102.83,9.1 95.09,8.47 90.54,3.84 C87.29,0.53 82.21,5.61 85.46,8.92 C92.53,16.11 105.47,17.18 112.21,8.92 C115.11,5.36 110.06,0.25 107.13,3.84z "/><path id="_R_G_L_1_G_D_1_P_0" fill="#1c1c1c" fill-opacity="1" fill-rule="nonzero" d=" M3.15 8.91 C9.9,17.18 22.83,16.11 29.91,8.91 C33.15,5.61 28.07,0.53 24.83,3.83 C20.27,8.47 12.53,9.1 8.23,3.83 C5.31,0.25 0.25,5.36 3.15,8.91z "/></g></g><g id="_R_G_L_0_G_M"><g id="_R_G_L_0_G" transform=" translate(148.211, 196.915) translate(-25.086, -20.44)"><path id="_R_G_L_0_G_D_0_P_0" fill="#1c1c1c" fill-opacity="1" fill-rule="nonzero" d=" M39.38 5.5 C33.87,5.53 32.46,6.74 26.01,6.61 C19.57,6.49 18.75,5.65 11.18,5.66 C6.56,5.66 7.14,9.36 9.61,13.29 C14.54,21.14 16.35,15.64 25.74,15.76 C35.16,15.87 38.15,20.22 43.33,12.5 C45.91,8.65 43.98,5.47 39.38,5.5z "/></g></g></g><g id="time_group"/></svg>