<svg width="607" height="639" viewBox="0 0 607 639" fill="none" xmlns="http://www.w3.org/2000/svg">
<g opacity="0.46">
<path d="M511.45 147.753C519.007 145.807 523.463 145.363 532.567 144.745C536.876 144.207 541.218 144.104 545.481 144.043L547.076 144.021L548.663 144.058C549.19 144.058 549.714 144.058 550.239 144.104L551.802 144.204L553.335 144.304C553.866 144.347 554.393 144.411 554.925 144.502C555.19 144.548 555.458 144.599 555.729 144.666C556.09 144.754 556.446 144.869 556.797 145.01C557.62 145.372 558.265 145.922 558.415 146.777C558.456 147.021 558.45 147.275 558.398 147.516C558.339 147.762 558.249 147.994 558.132 148.203C558.068 148.315 557.997 148.422 557.921 148.522L557.663 148.826C557.569 148.928 557.469 149.023 557.366 149.109L557.209 149.246C557.16 149.292 557.1 149.346 557.067 149.371L556.83 149.562C556.752 149.62 556.661 149.696 556.604 149.736L556.215 150.021C555.959 150.204 555.7 150.383 555.442 150.557C554.407 151.25 553.363 151.898 552.31 152.533C550.203 153.801 551.619 152.959 549.463 154.157C548.384 154.753 547.298 155.346 546.205 155.936C545.664 156.24 544.165 157.07 543.742 157.411C543.533 157.581 542.036 158.898 544.388 158.67C546.744 158.366 549.152 157.922 551.541 157.472L558.704 156.07C563.466 155.13 573.889 152.165 578.545 151.381C578.561 151.493 577.035 151.931 578.594 151.727C581.707 151.293 583.278 151.171 584.068 151.162C584.858 151.153 584.872 151.274 584.887 151.39C584.887 151.448 583.729 151.615 582.751 151.764C581.774 151.913 581.007 152.038 581.788 151.971C577.138 152.682 569.433 154.209 574.084 153.464C574.864 153.379 576.793 153.032 578.727 152.713C580.661 152.393 582.597 152.104 583.382 152.08C584.953 152.022 581.88 152.658 583.449 152.6C584.996 152.36 588.092 151.94 589.644 151.77C591.203 151.709 588.13 152.296 589.679 152.117C592.005 151.907 594.717 151.661 597.616 151.533C600.515 151.405 603.617 151.405 606.632 151.864C606.632 151.922 607.005 152.041 607 152.089C606.995 152.138 606.898 152.123 606.604 152.089C606.31 152.056 605.854 152.013 605.099 151.949C601.794 151.624 598.401 151.733 595.016 151.974C591.63 152.214 588.232 152.646 584.837 153.141C578.039 154.148 565.566 157.533 558.766 158.88C555.366 159.555 551.963 160.251 548.518 160.857C547.655 161.009 546.789 161.161 545.908 161.276C545.028 161.392 544.155 161.519 543.225 161.58C542.988 161.595 542.75 161.602 542.513 161.605C542.387 161.605 542.221 161.605 542.077 161.605H541.96L541.804 161.583L541.493 161.544C541.392 161.529 541.292 161.506 541.194 161.474C541.097 161.443 540.995 161.419 540.902 161.383L540.636 161.246C540.554 161.195 540.475 161.137 540.399 161.072C540.093 160.835 539.835 160.508 539.647 160.118C539.482 159.748 539.405 159.326 539.426 158.901L539.467 158.597C539.485 158.493 539.51 158.391 539.543 158.293C539.57 158.186 539.606 158.084 539.652 157.989C539.693 157.885 539.738 157.783 539.787 157.685C539.892 157.49 540.005 157.303 540.126 157.125L540.219 156.997L540.266 156.934L540.302 156.891L540.439 156.724C540.617 156.515 540.803 156.318 540.997 156.134C541.75 155.421 542.567 154.828 543.431 154.367L545.771 153.12C547.32 152.287 545.296 153.5 546.839 152.643C548.381 151.785 549.902 150.918 551.406 150.021C552.156 149.574 552.903 149.109 553.631 148.65C553.992 148.416 554.355 148.182 554.702 147.938C554.877 147.82 555.046 147.698 555.212 147.576L555.314 147.5L555.392 147.44L555.47 147.379C555.482 147.379 555.482 147.354 555.47 147.351L555.359 147.318L555.074 147.193C554.706 147.105 554.312 147.038 553.914 146.986C553.515 146.935 553.105 146.895 552.708 146.871L551.392 146.783L550.12 146.698C549.698 146.667 549.271 146.67 548.843 146.655C545.439 146.558 542.012 146.691 538.591 146.983C531.748 147.592 528.718 147.513 521.444 148.504C518.065 149.197 514.988 149.514 511.635 150.329C508.283 151.144 504.944 152.025 501.623 152.947C494.979 154.796 488.396 156.814 481.875 159.002C480.387 159.506 479.547 159.777 479.201 159.868C478.854 159.959 478.975 159.868 479.417 159.667C480.311 159.254 482.501 158.387 484.727 157.566C483.251 158.117 483.203 157.949 481.73 158.512C481.706 158.427 482.416 158.062 483.882 157.466C485.348 156.87 487.567 156.049 490.563 155.1C489.062 155.568 487.56 156.046 486.055 156.532C484.544 156.964 486.008 156.365 485.977 156.252L488.039 155.583C488.353 155.498 488.662 155.381 488.962 155.234L488.903 155.012C487.401 155.483 484.395 156.456 482.907 156.964L484.962 156.274C485.277 156.189 485.585 156.07 485.885 155.918L485.823 155.696C488.805 154.656 493.354 153.373 496.365 152.433L496.322 152.266C493.28 153.09 488.775 154.543 485.775 155.529C487.263 154.981 487.249 154.92 487.218 154.817C491.712 153.315 496.286 152.129 500.797 150.678C499.281 151.107 497.762 151.539 496.251 151.983C497.729 151.399 500.377 150.617 503.234 149.854C506.09 149.091 509.158 148.334 511.45 147.753Z" fill="#F8961F"/>
</g>
<rect y="534" width="122" height="69" fill="#FFF4E7"/>
<ellipse cx="381.5" cy="618" rx="15.5" ry="15" fill="#FFF4E7"/>
<rect x="567" y="603" width="40" height="36" fill="#FFF4E7"/>
<rect x="169" width="127" height="45" fill="#FFF4E7"/>
<rect x="41" y="88" width="40" height="36" fill="#FFF4E7"/>
</svg>
