<svg xmlns="http://www.w3.org/2000/svg" xmlns:xlink="http://www.w3.org/1999/xlink" preserveAspectRatio="xMidYMid meet" width="200" height="200" viewBox="0 0 200 200" style="width:100%;height:100%"><defs><animate repeatCount="indefinite" dur="2.44s" begin="0s" xlink:href="#_R_G_L_8_G_D_0_P_0" fill="freeze" attributeName="d" attributeType="XML" from="M42.64 4.74 C38.51,10.89 31.9,13.81 25.37,13.6 C19.01,13.4 12.74,10.22 8.92,4.15 C6.47,0.25 0.25,3.85 2.72,7.78 C7.66,15.63 16.23,20.9 25.62,21.01 C35.03,21.13 43.66,16.09 48.84,8.37 C51.42,4.52 45.2,0.92 42.64,4.74z " to="M35.51 7.99 C34,5.9 32.9,2.56 26.37,2.35 C20.01,2.15 15.6,7.03 14.92,9.53 C14.25,12.03 13.07,18.04 14.72,20.78 C16.38,23.53 16.23,27.4 25.62,27.51 C35.03,27.63 36.43,22.47 37.46,19.5 C38.5,16.52 37.02,10.09 35.51,7.99z " keyTimes="0;0.0327869;0.1147541;1" values="M42.64 4.74 C38.51,10.89 31.9,13.81 25.37,13.6 C19.01,13.4 12.74,10.22 8.92,4.15 C6.47,0.25 0.25,3.85 2.72,7.78 C7.66,15.63 16.23,20.9 25.62,21.01 C35.03,21.13 43.66,16.09 48.84,8.37 C51.42,4.52 45.2,0.92 42.64,4.74z ;M42.64 4.74 C38.51,10.89 31.9,13.81 25.37,13.6 C19.01,13.4 12.74,10.22 8.92,4.15 C6.47,0.25 0.25,3.85 2.72,7.78 C7.66,15.63 16.23,20.9 25.62,21.01 C35.03,21.13 43.66,16.09 48.84,8.37 C51.42,4.52 45.2,0.92 42.64,4.74z ;M35.51 7.99 C34,5.9 32.9,2.56 26.37,2.35 C20.01,2.15 15.6,7.03 14.92,9.53 C14.25,12.03 13.07,18.04 14.72,20.78 C16.38,23.53 16.23,27.4 25.62,27.51 C35.03,27.63 36.43,22.47 37.46,19.5 C38.5,16.52 37.02,10.09 35.51,7.99z ;M35.51 7.99 C34,5.9 32.9,2.56 26.37,2.35 C20.01,2.15 15.6,7.03 14.92,9.53 C14.25,12.03 13.07,18.04 14.72,20.78 C16.38,23.53 16.23,27.4 25.62,27.51 C35.03,27.63 36.43,22.47 37.46,19.5 C38.5,16.52 37.02,10.09 35.51,7.99z " keySplines="0.167 0.167 0.833 0.833;0.167 0.167 0.833 0.833;0 0 0 0" calcMode="spline"/><animate repeatCount="indefinite" dur="2.44s" begin="0s" xlink:href="#_R_G_L_8_G_N_4_T_0_M" fill="freeze" attributeName="opacity" from="1" to="0" keyTimes="0;0.2131148;0.2131148;1" values="1;1;0;0" keySplines="0 0 0 0;0 0 0 0;0 0 0 0" calcMode="spline"/><animate repeatCount="indefinite" dur="2.44s" begin="0s" xlink:href="#_R_G_L_7_G_D_0_P_0" fill="freeze" attributeName="d" attributeType="XML" from="M35.51 7.99 C34,5.9 32.9,2.56 26.37,2.35 C20.01,2.15 15.6,7.03 14.92,9.53 C14.25,12.03 13.07,18.04 14.72,20.78 C16.38,23.53 16.23,27.4 25.62,27.51 C35.03,27.63 36.43,22.47 37.46,19.5 C38.5,16.52 37.02,10.09 35.51,7.99z " to="M42.64 4.74 C38.51,10.89 31.9,13.81 25.37,13.6 C19.01,13.4 12.74,10.22 8.92,4.15 C6.47,0.25 0.25,3.85 2.72,7.78 C7.66,15.63 16.23,20.9 25.62,21.01 C35.03,21.13 43.66,16.09 48.84,8.37 C51.42,4.52 45.2,0.92 42.64,4.74z " keyTimes="0;0.7213115;0.8196721;1" values="M35.51 7.99 C34,5.9 32.9,2.56 26.37,2.35 C20.01,2.15 15.6,7.03 14.92,9.53 C14.25,12.03 13.07,18.04 14.72,20.78 C16.38,23.53 16.23,27.4 25.62,27.51 C35.03,27.63 36.43,22.47 37.46,19.5 C38.5,16.52 37.02,10.09 35.51,7.99z ;M35.51 7.99 C34,5.9 32.9,2.56 26.37,2.35 C20.01,2.15 15.6,7.03 14.92,9.53 C14.25,12.03 13.07,18.04 14.72,20.78 C16.38,23.53 16.23,27.4 25.62,27.51 C35.03,27.63 36.43,22.47 37.46,19.5 C38.5,16.52 37.02,10.09 35.51,7.99z ;M42.64 4.74 C38.51,10.89 31.9,13.81 25.37,13.6 C19.01,13.4 12.74,10.22 8.92,4.15 C6.47,0.25 0.25,3.85 2.72,7.78 C7.66,15.63 16.23,20.9 25.62,21.01 C35.03,21.13 43.66,16.09 48.84,8.37 C51.42,4.52 45.2,0.92 42.64,4.74z ;M42.64 4.74 C38.51,10.89 31.9,13.81 25.37,13.6 C19.01,13.4 12.74,10.22 8.92,4.15 C6.47,0.25 0.25,3.85 2.72,7.78 C7.66,15.63 16.23,20.9 25.62,21.01 C35.03,21.13 43.66,16.09 48.84,8.37 C51.42,4.52 45.2,0.92 42.64,4.74z " keySplines="0.167 0.167 0.833 0.833;0.167 0.167 0.833 0.833;0 0 0 0" calcMode="spline"/><animate repeatCount="indefinite" dur="2.44s" begin="0s" xlink:href="#_R_G_L_7_G_N_4_T_0_M" fill="freeze" attributeName="opacity" from="0" to="1" keyTimes="0;0.7213115;0.7213131;1" values="0;0;1;1" keySplines="0 0 0 0;0 0 0 0;0 0 0 0" calcMode="spline"/><animateTransform repeatCount="indefinite" dur="2.44s" begin="0s" xlink:href="#_R_G_L_6_G" fill="freeze" attributeName="transform" from="1 1" to="0.3 0.3" type="scale" additive="sum" keyTimes="0;0.0327869;0.0737705;0.1147541;1" values="1 1;1 1;1.2 1.2;0.3 0.3;0.3 0.3" keySplines="0.167 0.167 0.833 0.833;0.167 0.167 0.833 0.833;0.167 0.167 0.833 0.833;0 0 0 0" calcMode="spline"/><animateTransform repeatCount="indefinite" dur="2.44s" begin="0s" xlink:href="#_R_G_L_6_G" fill="freeze" attributeName="transform" from="-13.809 -11.946" to="-13.809 -11.946" type="translate" additive="sum" keyTimes="0;0.9508197;1" values="-13.809 -11.946;-13.809 -11.946;-13.809 -11.946" keySplines="0 0 1 1;0 0 0 0" calcMode="spline"/><animate repeatCount="indefinite" dur="2.44s" begin="0s" xlink:href="#_R_G_L_6_G_N_4_T_0_M" fill="freeze" attributeName="opacity" from="1" to="0" keyTimes="0;0.1803279;0.1803279;1" values="1;1;0;0" keySplines="0 0 0 0;0 0 0 0;0 0 0 0" calcMode="spline"/><animateTransform repeatCount="indefinite" dur="2.44s" begin="0s" xlink:href="#_R_G_L_5_G" fill="freeze" attributeName="transform" from="1 1" to="0.3 0.3" type="scale" additive="sum" keyTimes="0;0.0327869;0.0737705;0.1147541;1" values="1 1;1 1;1.2 1.2;0.3 0.3;0.3 0.3" keySplines="0.167 0.167 0.833 0.833;0.167 0.167 0.833 0.833;0.167 0.167 0.833 0.833;0 0 0 0" calcMode="spline"/><animateTransform repeatCount="indefinite" dur="2.44s" begin="0s" xlink:href="#_R_G_L_5_G" fill="freeze" attributeName="transform" from="-13.809 -11.946" to="-13.809 -11.946" type="translate" additive="sum" keyTimes="0;0.9508197;1" values="-13.809 -11.946;-13.809 -11.946;-13.809 -11.946" keySplines="0 0 1 1;0 0 0 0" calcMode="spline"/><animate repeatCount="indefinite" dur="2.44s" begin="0s" xlink:href="#_R_G_L_5_G_N_4_T_0_M" fill="freeze" attributeName="opacity" from="1" to="0" keyTimes="0;0.1803279;0.1803279;1" values="1;1;0;0" keySplines="0 0 0 0;0 0 0 0;0 0 0 0" calcMode="spline"/><animateTransform repeatCount="indefinite" dur="2.44s" begin="0s" xlink:href="#_R_G_L_4_G" fill="freeze" attributeName="transform" from="0.49 0.49" to="1 1" type="scale" additive="sum" keyTimes="0;0.8032787;0.852459;1" values="0.49 0.49;0.49 0.49;1 1;1 1" keySplines="0.167 0.167 0.833 0.833;0.167 0.167 0.833 0.833;0 0 0 0" calcMode="spline"/><animateTransform repeatCount="indefinite" dur="2.44s" begin="0s" xlink:href="#_R_G_L_4_G" fill="freeze" attributeName="transform" from="-13.809 -11.946" to="-13.809 -11.946" type="translate" additive="sum" keyTimes="0;0.9508197;1" values="-13.809 -11.946;-13.809 -11.946;-13.809 -11.946" keySplines="0 0 1 1;0 0 0 0" calcMode="spline"/><animate repeatCount="indefinite" dur="2.44s" begin="0s" xlink:href="#_R_G_L_4_G_N_4_T_0_M" fill="freeze" attributeName="opacity" from="0" to="1" keyTimes="0;0.8032787;0.8032803;1" values="0;0;1;1" keySplines="0 0 0 0;0 0 0 0;0 0 0 0" calcMode="spline"/><animateTransform repeatCount="indefinite" dur="2.44s" begin="0s" xlink:href="#_R_G_L_3_G" fill="freeze" attributeName="transform" from="0.49 0.49" to="1 1" type="scale" additive="sum" keyTimes="0;0.8032787;0.852459;1" values="0.49 0.49;0.49 0.49;1 1;1 1" keySplines="0.167 0.167 0.833 0.833;0.167 0.167 0.833 0.833;0 0 0 0" calcMode="spline"/><animateTransform repeatCount="indefinite" dur="2.44s" begin="0s" xlink:href="#_R_G_L_3_G" fill="freeze" attributeName="transform" from="-13.809 -11.946" to="-13.809 -11.946" type="translate" additive="sum" keyTimes="0;0.9508197;1" values="-13.809 -11.946;-13.809 -11.946;-13.809 -11.946" keySplines="0 0 1 1;0 0 0 0" calcMode="spline"/><animate repeatCount="indefinite" dur="2.44s" begin="0s" xlink:href="#_R_G_L_3_G_N_4_T_0_M" fill="freeze" attributeName="opacity" from="0" to="1" keyTimes="0;0.8032787;0.8032803;1" values="0;0;1;1" keySplines="0 0 0 0;0 0 0 0;0 0 0 0" calcMode="spline"/><animateMotion repeatCount="indefinite" dur="2.44s" begin="0s" xlink:href="#_R_G_L_2_G" fill="freeze" keyTimes="0;0.1311475;0.3606721;0.5737541;0.8032787;1" path="M99.99 143.16 C99.99,143.16 99.99,143.16 99.99,143.16 C99.99,143.16 99.99,146.66 99.99,146.66 C99.99,146.66 99.99,143.16 99.99,143.16 C99.99,143.16 99.99,146.66 99.99,146.66 C99.99,146.66 99.99,146.66 99.99,146.66 " keyPoints="0;0;0.33;0.67;1;1" keySplines="0.167 0.167 0.833 0.833;0.167 0.167 0.833 0.833;0.167 0.167 0.833 0.833;0.167 0.167 0.833 0.833;0 0 0 0" calcMode="spline"/><animateTransform repeatCount="indefinite" dur="2.44s" begin="0s" xlink:href="#_R_G_L_2_G" fill="freeze" attributeName="transform" from="1 1" to="1.1 1.1" type="scale" additive="sum" keyTimes="0;0.1311475;0.3606557;0.5737705;0.8032787;1" values="1 1;1 1;1.1 1.1;1 1;1.1 1.1;1.1 1.1" keySplines="0.167 0.167 0.833 0.833;0.167 0.167 0.833 0.833;0.167 0.167 0.833 0.833;0.167 0.167 0.833 0.833;0 0 0 0" calcMode="spline"/><animateTransform repeatCount="indefinite" dur="2.44s" begin="0s" xlink:href="#_R_G_L_2_G" fill="freeze" attributeName="transform" from="-13.183 -13.363" to="-13.183 -13.363" type="translate" additive="sum" keyTimes="0;0.9508197;1" values="-13.183 -13.363;-13.183 -13.363;-13.183 -13.363" keySplines="0 0 1 1;0 0 0 0" calcMode="spline"/><animate repeatCount="indefinite" dur="2.44s" begin="0s" xlink:href="#_R_G_L_2_G_M" fill="freeze" attributeName="opacity" from="0" to="0" keyTimes="0;0.1147541;0.1147557;0.7868852;0.7868853;1" values="0;0;1;1;0;0" keySplines="0 0 0 0;0 0 0 0;0 0 0 0;0 0 0 0;0 0 0 0" calcMode="spline"/><animateTransform repeatCount="indefinite" dur="2.44s" begin="0s" xlink:href="#_R_G_L_1_G" fill="freeze" attributeName="transform" from="-17" to="708" type="rotate" additive="sum" keyTimes="0;0.1311475;0.8032787;1" values="-17;-17;708;708" keySplines="0.167 0.167 0.833 0.833;0.167 0.167 0.833 0.833;0 0 0 0" calcMode="spline"/><animateTransform repeatCount="indefinite" dur="2.44s" begin="0s" xlink:href="#_R_G_L_1_G" fill="freeze" attributeName="transform" from="0.29 0.29" to="0.42 0.42" type="scale" additive="sum" keyTimes="0;0.1311475;0.2295082;0.3770492;0.6065574;0.7027213;0.7868852;1" values="0.29 0.29;0.29 0.29;1.2 1.2;1 1;1 1;1.32 1.32;0.42 0.42;0.42 0.42" keySplines="0.167 0.167 0.833 0.833;0.167 0.167 0.833 0.833;0.167 0.167 0.833 0.833;0.167 0.167 0.833 0.833;0.167 0.167 0.833 0.833;0.167 0.167 0.833 0.833;0 0 0 0" calcMode="spline"/><animateTransform repeatCount="indefinite" dur="2.44s" begin="0s" xlink:href="#_R_G_L_1_G" fill="freeze" attributeName="transform" from="-21.573 -25.051" to="-21.573 -25.051" type="translate" additive="sum" keyTimes="0;0.9508197;1" values="-21.573 -25.051;-21.573 -25.051;-21.573 -25.051" keySplines="0 0 1 1;0 0 0 0" calcMode="spline"/><animate repeatCount="indefinite" dur="2.44s" begin="0s" xlink:href="#_R_G_L_1_G_M" fill="freeze" attributeName="opacity" from="0" to="0" keyTimes="0;0.1311475;0.1311492;0.852459;0.852459;1" values="0;0;1;1;0;0" keySplines="0 0 0 0;0 0 0 0;0 0 0 0;0 0 0 0;0 0 0 0" calcMode="spline"/><animateTransform repeatCount="indefinite" dur="2.44s" begin="0s" xlink:href="#_R_G_L_0_G" fill="freeze" attributeName="transform" from="-15" to="708" type="rotate" additive="sum" keyTimes="0;0.1311475;0.8032787;1" values="-15;-15;708;708" keySplines="0.167 0.167 0.833 0.833;0.167 0.167 0.833 0.833;0 0 0 0" calcMode="spline"/><animateTransform repeatCount="indefinite" dur="2.44s" begin="0s" xlink:href="#_R_G_L_0_G" fill="freeze" attributeName="transform" from="0.29 0.29" to="0.42 0.42" type="scale" additive="sum" keyTimes="0;0.1311475;0.2295082;0.3770492;0.6065574;0.7027213;0.7868852;1" values="0.29 0.29;0.29 0.29;1.2 1.2;1 1;1 1;1.27 1.27;0.42 0.42;0.42 0.42" keySplines="0.167 0.167 0.833 0.833;0.167 0.167 0.833 0.833;0.167 0.167 0.833 0.833;0.167 0.167 0.833 0.833;0.167 0.167 0.833 0.833;0.167 0.167 0.833 0.833;0 0 0 0" calcMode="spline"/><animateTransform repeatCount="indefinite" dur="2.44s" begin="0s" xlink:href="#_R_G_L_0_G" fill="freeze" attributeName="transform" from="-25.282 -25.481" to="-25.282 -25.481" type="translate" additive="sum" keyTimes="0;0.9508197;1" values="-25.282 -25.481;-25.282 -25.481;-25.282 -25.481" keySplines="0 0 1 1;0 0 0 0" calcMode="spline"/><animate repeatCount="indefinite" dur="2.44s" begin="0s" xlink:href="#_R_G_L_0_G_M" fill="freeze" attributeName="opacity" from="0" to="0" keyTimes="0;0.1311475;0.1311492;0.852459;0.852459;1" values="0;0;1;1;0;0" keySplines="0 0 0 0;0 0 0 0;0 0 0 0;0 0 0 0;0 0 0 0" calcMode="spline"/><animate attributeType="XML" attributeName="opacity" dur="2s" from="0" to="1" xlink:href="#time_group"/></defs><g id="_R_G"><g id="_R_G_L_13_G_N_4_T_0" transform=" translate(95, 100) translate(0, 0)"><g id="_R_G_L_13_G" transform=" translate(5.102, -3.876) translate(-99.135, -33.19)"><path id="_R_G_L_13_G_D_0_P_0" fill="#606060" fill-opacity="1" fill-rule="nonzero" d=" M175.5 4.23 C175.5,4.23 182.88,4.44 182.88,4.44 C187.41,4.56 191.18,7.94 191.8,12.43 C193.13,22.24 195,39.65 193.92,54.52 C193.57,59.47 189.38,63.26 184.42,63.13 C184.42,63.13 181.69,63.05 181.69,63.05 C181.69,63.05 186.74,26.85 175.5,4.23z "/><path id="_R_G_L_13_G_D_1_P_0" fill="#353535" fill-opacity="1" fill-rule="nonzero" d=" M184.69 66.13 C184.57,66.13 184.46,66.13 184.34,66.13 C184.34,66.13 178.26,65.96 178.26,65.96 C178.26,65.96 178.72,62.64 178.72,62.64 C178.77,62.28 183.51,27.08 172.81,5.57 C172.81,5.57 170.59,1.1 170.59,1.1 C170.59,1.1 182.96,1.44 182.96,1.44 C188.99,1.6 193.96,6.06 194.77,12.02 C196.05,21.39 198.02,39.4 196.91,54.74 C196.45,61.19 191.11,66.13 184.69,66.13z  M180.15 7.36 C187.55,26.35 185.95,51.18 185.05,60.12 C188.17,59.94 190.7,57.48 190.93,54.31 C192,39.52 190.07,21.99 188.83,12.85 C188.41,9.81 185.86,7.52 182.8,7.44 C182.8,7.44 180.15,7.36 180.15,7.36z "/><path id="_R_G_L_13_G_D_2_P_0" fill="#606060" fill-opacity="1" fill-rule="nonzero" d=" M24.82 3.61 C24.82,3.61 16.7,3.39 16.7,3.39 C12.6,3.27 9.02,6.14 8.24,10.17 C6.32,19.96 3.26,38.3 3.66,53.81 C3.78,58.14 7.49,61.78 11.82,61.9 C11.82,61.9 15.39,62 15.39,62 C15.39,62 12.34,25.57 24.82,3.61z "/><path id="_R_G_L_13_G_D_3_P_0" fill="#353535" fill-opacity="1" fill-rule="nonzero" d=" M18.65 65.09 C18.65,65.09 11.74,64.9 11.74,64.9 C5.69,64.73 0.82,59.9 0.66,53.89 C0.25,38.03 3.39,19.33 5.29,9.6 C6.37,4.11 11.21,0.25 16.79,0.39 C16.79,0.39 29.9,0.75 29.9,0.75 C29.9,0.75 27.43,5.09 27.43,5.09 C15.57,25.98 18.35,61.4 18.37,61.75 C18.37,61.75 18.65,65.09 18.65,65.09z  M16.47 6.38 C13.89,6.38 11.68,8.2 11.18,10.75 C9.32,20.24 6.26,38.45 6.66,53.73 C6.74,56.55 9.04,58.82 11.9,58.9 C11.9,58.9 12.19,58.91 12.19,58.91 C11.79,49.95 11.56,25.05 20,6.48 C20,6.48 16.62,6.39 16.62,6.39 C16.57,6.39 16.52,6.38 16.47,6.38z "/><path id="_R_G_L_13_G_D_4_P_0" fill="#353535" fill-opacity="1" fill-rule="nonzero" d=" M193.64 54.26 C194.09,48.05 194.03,41.4 193.71,35.05 C192.55,39.02 188.85,41.84 184.56,41.72 C184.56,41.72 182.53,41.67 182.53,41.67 C182.69,53.62 181.41,62.74 181.41,62.74 C181.41,62.74 184.15,62.82 184.15,62.82 C189.09,62.95 193.29,59.19 193.64,54.26z "/><path id="_R_G_L_13_G_D_5_P_0" fill="#353535" fill-opacity="1" fill-rule="nonzero" d=" M15.16 40.59 C15.16,40.59 11.95,40.5 11.95,40.5 C8.36,40.4 5.31,38.05 4.22,34.8 C3.6,40.99 3.23,47.41 3.39,53.41 C3.5,57.87 7.08,61.47 11.54,61.59 C11.54,61.59 15.11,61.69 15.11,61.69 C15.11,61.69 14.35,52.51 15.16,40.59z "/></g></g><g id="_R_G_L_12_G_N_4_T_0" transform=" translate(95, 100) translate(0, 0)"><g id="_R_G_L_12_G" transform=" translate(6.12, 2.505) translate(-85.146, -81.027)"><path id="_R_G_L_12_G_D_0_P_0" fill="#ffffff" fill-opacity="1" fill-rule="nonzero" d=" M168.66 87.49 C167.27,137.47 129.18,161.8 83.06,160.53 C36.94,159.25 0.25,132.85 1.64,82.86 C3.02,32.88 40.64,0.25 86.77,1.53 C132.89,2.81 170.04,37.51 168.66,87.49z "/></g></g><g id="_R_G_L_11_G_N_4_T_0" transform=" translate(95, 100) translate(0, 0)"><g id="_R_G_L_11_G" transform=" translate(9.367, 14.182) translate(-79.539, -68.49)"><path id="_R_G_L_11_G_D_0_P_0" fill="#adadad" fill-opacity="1" fill-rule="nonzero" d=" M137.9 0 C146.36,14.99 153.08,37.07 152.57,55.66 C151.18,105.64 113.09,129.97 66.97,128.69 C40.33,127.96 14.83,114.46 0,97.26 C13.1,122.61 40.91,136.03 73.44,136.93 C119.56,138.21 157.66,113.88 159.04,63.9 C159.71,39.78 151.63,17.13 137.9,0z "/></g></g><g id="_R_G_L_10_G_N_4_T_0" transform=" translate(95, 100) translate(0, 0)"><g id="_R_G_L_10_G" transform=" translate(7.199, -45.762) translate(-53.297, -32.628)"><path id="_R_G_L_10_G_D_0_P_0" fill="#00ffb6" fill-opacity="1" fill-rule="nonzero" d=" M103.5 21.49 C95.21,45.78 75.13,62.68 52.16,62.04 C29.18,61.41 10.07,43.42 3.14,18.71 C3.14,18.71 19.27,0.25 53.84,1.21 C88.42,2.17 103.5,21.49 103.5,21.49z "/><path id="_R_G_L_10_G_D_1_P_0" fill="#00d895" fill-opacity="1" fill-rule="nonzero" d=" M94.82 12.36 C86,35.2 66.57,50.83 44.46,50.22 C31.25,49.85 19.33,43.75 10.26,33.94 C19.61,49.72 34.8,60.16 52.2,60.64 C75.17,61.27 95.25,44.38 103.54,20.09 C103.54,20.09 100.74,16.51 94.82,12.36z "/><path id="_R_G_L_10_G_D_2_P_0" fill="#353535" fill-opacity="1" fill-rule="nonzero" d=" M53.38 65.01 C52.94,65.01 52.51,65 52.08,64.99 C28.53,64.33 7.71,46.04 0.25,19.47 C0.25,19.47 6.03,17.85 6.03,17.85 C12.77,41.88 31.34,58.41 52.24,58.99 C73.14,59.6 92.6,44.09 100.67,20.47 C100.67,20.47 106.34,22.41 106.34,22.41 C97.59,48.04 76.42,65.01 53.38,65.01z "/></g></g><g id="_R_G_L_9_G_N_4_T_0" transform=" translate(95, 100) translate(0, 0)"><g id="_R_G_L_9_G" transform=" translate(5.787, 2.693) translate(-87.759, -83.103)"><path id="_R_G_L_9_G_D_0_P_0" fill="#353535" fill-opacity="1" fill-rule="nonzero" d=" M89.51 165.95 C88.32,165.95 87.12,165.94 85.91,165.91 C33.36,164.45 0.25,132.75 1.57,85.16 C2.25,60.56 11.75,38.53 28.32,23.15 C44.47,8.16 66.26,0.25 89.78,0.91 C113.35,1.56 134.95,10.66 150.59,26.52 C166.75,42.89 175.27,65.42 174.59,89.95 C173.91,114.45 164.52,134.51 147.42,147.97 C132.43,159.77 112.47,165.95 89.51,165.95z  M87.1 6.87 C66.16,6.87 46.82,14.17 32.4,27.55 C17.02,41.83 8.2,62.34 7.57,85.33 C6.94,107.98 14.5,126.92 29.45,140.09 C43.44,152.41 63.02,159.27 86.07,159.91 C109.13,160.55 129.06,154.79 143.71,143.25 C159.36,130.93 167.96,112.45 168.59,89.79 C169.22,66.9 161.32,45.93 146.32,30.73 C131.77,15.98 111.63,7.52 89.62,6.91 C88.78,6.89 87.94,6.87 87.1,6.87z "/></g></g><g id="_R_G_L_8_G_N_4_T_0_M"><g id="_R_G_L_8_G_N_4_T_0" transform=" translate(95, 100) translate(0, 0)"><g id="_R_G_L_8_G" transform=" translate(4.461, 47.665) translate(-25.336, -19.69)"><path id="_R_G_L_8_G_D_0_P_0" fill="#1c1c1c" fill-opacity="1" fill-rule="nonzero" d=" M42.64 4.74 C38.51,10.89 31.9,13.81 25.37,13.6 C19.01,13.4 12.74,10.22 8.92,4.15 C6.47,0.25 0.25,3.85 2.72,7.78 C7.66,15.63 16.23,20.9 25.62,21.01 C35.03,21.13 43.66,16.09 48.84,8.37 C51.42,4.52 45.2,0.92 42.64,4.74z "/></g></g></g><g id="_R_G_L_7_G_N_4_T_0_M"><g id="_R_G_L_7_G_N_4_T_0" transform=" translate(95, 100) translate(0, 0)"><g id="_R_G_L_7_G" transform=" translate(4.461, 47.665) translate(-25.336, -19.69)"><path id="_R_G_L_7_G_D_0_P_0" fill="#1c1c1c" fill-opacity="1" fill-rule="nonzero" d=" M35.51 7.99 C34,5.9 32.9,2.56 26.37,2.35 C20.01,2.15 15.6,7.03 14.92,9.53 C14.25,12.03 13.07,18.04 14.72,20.78 C16.38,23.53 16.23,27.4 25.62,27.51 C35.03,27.63 36.43,22.47 37.46,19.5 C38.5,16.52 37.02,10.09 35.51,7.99z "/></g></g></g><g id="_R_G_L_6_G_N_4_T_0_M"><g id="_R_G_L_6_G_N_4_T_0" transform=" translate(95, 100) translate(0, 0)"><g id="_R_G_L_6_G" transform=" translate(-35.539, 5.595)"><path id="_R_G_L_6_G_D_0_P_0" fill="#1c1c1c" fill-opacity="1" fill-rule="nonzero" d=" M24.49 7.71 C27.37,15.14 22.19,23.07 14.24,23.43 C9.42,23.64 4.87,20.67 3.13,16.18 C0.25,8.75 5.43,0.82 13.38,0.46 C18.2,0.25 22.75,3.22 24.49,7.71z "/><path id="_R_G_L_6_G_D_1_P_0" fill="#ffffff" fill-opacity="1" fill-rule="nonzero" d=" M21.04 9.25 C21.02,9.13 20.99,9 20.96,8.88 C20.64,7.32 19.11,6.24 17.57,6.61 C15.88,7.02 14.91,8.55 15.26,10.22 C15.29,10.35 15.32,10.47 15.34,10.6 C15.67,12.15 17.19,13.24 18.73,12.87 C20.43,12.46 21.39,10.93 21.04,9.25z "/></g></g></g><g id="_R_G_L_5_G_N_4_T_0_M"><g id="_R_G_L_5_G_N_4_T_0" transform=" translate(95, 100) translate(0, 0)"><g id="_R_G_L_5_G" transform=" translate(46.711, 5.595)"><path id="_R_G_L_5_G_D_0_P_0" fill="#1c1c1c" fill-opacity="1" fill-rule="nonzero" d=" M24.49 7.71 C27.37,15.14 22.19,23.07 14.24,23.43 C9.42,23.64 4.87,20.67 3.13,16.18 C0.25,8.75 5.43,0.82 13.38,0.46 C18.2,0.25 22.75,3.22 24.49,7.71z "/><path id="_R_G_L_5_G_D_1_P_0" fill="#ffffff" fill-opacity="1" fill-rule="nonzero" d=" M21.04 9.25 C21.02,9.13 20.99,9 20.96,8.88 C20.64,7.32 19.11,6.24 17.57,6.61 C15.88,7.02 14.91,8.55 15.26,10.22 C15.29,10.35 15.32,10.47 15.34,10.6 C15.67,12.15 17.19,13.24 18.73,12.87 C20.43,12.46 21.39,10.93 21.04,9.25z "/></g></g></g><g id="_R_G_L_4_G_N_4_T_0_M"><g id="_R_G_L_4_G_N_4_T_0" transform=" translate(95, 100) translate(0, 0)"><g id="_R_G_L_4_G" transform=" translate(-35.539, 5.595)"><path id="_R_G_L_4_G_D_0_P_0" fill="#1c1c1c" fill-opacity="1" fill-rule="nonzero" d=" M24.49 7.71 C27.37,15.14 22.19,23.07 14.24,23.43 C9.42,23.64 4.87,20.67 3.13,16.18 C0.25,8.75 5.43,0.82 13.38,0.46 C18.2,0.25 22.75,3.22 24.49,7.71z "/><path id="_R_G_L_4_G_D_1_P_0" fill="#ffffff" fill-opacity="1" fill-rule="nonzero" d=" M21.04 9.25 C21.02,9.13 20.99,9 20.96,8.88 C20.64,7.32 19.11,6.24 17.57,6.61 C15.88,7.02 14.91,8.55 15.26,10.22 C15.29,10.35 15.32,10.47 15.34,10.6 C15.67,12.15 17.19,13.24 18.73,12.87 C20.43,12.46 21.39,10.93 21.04,9.25z "/></g></g></g><g id="_R_G_L_3_G_N_4_T_0_M"><g id="_R_G_L_3_G_N_4_T_0" transform=" translate(95, 100) translate(0, 0)"><g id="_R_G_L_3_G" transform=" translate(46.711, 5.595)"><path id="_R_G_L_3_G_D_0_P_0" fill="#1c1c1c" fill-opacity="1" fill-rule="nonzero" d=" M24.49 7.71 C27.37,15.14 22.19,23.07 14.24,23.43 C9.42,23.64 4.87,20.67 3.13,16.18 C0.25,8.75 5.43,0.82 13.38,0.46 C18.2,0.25 22.75,3.22 24.49,7.71z "/><path id="_R_G_L_3_G_D_1_P_0" fill="#ffffff" fill-opacity="1" fill-rule="nonzero" d=" M21.04 9.25 C21.02,9.13 20.99,9 20.96,8.88 C20.64,7.32 19.11,6.24 17.57,6.61 C15.88,7.02 14.91,8.55 15.26,10.22 C15.29,10.35 15.32,10.47 15.34,10.6 C15.67,12.15 17.19,13.24 18.73,12.87 C20.43,12.46 21.39,10.93 21.04,9.25z "/></g></g></g><g id="_R_G_L_2_G_M"><g id="_R_G_L_2_G"><path id="_R_G_L_2_G_D_0_P_0" fill="#1c1c1c" fill-opacity="1" fill-rule="nonzero" d=" M26.12 13.36 C26.12,20.61 20.33,26.48 13.18,26.48 C6.04,26.48 0.25,20.61 0.25,13.36 C0.25,6.12 6.04,0.25 13.18,0.25 C20.33,0.25 26.12,6.12 26.12,13.36z "/></g></g><g id="_R_G_L_1_G_M"><g id="_R_G_L_1_G" transform=" translate(59.53, 104.753)"><path id="_R_G_L_1_G_D_0_P_0" fill="#1c1c1c" fill-opacity="1" fill-rule="nonzero" d=" M21.48 21.25 C15.97,20.27 12.13,25.88 14.25,30.96 C16.71,36.89 25.34,36.29 29.19,32.26 C33.14,28.11 32.68,21.49 29.08,17.3 C24.85,12.37 17.54,11.65 11.99,14.69 C0.25,21.12 2.83,38.04 14,43.44 C27.27,49.85 42.9,38.5 42.48,24.18 C42.26,16.32 37.8,8.72 30.98,4.78 C23.14,0.25 13.46,0.73 5.59,4.85 C2.52,6.46 5.24,11.12 8.32,9.51 C19.17,3.81 33.63,8.17 36.64,20.84 C39.25,31.82 28.5,43.47 17.23,38.99 C8.45,35.49 6.1,21.13 16.96,18.47 C21.45,17.38 27.14,20.37 26.61,25.58 C26.37,27.88 24.58,29.88 22.18,30 C20.91,30.07 19.33,29.74 19.08,28.33 C18.99,27.78 19.21,26.3 20.05,26.45 C23.44,27.05 24.89,21.86 21.48,21.25z "/></g></g><g id="_R_G_L_0_G_M"><g id="_R_G_L_0_G" transform=" translate(141.387, 104.004)"><path id="_R_G_L_0_G_D_0_P_0" fill="#1c1c1c" fill-opacity="1" fill-rule="nonzero" d=" M26.36 24.04 C24.52,19.07 18.29,18.34 14.75,22.2 C10.46,26.86 14.64,34.43 19.95,36.06 C25.98,37.9 32.15,33.9 33.82,28 C35.73,21.22 31.65,14.34 25.4,11.66 C12.26,6.01 0.25,20.32 4.2,32.85 C8.42,46.25 25.63,50.71 36.41,42.28 C50.31,31.38 46.62,10.86 32.51,2.09 C29.56,0.25 26.85,4.91 29.79,6.74 C39.52,12.79 43.56,26.05 35.82,35.4 C29.35,43.21 16.47,43.4 10.8,34.45 C5.43,25.98 12.81,11.7 23.63,16.73 C28.51,19 31.32,26.42 26.2,30.1 C23.99,31.69 20.75,31.49 19.17,29.1 C18.47,28.03 17.95,26.5 19.04,25.58 C19.47,25.21 20.86,24.66 21.16,25.47 C22.35,28.7 27.56,27.3 26.36,24.04z "/></g></g></g><g id="time_group"/></svg>