<svg width="20" height="20" viewBox="0 0 20 20" fill="none" xmlns="http://www.w3.org/2000/svg">
<path d="M10 13.6523C10.6302 13.6523 11.2318 13.4948 11.8047 13.1797C12.349 13.8099 12.6641 14.168 12.75 14.2539C11.9193 14.7695 11.0026 15.0273 10 15.0273C9.02604 15.0273 8.1237 14.7695 7.29297 14.2539C7.63672 13.7956 7.9375 13.4375 8.19531 13.1797C8.73958 13.4948 9.34115 13.6523 10 13.6523ZM4.80078 15.1992C6.26172 16.6315 7.99479 17.3477 10 17.3477C12.0052 17.3477 13.724 16.6315 15.1562 15.1992C16.6172 13.7383 17.3477 12.0052 17.3477 10C17.3477 7.99479 16.6172 6.27604 15.1562 4.84375C13.724 3.38281 12.0052 2.65234 10 2.65234C7.99479 2.65234 6.26172 3.38281 4.80078 4.84375C3.36849 6.27604 2.65234 7.99479 2.65234 10C2.65234 12.0052 3.36849 13.7383 4.80078 15.1992ZM3.51172 3.55469C5.31641 1.75 7.47917 0.847656 10 0.847656C12.5208 0.847656 14.6693 1.75 16.4453 3.55469C18.25 5.33073 19.1523 7.47917 19.1523 10C19.1523 12.5208 18.25 14.6836 16.4453 16.4883C14.6693 18.2643 12.5208 19.1523 10 19.1523C7.47917 19.1523 5.31641 18.2643 3.51172 16.4883C1.73568 14.6836 0.847656 12.5208 0.847656 10C0.847656 7.47917 1.73568 5.33073 3.51172 3.55469ZM5.78906 8.71094C5.53125 8.42448 5.40234 8.09505 5.40234 7.72266C5.40234 7.35026 5.53125 7.03516 5.78906 6.77734C6.07552 6.49089 6.40495 6.34766 6.77734 6.34766C7.14974 6.34766 7.46484 6.49089 7.72266 6.77734C8.00911 7.03516 8.15234 7.35026 8.15234 7.72266C8.15234 8.09505 8.00911 8.42448 7.72266 8.71094C7.46484 8.96875 7.14974 9.09766 6.77734 9.09766C6.40495 9.09766 6.07552 8.96875 5.78906 8.71094ZM12.2344 8.71094C11.9766 8.42448 11.8477 8.09505 11.8477 7.72266C11.8477 7.35026 11.9766 7.03516 12.2344 6.77734C12.5208 6.49089 12.8503 6.34766 13.2227 6.34766C13.5951 6.34766 13.9102 6.49089 14.168 6.77734C14.4544 7.03516 14.5977 7.35026 14.5977 7.72266C14.5977 8.09505 14.4544 8.42448 14.168 8.71094C13.9102 8.96875 13.5951 9.09766 13.2227 9.09766C12.8503 9.09766 12.5208 8.96875 12.2344 8.71094Z" fill="#C9C9C9"/>
</svg>
