<svg width="116" height="101" viewBox="0 0 116 101" fill="none" xmlns="http://www.w3.org/2000/svg">
<g filter="url(#filter0_d_19_3850)">
<rect x="36" y="18" width="48" height="48" rx="6" fill="white"/>
<path d="M62 32.2695V36.4C62 36.9601 62 37.2401 62.109 37.454C62.2049 37.6422 62.3578 37.7951 62.546 37.891C62.7599 38 63.0399 38 63.6 38H67.7305M68 39.9882V47.2C68 48.8802 68 49.7202 67.673 50.362C67.3854 50.9265 66.9265 51.3854 66.362 51.673C65.7202 52 64.8802 52 63.2 52H56.8C55.1198 52 54.2798 52 53.638 51.673C53.0735 51.3854 52.6146 50.9265 52.327 50.362C52 49.7202 52 48.8802 52 47.2V36.8C52 35.1199 52 34.2798 52.327 33.638C52.6146 33.0735 53.0735 32.6146 53.638 32.327C54.2798 32 55.1198 32 56.8 32H60.0118C60.7455 32 61.1124 32 61.4577 32.0829C61.7638 32.1564 62.0564 32.2776 62.3249 32.4421C62.6276 32.6276 62.887 32.887 63.4059 33.4059L66.5941 36.5941C67.113 37.113 67.3724 37.3724 67.5579 37.6752C67.7224 37.9436 67.8436 38.2362 67.9171 38.5423C68 38.8876 68 39.2545 68 39.9882Z" stroke="#00FFB6" stroke-width="2" stroke-linecap="round" stroke-linejoin="round"/>
<g filter="url(#filter1_d_19_3850)">
<path fill-rule="evenodd" clip-rule="evenodd" d="M78.6727 50.8478C79.16 50.6624 80.1213 50.7759 80.3751 51.3404C80.5913 51.8215 80.777 52.6327 80.7872 52.4598C80.8116 52.0756 80.7628 51.2446 80.9263 50.8103C81.045 50.4937 81.2785 50.1959 81.6226 50.0907C81.9119 50.0012 82.252 49.9699 82.5525 50.0335C82.8702 50.1001 83.2042 50.3323 83.329 50.5531C83.6965 51.2019 83.7026 52.5306 83.7198 52.4598C83.7848 52.1766 83.7909 51.18 84.0071 50.8103C84.1502 50.5656 84.5116 50.3469 84.7045 50.3115C85.0029 50.2574 85.3704 50.2407 85.683 50.3032C85.9358 50.3542 86.2779 50.6614 86.3703 50.8103C86.5926 51.1685 86.7174 52.1807 86.755 52.5369C86.7712 52.6837 86.8301 52.1276 87.0524 51.7704C87.4646 51.105 88.9243 50.9759 88.9791 52.4359C89.0055 53.1169 88.9994 53.0857 88.9994 53.5439C88.9994 54.0812 88.9872 54.4061 88.9588 54.7956C88.9283 55.2111 88.841 56.1535 88.7142 56.6096C88.6269 56.9231 88.3375 57.6281 88.0513 58.0509C88.0513 58.0509 86.9611 59.3526 86.8423 59.9378C86.7235 60.5241 86.7631 60.5283 86.7388 60.9427C86.7154 61.3582 86.8616 61.9039 86.8616 61.9039C86.8616 61.9039 86.0485 62.0122 85.6089 61.9393C85.212 61.8747 84.7207 61.0646 84.5938 60.8167C84.4192 60.4751 84.0467 60.5408 83.9015 60.7928C83.6742 61.1916 83.1818 61.907 82.8357 61.9518C82.1566 62.0393 80.7496 61.983 79.6482 61.9726C79.6482 61.9726 79.836 60.9198 79.4178 60.5585C79.1082 60.2877 78.5753 59.742 78.2565 59.4546L77.412 58.4955C77.1247 58.1206 76.3948 57.5281 76.1502 56.4284C75.934 55.4537 75.9553 54.9757 76.1878 54.5852C76.4233 54.1885 76.8679 53.9719 77.0547 53.9344C77.2658 53.8906 77.7571 53.8938 77.9429 53.9989C78.1692 54.127 78.2606 54.1645 78.4382 54.4061C78.6717 54.7258 78.755 54.881 78.6545 54.5321C78.5773 54.2593 78.3276 53.9125 78.2139 53.522C78.1033 53.1461 77.8068 52.54 77.8282 51.9329C77.8363 51.7028 77.9327 51.13 78.6727 50.8478Z" fill="white"/>
<path fill-rule="evenodd" clip-rule="evenodd" d="M78.6727 50.8478C79.16 50.6624 80.1213 50.7759 80.3751 51.3404C80.5913 51.8215 80.777 52.6327 80.7872 52.4598C80.8116 52.0756 80.7628 51.2446 80.9263 50.8103C81.045 50.4937 81.2785 50.1959 81.6226 50.0907C81.9119 50.0012 82.252 49.9699 82.5525 50.0335C82.8702 50.1001 83.2042 50.3323 83.329 50.5531C83.6965 51.2019 83.7026 52.5306 83.7198 52.4598C83.7848 52.1766 83.7909 51.18 84.0071 50.8103C84.1502 50.5656 84.5116 50.3469 84.7045 50.3115C85.0029 50.2574 85.3704 50.2407 85.683 50.3032C85.9358 50.3542 86.2779 50.6614 86.3703 50.8103C86.5926 51.1685 86.7174 52.1807 86.755 52.5369C86.7712 52.6837 86.8301 52.1276 87.0524 51.7704C87.4646 51.105 88.9243 50.9759 88.9791 52.4359C89.0055 53.1169 88.9994 53.0857 88.9994 53.5439C88.9994 54.0812 88.9872 54.4061 88.9588 54.7956C88.9283 55.2111 88.841 56.1535 88.7142 56.6096C88.6269 56.9231 88.3375 57.6281 88.0513 58.0509C88.0513 58.0509 86.9611 59.3526 86.8423 59.9378C86.7235 60.5241 86.7631 60.5283 86.7388 60.9427C86.7154 61.3582 86.8616 61.9039 86.8616 61.9039C86.8616 61.9039 86.0485 62.0122 85.6089 61.9393C85.212 61.8747 84.7207 61.0646 84.5938 60.8167C84.4192 60.4751 84.0467 60.5408 83.9015 60.7928C83.6742 61.1916 83.1818 61.907 82.8357 61.9518C82.1566 62.0393 80.7496 61.983 79.6482 61.9726C79.6482 61.9726 79.836 60.9198 79.4178 60.5585C79.1082 60.2877 78.5753 59.742 78.2565 59.4546L77.412 58.4955C77.1247 58.1206 76.3948 57.5281 76.1502 56.4284C75.934 55.4537 75.9553 54.9757 76.1878 54.5852C76.4233 54.1885 76.8679 53.9719 77.0547 53.9344C77.2658 53.8906 77.7571 53.8938 77.9429 53.9989C78.1692 54.127 78.2606 54.1645 78.4382 54.4061C78.6717 54.7258 78.755 54.881 78.6545 54.5321C78.5773 54.2593 78.3276 53.9125 78.2139 53.522C78.1033 53.1461 77.8068 52.54 77.8282 51.9329C77.8363 51.7028 77.9327 51.13 78.6727 50.8478Z" stroke="#333333" stroke-width="0.75" stroke-linecap="round" stroke-linejoin="round"/>
</g>
<path fill-rule="evenodd" clip-rule="evenodd" d="M82 55.5C82 55.2239 81.7761 55 81.5 55C81.2239 55 81 55.2239 81 55.5V58.5C81 58.7761 81.2239 59 81.5 59C81.7761 59 82 58.7761 82 58.5V55.5ZM83.5 55C83.7761 55 84 55.2239 84 55.5V58.5C84 58.7761 83.7761 59 83.5 59C83.2239 59 83 58.7761 83 58.5V55.5C83 55.2239 83.2239 55 83.5 55ZM85.5 55C85.7761 55 86 55.2239 86 55.5V58.5C86 58.7761 85.7761 59 85.5 59C85.2239 59 85 58.7761 85 58.5V55.5C85 55.2239 85.2239 55 85.5 55Z" fill="#101828"/>
</g>
<defs>
<filter id="filter0_d_19_3850" x="0" y="7.62939e-06" width="128" height="120" filterUnits="userSpaceOnUse" color-interpolation-filters="sRGB">
<feFlood flood-opacity="0" result="BackgroundImageFix"/>
<feColorMatrix in="SourceAlpha" type="matrix" values="0 0 0 0 0 0 0 0 0 0 0 0 0 0 0 0 0 0 127 0" result="hardAlpha"/>
<feMorphology radius="12" operator="erode" in="SourceAlpha" result="effect1_dropShadow_19_3850"/>
<feOffset dy="18"/>
<feGaussianBlur stdDeviation="24"/>
<feColorMatrix type="matrix" values="0 0 0 0 0.0625882 0 0 0 0 0.0926346 0 0 0 0 0.15702 0 0 0 0.18 0"/>
<feBlend mode="normal" in2="BackgroundImageFix" result="effect1_dropShadow_19_3850"/>
<feBlend mode="normal" in="SourceGraphic" in2="effect1_dropShadow_19_3850" result="shape"/>
</filter>
<filter id="filter1_d_19_3850" x="73.625" y="48.625" width="17.75" height="16.75" filterUnits="userSpaceOnUse" color-interpolation-filters="sRGB">
<feFlood flood-opacity="0" result="BackgroundImageFix"/>
<feColorMatrix in="SourceAlpha" type="matrix" values="0 0 0 0 0 0 0 0 0 0 0 0 0 0 0 0 0 0 127 0" result="hardAlpha"/>
<feOffset dy="1"/>
<feGaussianBlur stdDeviation="1"/>
<feColorMatrix type="matrix" values="0 0 0 0 0.027451 0 0 0 0 0.12549 0 0 0 0 0.239216 0 0 0 0.24 0"/>
<feBlend mode="normal" in2="BackgroundImageFix" result="effect1_dropShadow_19_3850"/>
<feBlend mode="normal" in="SourceGraphic" in2="effect1_dropShadow_19_3850" result="shape"/>
</filter>
</defs>
</svg>
