<svg width="1440" height="692" viewBox="0 0 1440 692" fill="none" xmlns="http://www.w3.org/2000/svg">
<g opacity="0.15">
<path d="M-137.095 662.095C68.7501 549.444 356.933 279.865 -137.095 102.759" stroke="#00FFB6"/>
<path d="M1552.18 102.759C1346.33 215.41 1058.15 484.989 1552.18 662.095" stroke="#00FFB6"/>
<path d="M-116.239 655.19C82.271 537.767 353.056 261.593 -151.887 96.2747" stroke="#00FFB6"/>
<path d="M-95.384 648.284C95.4933 526.267 348.473 243.912 -166.627 90.6305" stroke="#00FFB6"/>
<path d="M-74.5288 641.379C108.428 514.95 343.223 226.84 -181.259 85.8252" stroke="#00FFB6"/>
<path d="M-53.6736 634.473C121.088 503.824 337.344 210.391 -195.73 81.8554" stroke="#00FFB6"/>
<path d="M-32.8184 627.568C133.485 492.894 330.877 194.58 -209.988 78.717" stroke="#00FFB6"/>
<path d="M-11.9631 620.663C145.633 482.167 323.863 179.42 -223.98 76.404" stroke="#00FFB6"/>
<path d="M8.89215 613.757C157.542 471.647 316.344 164.924 -237.652 74.9096" stroke="#00FFB6"/>
<path d="M29.7474 606.852C169.229 461.342 308.363 151.103 -250.954 74.2258" stroke="#00FFB6"/>
<path d="M50.6026 599.947C180.705 451.256 299.962 137.968 -263.833 74.3429" stroke="#00FFB6"/>
<path d="M71.4578 593.041C191.986 441.393 291.187 125.527 -276.24 75.2507" stroke="#00FFB6"/>
<path d="M92.3131 586.136C203.086 431.758 282.08 113.79 -288.123 76.9374" stroke="#00FFB6"/>
<path d="M113.168 579.23C214.019 422.356 272.689 102.763 -299.435 79.3898" stroke="#00FFB6"/>
<path d="M134.024 572.325C224.8 413.189 263.058 92.4522 -310.126 82.594" stroke="#00FFB6"/>
<path d="M154.879 565.42C235.445 404.262 253.232 82.8636 -320.148 86.5349" stroke="#00FFB6"/>
<path d="M175.734 558.514C245.969 395.577 243.259 74.001 -329.457 91.1962" stroke="#00FFB6"/>
<path d="M196.589 551.609C256.386 387.137 233.184 65.867 -338.005 96.5603" stroke="#00FFB6"/>
<path d="M217.445 544.704C266.714 378.945 223.054 58.4635 -345.749 102.609" stroke="#00FFB6"/>
<path d="M238.3 537.798C276.968 371.002 212.915 51.7916 -352.647 109.322" stroke="#00FFB6"/>
<path d="M259.155 530.893C287.164 363.31 202.815 45.8504 -358.655 116.68" stroke="#00FFB6"/>
<path d="M280.01 523.987C297.318 355.87 192.799 40.6391 -363.734 124.661" stroke="#00FFB6"/>
<path d="M300.866 517.082C307.445 348.682 182.915 36.1547 -367.845 133.243" stroke="#00FFB6"/>
<path d="M321.721 510.177C317.563 341.748 173.208 32.3934 -370.95 142.401" stroke="#00FFB6"/>
<path d="M342.576 503.271C327.687 335.068 163.724 29.3511 -373.013 152.114" stroke="#00FFB6"/>
<path d="M363.431 496.366C337.833 328.64 154.51 27.0214 -374 162.354" stroke="#00FFB6"/>
<path d="M384.287 489.461C348.018 322.465 145.61 25.3976 -373.878 173.096" stroke="#00FFB6"/>
<path d="M405.142 482.555C358.257 316.541 137.068 24.4719 -372.615 184.315" stroke="#00FFB6"/>
<path d="M425.997 475.65C368.567 310.866 128.93 24.2351 -370.183 195.982" stroke="#00FFB6"/>
<path d="M446.852 468.744C378.964 305.439 121.239 24.6774 -366.553 208.07" stroke="#00FFB6"/>
<path d="M467.707 461.839C389.462 300.258 114.037 25.7876 -361.7 220.549" stroke="#00FFB6"/>
<path d="M488.563 454.934C400.078 295.32 107.367 27.5536 -355.599 233.392" stroke="#00FFB6"/>
<path d="M509.418 448.028C410.827 290.623 101.271 29.9625 -348.228 246.568" stroke="#00FFB6"/>
<path d="M530.273 441.123C421.725 286.161 95.7886 33 -339.567 260.047" stroke="#00FFB6"/>
<path d="M551.128 434.218C432.786 281.933 90.9601 36.6516 -329.598 273.798" stroke="#00FFB6"/>
<path d="M571.984 427.312C444.024 277.934 86.8232 40.9011 -318.305 287.791" stroke="#00FFB6"/>
<path d="M592.839 420.407C455.455 274.16 83.416 45.7317 -305.672 301.993" stroke="#00FFB6"/>
<path d="M613.694 413.501C467.093 270.606 80.7753 51.126 -291.688 316.374" stroke="#00FFB6"/>
<path d="M634.549 406.596C478.951 267.266 78.936 57.0651 -276.342 330.9" stroke="#00FFB6"/>
<path d="M655.404 399.691C491.044 264.136 77.9325 63.5302 -259.626 345.541" stroke="#00FFB6"/>
<path d="M676.26 392.785C503.383 261.21 77.7975 70.5009 -241.534 360.263" stroke="#00FFB6"/>
<path d="M697.115 385.88C515.983 258.482 78.5628 77.9562 -222.061 375.034" stroke="#00FFB6"/>
<path d="M717.97 378.975C528.855 255.946 80.2584 85.8748 -201.206 389.821" stroke="#00FFB6"/>
<path d="M738.825 372.069C542.011 253.594 82.9129 94.234 -178.968 404.592" stroke="#00FFB6"/>
<path d="M759.681 365.164C555.464 251.421 86.5544 103.011 -155.35 419.314" stroke="#00FFB6"/>
<path d="M780.536 358.258C569.224 249.419 91.2081 112.183 -130.356 433.954" stroke="#00FFB6"/>
<path d="M801.391 351.353C583.301 247.58 96.8984 121.725 -103.991 448.481" stroke="#00FFB6"/>
<path d="M822.246 344.448C597.707 245.898 103.649 131.612 -76.2647 462.861" stroke="#00FFB6"/>
<path d="M843.102 337.542C612.45 244.364 111.48 141.819 -47.1867 477.063" stroke="#00FFB6"/>
<path d="M863.957 330.637C627.54 242.97 120.411 152.32 -16.7701 491.056" stroke="#00FFB6"/>
<path d="M884.812 323.731C642.986 241.708 130.461 163.09 14.9716 504.807" stroke="#00FFB6"/>
<path d="M905.667 316.826C658.795 240.569 141.645 174.102 48.0213 518.286" stroke="#00FFB6"/>
<path d="M926.522 309.921C674.976 239.545 153.979 185.328 82.3613 531.462" stroke="#00FFB6"/>
<path d="M947.378 303.015C691.535 238.627 167.474 196.741 117.971 544.305" stroke="#00FFB6"/>
<path d="M968.233 296.11C708.479 237.806 182.143 208.314 154.828 556.785" stroke="#00FFB6"/>
<path d="M989.088 289.205C725.814 237.072 197.994 220.02 192.908 568.873" stroke="#00FFB6"/>
<path d="M1009.94 282.299C743.545 236.417 215.035 231.829 232.186 580.539" stroke="#00FFB6"/>
<path d="M1030.8 275.394C761.676 235.83 233.271 243.715 272.634 591.758" stroke="#00FFB6"/>
<path d="M1051.65 268.488C780.212 235.304 252.707 255.647 314.223 602.5" stroke="#00FFB6"/>
<path d="M1072.51 261.583C799.157 234.827 273.345 267.6 356.92 612.741" stroke="#00FFB6"/>
<path d="M1093.36 254.678C818.512 234.39 295.185 279.543 400.694 622.453" stroke="#00FFB6"/>
<path d="M1114.22 247.772C838.281 233.984 318.225 291.449 445.509 631.612" stroke="#00FFB6"/>
<path d="M1135.07 240.867C858.465 233.599 342.463 303.289 491.331 640.193" stroke="#00FFB6"/>
<path d="M1155.93 233.962C879.065 233.225 367.892 315.035 538.12 648.174" stroke="#00FFB6"/>
<path d="M1176.79 227.056C900.082 232.851 394.507 326.66 585.839 655.532" stroke="#00FFB6"/>
<path d="M1197.64 220.151C921.514 232.469 422.299 338.134 634.447 662.246" stroke="#00FFB6"/>
<path d="M1218.5 213.245C943.362 232.069 451.257 349.431 683.902 668.294" stroke="#00FFB6"/>
<path d="M1239.35 206.34C965.624 231.64 481.368 360.524 734.16 673.658" stroke="#00FFB6"/>
<path d="M1260.21 199.435C988.298 231.173 512.62 371.384 785.179 678.319" stroke="#00FFB6"/>
<path d="M1281.06 192.529C1011.38 230.658 544.996 381.985 836.912 682.26" stroke="#00FFB6"/>
<path d="M1301.92 185.624C1034.87 230.087 578.48 392.302 889.314 685.465" stroke="#00FFB6"/>
<path d="M1322.77 178.718C1058.76 229.448 613.051 402.308 942.336 687.917" stroke="#00FFB6"/>
<path d="M1343.63 171.813C1083.05 228.732 648.69 411.978 995.93 689.604" stroke="#00FFB6"/>
<path d="M1364.48 164.908C1107.72 227.932 685.375 421.286 1050.05 690.511" stroke="#00FFB6"/>
<path d="M1385.34 158.002C1132.79 227.036 723.08 430.209 1104.64 690.629" stroke="#00FFB6"/>
<path d="M1406.19 151.097C1158.23 226.037 761.782 438.722 1159.65 689.945" stroke="#00FFB6"/>
<path d="M1427.05 144.191C1184.05 224.924 801.453 446.802 1215.03 688.45" stroke="#00FFB6"/>
<path d="M1447.9 137.286C1210.24 223.691 842.065 454.428 1270.73 686.137" stroke="#00FFB6"/>
<path d="M1468.76 130.381C1236.78 222.328 883.588 461.577 1326.7 682.999" stroke="#00FFB6"/>
<path d="M1489.61 123.475C1263.67 220.826 925.992 468.227 1382.88 679.029" stroke="#00FFB6"/>
<path d="M1510.47 116.57C1290.9 219.178 969.243 474.359 1439.23 674.224" stroke="#00FFB6"/>
<path d="M1531.32 109.665C1318.45 217.375 1013.31 479.952 1495.68 668.58" stroke="#00FFB6"/>
</g>
</svg>
