<svg width="930" height="701" viewBox="0 0 930 701" fill="none" xmlns="http://www.w3.org/2000/svg">
<mask id="mask0_155_69" style="mask-type:luminance" maskUnits="userSpaceOnUse" x="0" y="0" width="930" height="696">
<path d="M929.357 0.437683H0V695.909H929.357V0.437683Z" fill="white"/>
</mask>
<g mask="url(#mask0_155_69)">
<path d="M445.046 230.026H657.098C667.137 230.039 676.761 234.156 683.859 241.474C690.958 248.791 694.952 258.712 694.964 269.06V793.913C694.952 804.262 690.958 814.183 683.859 821.5C676.761 828.817 667.137 832.934 657.098 832.947H445.046C435.008 832.934 425.383 828.817 418.285 821.5C411.186 814.183 407.193 804.262 407.18 793.913V269.06C407.17 263.931 408.142 258.851 410.041 254.11C411.941 249.369 414.73 245.062 418.248 241.435C421.766 237.809 425.945 234.934 430.543 232.976C435.142 231.018 440.071 230.016 445.046 230.026Z" fill="#00261A"/>
<path d="M654.38 245.65H621.368V249.753C621.363 254.901 619.377 259.837 615.845 263.477C612.314 267.117 607.526 269.165 602.532 269.17H497.477C492.483 269.165 487.695 267.117 484.163 263.477C480.632 259.837 478.646 254.901 478.641 249.753V245.65H447.794C444.797 245.646 441.828 246.251 439.058 247.432C436.288 248.613 433.771 250.345 431.652 252.53C429.532 254.714 427.852 257.309 426.706 260.164C425.561 263.02 424.973 266.08 424.977 269.17V793.623C424.973 796.713 425.561 799.773 426.706 802.629C427.852 805.484 429.532 808.078 431.652 810.263C433.771 812.448 436.288 814.18 439.058 815.361C441.828 816.542 444.797 817.147 447.794 817.143H654.312C657.309 817.147 660.278 816.542 663.048 815.361C665.818 814.18 668.335 812.448 670.454 810.263C672.574 808.078 674.254 805.484 675.4 802.629C676.545 799.773 677.132 796.713 677.129 793.623V269.27C677.153 266.178 676.583 263.112 675.453 260.247C674.322 257.383 672.652 254.778 670.54 252.583C668.428 250.387 665.915 248.644 663.147 247.454C660.378 246.264 657.408 245.651 654.409 245.65H654.38Z" fill="white"/>
<path d="M551.024 470.064C590.324 470.064 622.184 437.222 622.184 396.71C622.184 356.198 590.324 323.357 551.024 323.357C511.723 323.357 479.864 356.198 479.864 396.71C479.864 437.222 511.723 470.064 551.024 470.064Z" fill="#00FFB6"/>
<path d="M606.678 494.645H480.126C462.833 494.645 448.814 509.096 448.814 526.923C448.814 544.749 462.833 559.2 480.126 559.2H606.678C623.971 559.2 637.99 544.749 637.99 526.923C637.99 509.096 623.971 494.645 606.678 494.645Z" fill="#E0E0E0"/>
<path d="M527.09 248.042H559.714C560.718 248.042 561.681 248.453 562.391 249.185C563.101 249.917 563.5 250.91 563.5 251.945V252.646C563.5 253.681 563.101 254.674 562.391 255.406C561.681 256.138 560.718 256.549 559.714 256.549H527.09C526.086 256.549 525.123 256.138 524.413 255.406C523.703 254.674 523.304 253.681 523.304 252.646V251.845C523.306 251.338 523.406 250.836 523.599 250.369C523.791 249.903 524.072 249.48 524.424 249.126C524.777 248.772 525.194 248.494 525.652 248.308C526.109 248.121 526.598 248.031 527.09 248.042Z" fill="#E6E8EC"/>
<path d="M574.181 257.059C576.754 257.059 578.841 254.909 578.841 252.255C578.841 249.602 576.754 247.451 574.181 247.451C571.607 247.451 569.52 249.602 569.52 252.255C569.52 254.909 571.607 257.059 574.181 257.059Z" fill="#E6E8EC"/>
<path d="M606.678 574.494H480.126C462.833 574.494 448.814 588.945 448.814 606.772C448.814 624.598 462.833 639.049 480.126 639.049H606.678C623.971 639.049 637.99 624.598 637.99 606.772C637.99 588.945 623.971 574.494 606.678 574.494Z" fill="#E0E0E0"/>
<path d="M254.579 131.281H466.63C476.669 131.294 486.293 135.411 493.392 142.728C500.49 150.045 504.484 159.966 504.497 170.315V695.168C504.484 705.516 500.49 715.437 493.392 722.754C486.293 730.072 476.669 734.189 466.63 734.202H254.579C244.54 734.189 234.916 730.072 227.817 722.754C220.719 715.437 216.725 705.516 216.712 695.168V170.315C216.702 165.186 217.674 160.105 219.574 155.364C221.473 150.624 224.262 146.317 227.78 142.69C231.298 139.063 235.477 136.188 240.076 134.23C244.674 132.273 249.603 131.27 254.579 131.281Z" fill="#00261A"/>
<path d="M463.941 146.894H430.929V150.998C430.924 156.146 428.938 161.081 425.406 164.722C421.875 168.362 417.087 170.409 412.093 170.415H307.009C302.015 170.409 297.227 168.362 293.695 164.722C290.164 161.081 288.178 156.146 288.173 150.998V146.894H257.297C254.3 146.89 251.331 147.496 248.561 148.676C245.791 149.857 243.274 151.59 241.155 153.774C239.035 155.959 237.355 158.554 236.209 161.409C235.064 164.265 234.476 167.325 234.48 170.415V694.868C234.476 697.958 235.064 701.018 236.209 703.873C237.355 706.729 239.035 709.323 241.155 711.508C243.274 713.693 245.791 715.425 248.561 716.606C251.331 717.786 254.3 718.392 257.297 718.388H463.815C466.812 718.392 469.781 717.786 472.551 716.606C475.321 715.425 477.838 713.693 479.957 711.508C482.077 709.323 483.757 706.729 484.903 703.873C486.048 701.018 486.635 697.958 486.632 694.868V170.515C486.656 167.423 486.086 164.356 484.956 161.492C483.825 158.628 482.155 156.023 480.043 153.827C477.931 151.632 475.418 149.889 472.65 148.699C469.881 147.509 466.911 146.895 463.912 146.894H463.941Z" fill="white"/>
<path d="M336.652 149.296H369.275C369.772 149.296 370.265 149.397 370.724 149.594C371.183 149.79 371.601 150.077 371.953 150.44C372.304 150.802 372.583 151.232 372.773 151.706C372.964 152.18 373.062 152.687 373.062 153.2V153.9C373.062 154.413 372.964 154.92 372.773 155.394C372.583 155.868 372.304 156.298 371.953 156.661C371.601 157.023 371.183 157.311 370.724 157.507C370.265 157.703 369.772 157.804 369.275 157.804H336.652C335.647 157.804 334.684 157.393 333.974 156.661C333.264 155.928 332.865 154.936 332.865 153.9V153.1C332.867 152.592 332.968 152.091 333.16 151.624C333.353 151.157 333.633 150.734 333.985 150.38C334.338 150.026 334.755 149.748 335.213 149.562C335.671 149.376 336.16 149.286 336.652 149.296Z" fill="#E6E8EC"/>
<path d="M383.742 158.304C386.316 158.304 388.402 156.153 388.402 153.5C388.402 150.847 386.316 148.696 383.742 148.696C381.168 148.696 379.081 150.847 379.081 153.5C379.081 156.153 381.168 158.304 383.742 158.304Z" fill="#E6E8EC"/>
<path d="M560.898 387.482L558.16 395.379L503.604 395.939C504.091 394.576 504.493 393.182 504.807 391.766C505.604 388.913 506.303 387.482 506.885 387.482H560.898ZM557.617 399.883L554.879 407.77L505.788 408.34C506.291 406.983 506.703 405.592 507.021 404.177C507.827 401.324 508.478 399.893 508.963 399.893L557.617 399.883ZM567.675 407.099L583.968 411.603C584.269 411.686 584.527 411.885 584.69 412.159C584.853 412.432 584.907 412.76 584.842 413.074C582.107 419.656 577.636 425.315 571.938 429.408C565.842 433.865 558.525 436.197 551.053 436.064C539.764 436.064 530.544 432.267 523.391 424.674C516.239 417.081 512.704 407.803 512.789 396.84C512.789 385.644 516.397 376.252 523.614 368.666C530.832 361.079 539.797 357.246 550.509 357.166C559.034 357.166 566.07 359.121 571.617 363.031C577.165 366.941 580.725 370.611 582.298 374.04L584.482 379.455C584.484 379.67 584.423 379.88 584.307 380.059C584.19 380.237 584.025 380.376 583.832 380.456L567.646 386.882C567.277 387.032 566.986 386.882 566.772 386.321C563.536 379.555 558.251 376.172 550.917 376.172C548.495 376.094 546.087 376.581 543.872 377.596C541.658 378.612 539.695 380.13 538.13 382.037C534.783 386.209 533.032 391.499 533.207 396.91C533.207 403.443 534.955 408.447 538.45 411.923C541.361 414.728 545.049 416.525 548.999 417.063C552.949 417.601 556.963 416.854 560.481 414.926C563.146 413.311 565.236 410.854 566.442 407.92C566.84 407.289 567.219 407.019 567.675 407.099Z" fill="black"/>
<path d="M364.216 224.782H285.503C268.209 224.782 254.19 239.233 254.19 257.059C254.19 274.886 268.209 289.337 285.503 289.337H364.216C381.51 289.337 395.529 274.886 395.529 257.059C395.529 239.233 381.51 224.782 364.216 224.782Z" fill="#E0E0E0"/>
<path d="M436.347 324.888H346.662C329.368 324.888 315.349 339.339 315.349 357.166C315.349 374.993 329.368 389.444 346.662 389.444H436.347C453.64 389.444 467.659 374.993 467.659 357.166C467.659 339.339 453.64 324.888 436.347 324.888Z" fill="#E0E0E0"/>
<path d="M364.216 425.405H285.503C268.209 425.405 254.19 439.856 254.19 457.683C254.19 475.509 268.209 489.961 285.503 489.961H364.216C381.51 489.961 395.529 475.509 395.529 457.683C395.529 439.856 381.51 425.405 364.216 425.405Z" fill="#00FFB6"/>
<path d="M306.856 488.952L294.375 476.086L281.893 488.952L294.375 501.818L306.856 488.952Z" fill="#00FFB6"/>
<path d="M306.849 288.336L294.368 275.47L281.886 288.336L294.368 301.202L306.849 288.336Z" fill="#E0E0E0"/>
<path d="M441.544 388.485L429.062 375.619L416.581 388.485L429.062 401.352L441.544 388.485Z" fill="#E0E0E0"/>
<path d="M298.076 464.782H293.376V449.553H298.284C299.761 449.553 301.026 449.858 302.077 450.467C303.128 451.072 303.933 451.942 304.493 453.077C305.053 454.208 305.334 455.561 305.334 457.137C305.334 458.724 305.051 460.09 304.486 461.235C303.921 462.375 303.098 463.252 302.017 463.867C300.936 464.477 299.623 464.782 298.076 464.782ZM295.221 463.146H297.957C299.216 463.146 300.26 462.903 301.088 462.417C301.915 461.931 302.533 461.24 302.939 460.342C303.346 459.445 303.549 458.377 303.549 457.137C303.549 455.908 303.348 454.85 302.947 453.962C302.545 453.07 301.945 452.386 301.147 451.91C300.349 451.429 299.355 451.189 298.165 451.189H295.221V463.146ZM321.277 457.167C321.277 458.773 320.987 460.161 320.407 461.331C319.827 462.501 319.031 463.404 318.02 464.038C317.008 464.673 315.853 464.99 314.554 464.99C313.255 464.99 312.1 464.673 311.089 464.038C310.078 463.404 309.282 462.501 308.702 461.331C308.122 460.161 307.832 458.773 307.832 457.167C307.832 455.561 308.122 454.173 308.702 453.003C309.282 451.833 310.078 450.931 311.089 450.296C312.1 449.662 313.255 449.344 314.554 449.344C315.853 449.344 317.008 449.662 318.02 450.296C319.031 450.931 319.827 451.833 320.407 453.003C320.987 454.173 321.277 455.561 321.277 457.167ZM319.492 457.167C319.492 455.849 319.271 454.736 318.83 453.828C318.394 452.921 317.801 452.235 317.053 451.769C316.309 451.303 315.476 451.07 314.554 451.07C313.632 451.07 312.797 451.303 312.048 451.769C311.305 452.235 310.712 452.921 310.271 453.828C309.835 454.736 309.617 455.849 309.617 457.167C309.617 458.486 309.835 459.599 310.271 460.506C310.712 461.413 311.305 462.1 312.048 462.566C312.797 463.032 313.632 463.265 314.554 463.265C315.476 463.265 316.309 463.032 317.053 462.566C317.801 462.1 318.394 461.413 318.83 460.506C319.271 459.599 319.492 458.486 319.492 457.167ZM336.454 449.553V464.782H334.669L326.37 452.825H326.222V464.782H324.377V449.553H326.162L334.49 461.54H334.639V449.553H336.454ZM293.376 489.782V474.553H302.567V476.189H295.221V481.334H302.091V482.97H295.221V488.146H302.686V489.782H293.376Z" fill="black"/>
</g>
<path opacity="0.2" d="M374.596 438.366C374.597 435.059 373.725 431.814 372.072 428.979C370.42 426.144 368.049 423.827 365.215 422.277C362.381 420.726 359.191 420 355.987 420.178C352.784 420.355 349.687 421.429 347.031 423.283C344.431 422.3 341.643 421.958 338.891 422.285C336.14 422.611 333.501 423.598 331.185 425.165C331.431 424.314 331.587 423.438 331.651 422.553C332.729 407.209 330.807 389.184 329.564 379.805C329.192 376.921 327.834 374.269 325.733 372.326C323.633 370.383 320.928 369.277 318.107 369.206L311.417 369.016C307.91 362.393 303.524 356.306 298.387 350.931C283.192 335.057 262.23 325.909 239.345 325.298C216.46 324.688 195.352 332.555 179.662 347.568C173.413 353.577 168.165 360.603 164.127 368.366L156.786 368.156C154.167 368.074 151.606 368.957 149.561 370.646C147.517 372.336 146.123 374.721 145.63 377.373C143.776 387.122 140.776 405.838 141.135 421.702C141.219 424.606 142.38 427.367 144.38 429.416C146.379 431.464 149.065 432.643 151.883 432.711L156.01 432.831C163.437 464.258 188.41 485.227 224.723 489.611C219.254 491.977 214.171 495.197 209.654 499.159C205.126 497.737 200.246 498.112 195.973 500.21C195.527 500.43 195.099 500.68 194.682 500.93L188.856 497.618C188.861 497.578 188.861 497.537 188.856 497.497C189.311 494.567 189.003 491.565 187.964 488.797C186.925 486.03 185.193 483.596 182.943 481.744C168.836 469.453 156.116 460.455 145.145 454.991C142.232 453.529 138.989 452.914 135.762 453.21C132.536 453.506 129.449 454.703 126.833 456.672C122.812 455.375 118.473 455.603 114.6 457.314C110.728 459.026 107.576 462.108 105.715 466.005C103.853 469.901 103.405 474.356 104.45 478.563C105.495 482.771 107.965 486.455 111.415 488.95C111.474 492.251 112.388 495.475 114.061 498.29C115.733 501.105 118.105 503.409 120.93 504.964C133.736 511.92 144.145 514.882 152.495 517.254C156.048 518.255 159.117 519.146 161.884 520.177C163.717 520.847 165.648 521.186 167.593 521.178C171.545 521.197 175.367 519.727 178.341 517.044C179.03 516.424 179.691 515.773 180.283 515.103L185.002 517.785C184.96 520.719 185.555 523.625 186.742 526.292C187.93 528.959 189.68 531.318 191.866 533.198C191.31 538.267 191.408 543.389 192.157 548.431C193.304 557.074 196.484 565.297 201.42 572.382C201.691 572.765 202.046 573.075 202.456 573.289C202.867 573.503 203.32 573.614 203.779 573.613C204.22 573.616 204.656 573.513 205.051 573.313C206.391 572.619 207.632 571.74 208.741 570.7L210.595 573.033C207.87 574.943 205.67 577.546 204.209 580.591C202.748 583.636 202.075 587.018 202.256 590.41C202.437 593.802 203.465 597.088 205.241 599.95C207.017 602.811 209.48 605.151 212.392 606.742V612.286C211.508 612.527 210.615 612.797 209.702 613.127C207.728 613.846 205.91 614.958 204.352 616.4C202.625 617.861 201.288 619.752 200.469 621.895C199.821 623.357 199.383 624.907 199.168 626.499C198.721 629.501 197.973 632.704 197.099 636.417C195.07 645.095 192.546 655.894 192.342 670.757C192.308 673.464 192.848 676.145 193.925 678.614C195.002 681.083 196.589 683.279 198.575 685.049C198.575 685.199 198.575 685.36 198.575 685.51C198.578 689.464 200.103 693.256 202.815 696.052C205.528 698.848 209.206 700.42 213.042 700.423H226.635C230.471 700.417 234.147 698.845 236.859 696.049C239.571 693.253 241.097 689.463 241.102 685.51C241.102 685.37 241.102 685.229 241.102 685.079C244.281 681.87 246.187 677.557 246.452 672.979C247.17 660.438 245.685 645.065 241.947 626.028C241.484 623.098 240.261 620.351 238.406 618.08C236.551 615.808 234.134 614.097 231.412 613.127V606.121C234.046 604.454 236.251 602.158 237.84 599.425C241.045 600.014 244.294 600.308 247.549 600.306C250.878 600.295 254.201 600.027 257.491 599.505C260.991 598.987 264.439 598.146 267.793 596.993C269.575 599.832 272.027 602.156 274.92 603.749V609.304C274.065 609.534 273.191 609.804 272.308 610.125C270.334 610.844 268.516 611.956 266.958 613.398C265.231 614.854 263.894 616.742 263.074 618.882C262.428 620.348 261.99 621.902 261.773 623.496C261.327 626.499 260.579 629.692 259.705 633.405C257.676 642.082 255.152 652.892 254.948 667.755C254.912 670.461 255.451 673.144 256.528 675.613C257.605 678.082 259.193 680.278 261.181 682.047C261.181 682.197 261.181 682.357 261.181 682.507C261.184 686.462 262.709 690.253 265.421 693.049C268.134 695.845 271.812 697.417 275.648 697.42H289.241C293.076 697.415 296.753 695.842 299.465 693.046C302.177 690.251 303.703 686.461 303.708 682.507C303.708 682.367 303.708 682.227 303.708 682.077C306.886 678.868 308.793 674.555 309.058 669.976C309.766 657.446 308.291 642.062 304.543 622.936C304.038 620.031 302.801 617.314 300.955 615.058C299.109 612.802 296.72 611.087 294.028 610.085H293.911V603.079C296.537 601.427 298.736 599.146 300.321 596.429C301.907 593.711 302.831 590.639 303.015 587.474C303.199 584.31 302.637 581.146 301.379 578.253C300.12 575.36 298.201 572.824 295.785 570.861C295.882 570.601 295.999 570.34 296.086 570.08C296.235 569.663 296.292 569.218 296.254 568.775C296.215 568.333 296.082 567.905 295.864 567.522C295.646 567.139 295.348 566.811 294.992 566.561C294.635 566.311 294.23 566.145 293.804 566.077C293.406 566.017 292.989 565.926 292.562 565.846L295.96 557.279C297.323 557.946 298.766 558.424 300.251 558.7C300.922 558.811 301.61 558.677 302.195 558.321C302.78 557.964 303.226 557.408 303.455 556.748L303.951 555.337C306.223 548.912 307.601 545.028 306.31 535.97C305.487 530.309 303.899 524.794 301.591 519.586C304.565 517.11 306.748 513.769 307.857 509.999C308.967 506.228 308.952 502.2 307.815 498.438L311.592 494.545C312.369 495.015 313.165 495.465 314.019 495.886C316.184 496.952 318.552 497.506 320.952 497.507C324.447 497.491 327.846 496.33 330.661 494.194C333.079 492.353 335.865 490.591 339.098 488.54C346.439 483.896 355.604 478.11 365.809 467.922C368.109 465.642 369.773 462.768 370.627 459.599C371.481 456.429 371.493 453.082 370.663 449.906C373.23 446.644 374.62 442.566 374.596 438.366ZM297.203 470.884C296.829 474.059 297.33 477.278 298.649 480.172L293.795 485.126C292.347 484.77 290.865 484.585 289.377 484.576C286.721 484.579 284.095 485.153 281.667 486.263C279.239 487.373 277.063 488.994 275.279 491.022C272.346 489.421 269.287 488.082 266.133 487.018C277.546 484.15 288.173 478.631 297.203 470.884ZM317.757 438.857C318.262 437.255 318.728 435.604 319.117 433.942H319.777C320.623 433.938 321.466 433.84 322.292 433.652C320.787 435.314 319.282 437.035 317.757 438.857Z" fill="#1C1C1C"/>
<path d="M222.295 594.091H209.188V615.81H222.295V594.091Z" fill="#6D6D6D" stroke="#353535" stroke-width="6" stroke-miterlimit="10"/>
<path d="M215.237 605.411C224.192 605.411 231.451 597.927 231.451 588.696C231.451 579.465 224.192 571.982 215.237 571.982C206.282 571.982 199.022 579.465 199.022 588.696C199.022 597.927 206.282 605.411 215.237 605.411Z" fill="#A3A3A3" stroke="#353535" stroke-width="6" stroke-miterlimit="10"/>
<path d="M215.236 597.804C220.116 597.804 224.072 593.726 224.072 588.696C224.072 583.666 220.116 579.588 215.236 579.588C210.357 579.588 206.401 583.666 206.401 588.696C206.401 593.726 210.357 597.804 215.236 597.804Z" fill="#CCCCCC" stroke="#353535" stroke-width="6" stroke-miterlimit="10"/>
<path d="M220.48 696.79H206.887C203.83 696.763 200.906 695.5 198.745 693.272C196.583 691.044 195.358 688.03 195.333 684.879C195.358 681.728 196.583 678.714 198.745 676.486C200.906 674.258 203.83 672.995 206.887 672.969H220.48C223.536 672.995 226.46 674.258 228.622 676.486C230.783 678.714 232.008 681.728 232.034 684.879C232.026 688.036 230.806 691.06 228.641 693.292C226.476 695.524 223.542 696.782 220.48 696.79Z" fill="#A3A3A3" stroke="#353535" stroke-width="6" stroke-miterlimit="10"/>
<path d="M224.267 615.359C217.901 612.97 210.922 612.97 204.557 615.359C202.271 616.193 200.254 617.664 198.729 619.607C197.203 621.55 196.23 623.89 195.915 626.369C194.362 636.678 189.41 649.389 189.119 670.207C189.077 673.802 190.244 677.301 192.421 680.111C194.598 682.92 197.65 684.867 201.061 685.62C207.761 687.021 216.499 688.022 224.655 686.721C228.058 686.148 231.17 684.4 233.482 681.763C235.793 679.125 237.166 675.756 237.374 672.208C238.151 658.497 236.112 642.283 232.908 625.968C232.532 623.56 231.531 621.301 230.009 619.433C228.487 617.565 226.503 616.157 224.267 615.359Z" fill="white" stroke="#353535" stroke-width="6" stroke-miterlimit="10"/>
<path opacity="0.3" d="M212.518 683.578C209.098 682.843 206.035 680.901 203.855 678.087C201.675 675.274 200.515 671.765 200.575 668.165C200.964 647.347 204.653 634.836 206.207 624.527C206.569 622.066 207.56 619.749 209.079 617.814C210.598 615.879 212.589 614.396 214.848 613.517C215.986 613.091 217.155 612.757 218.343 612.517C212.953 611.292 207.339 611.638 202.129 613.517C199.843 614.352 197.826 615.822 196.301 617.765C194.776 619.708 193.802 622.049 193.488 624.527C191.934 634.836 186.788 647.347 186.4 668.165C186.358 671.76 187.525 675.26 189.702 678.069C191.879 680.879 194.931 682.825 198.342 683.578C204.653 684.879 212.712 685.88 220.382 684.879C217.738 684.608 215.112 684.173 212.518 683.578Z" fill="#1C1C1C"/>
<path d="M284.746 591.168H271.638V612.887H284.746V591.168Z" fill="#6D6D6D" stroke="#353535" stroke-width="6" stroke-miterlimit="10"/>
<path d="M277.668 602.408C286.623 602.408 293.882 594.925 293.882 585.694C293.882 576.463 286.623 568.979 277.668 568.979C268.713 568.979 261.453 576.463 261.453 585.694C261.453 594.925 268.713 602.408 277.668 602.408Z" fill="#A3A3A3" stroke="#353535" stroke-width="6" stroke-miterlimit="10"/>
<path d="M277.668 594.801C282.547 594.801 286.503 590.724 286.503 585.694C286.503 580.663 282.547 576.586 277.668 576.586C272.788 576.586 268.832 580.663 268.832 585.694C268.832 590.724 272.788 594.801 277.668 594.801Z" fill="#CCCCCC" stroke="#353535" stroke-width="6" stroke-miterlimit="10"/>
<path d="M283.008 693.787H269.414C266.358 693.761 263.434 692.497 261.272 690.269C259.111 688.042 257.886 685.027 257.86 681.877C257.886 678.726 259.111 675.711 261.272 673.484C263.434 671.256 266.358 669.992 269.414 669.966H283.008C286.064 669.992 288.988 671.256 291.149 673.484C293.311 675.711 294.536 678.726 294.562 681.877C294.536 685.027 293.311 688.042 291.149 690.269C288.988 692.497 286.064 693.761 283.008 693.787Z" fill="#A3A3A3" stroke="#353535" stroke-width="6" stroke-miterlimit="10"/>
<path d="M286.794 612.357C280.429 609.968 273.45 609.968 267.084 612.357C264.799 613.191 262.782 614.661 261.256 616.604C259.731 618.547 258.757 620.888 258.443 623.366C256.89 633.675 251.938 646.386 251.647 667.204C251.605 670.799 252.772 674.299 254.949 677.108C257.125 679.918 260.178 681.864 263.589 682.617C270.289 684.018 279.027 685.019 287.183 683.718C290.586 683.146 293.698 681.397 296.01 678.76C298.321 676.123 299.694 672.753 299.902 669.206C300.679 655.494 298.64 639.28 295.436 622.966C295.025 620.571 294.011 618.33 292.494 616.467C290.977 614.605 289.011 613.187 286.794 612.357Z" fill="white" stroke="#353535" stroke-width="6" stroke-miterlimit="10"/>
<path opacity="0.3" d="M275.046 680.575C271.626 679.84 268.563 677.898 266.383 675.085C264.203 672.271 263.043 668.762 263.103 665.162C263.492 644.344 267.181 631.833 268.735 621.524C269.097 619.063 270.088 616.746 271.607 614.811C273.126 612.877 275.117 611.393 277.376 610.515C278.514 610.089 279.683 609.754 280.871 609.514C275.481 608.289 269.867 608.636 264.657 610.515C262.371 611.349 260.354 612.819 258.829 614.762C257.304 616.706 256.33 619.046 256.016 621.524C254.462 631.833 249.316 644.344 248.928 665.162C248.886 668.758 250.053 672.257 252.23 675.066C254.407 677.876 257.46 679.822 260.87 680.575C267.181 681.876 275.24 682.877 282.911 681.877C280.264 681.621 277.637 681.186 275.046 680.575Z" fill="#1C1C1C"/>
<path d="M178.267 498L171.935 509.83L190.382 520.323L196.715 508.493L178.267 498Z" fill="#6D6D6D" stroke="#353535" stroke-width="6" stroke-miterlimit="10"/>
<path d="M115.425 488.64C123.575 488.64 130.183 481.828 130.183 473.426C130.183 465.024 123.575 458.213 115.425 458.213C107.274 458.213 100.667 465.024 100.667 473.426C100.667 481.828 107.274 488.64 115.425 488.64Z" fill="#A3A3A3" stroke="#353535" stroke-width="6" stroke-miterlimit="10"/>
<path d="M198.003 534.139C206.958 534.139 214.217 526.655 214.217 517.424C214.217 508.193 206.958 500.71 198.003 500.71C189.048 500.71 181.788 508.193 181.788 517.424C181.788 526.655 189.048 534.139 198.003 534.139Z" fill="#A3A3A3" stroke="#353535" stroke-width="6" stroke-miterlimit="10"/>
<path d="M201.767 525.683C206.175 523.525 208.052 518.092 205.958 513.548C203.865 509.005 198.595 507.07 194.187 509.228C189.779 511.385 187.903 516.818 189.996 521.362C192.089 525.906 197.359 527.84 201.767 525.683Z" fill="#CCCCCC" stroke="#353535" stroke-width="6" stroke-miterlimit="10"/>
<path d="M179.817 496.406C178.752 503.297 175.37 509.582 170.263 514.162C168.423 515.797 166.192 516.895 163.802 517.34C161.411 517.786 158.948 517.562 156.67 516.694C147.184 513.141 134.018 511.389 116.094 501.681C113.016 499.984 110.602 497.239 109.266 493.914C107.929 490.589 107.752 486.89 108.764 483.445C110.813 476.679 114.143 468.292 119.231 461.596C121.341 458.782 124.324 456.8 127.682 455.982C131.041 455.164 134.569 455.559 137.678 457.102C149.679 463.107 162.476 472.656 174.855 483.445C176.72 484.96 178.162 486.958 179.033 489.235C179.905 491.512 180.175 493.986 179.817 496.406Z" fill="white" stroke="#353535" stroke-width="6" stroke-miterlimit="10"/>
<path opacity="0.3" d="M116.085 473.987C115.035 477.433 115.194 481.15 116.532 484.488C117.87 487.827 120.303 490.575 123.406 492.253C141.242 502.031 153.738 504.663 163.214 508.267C165.493 509.134 167.957 509.355 170.347 508.908C172.738 508.461 174.969 507.362 176.807 505.724C177.706 504.89 178.552 503.997 179.341 503.052C177.813 508.536 174.778 513.448 170.603 517.194C168.763 518.83 166.532 519.928 164.142 520.373C161.751 520.818 159.288 520.595 157.01 519.726C147.533 516.173 134.309 514.722 116.483 505.004C113.403 503.305 110.99 500.558 109.653 497.232C108.317 493.905 108.14 490.204 109.152 486.758C111.256 479.433 114.485 472.502 118.716 466.23C117.677 468.873 116.871 471.495 116.085 473.987Z" fill="#1C1C1C"/>
<path d="M296.915 479.328L282.017 494.685L291.286 504.24L306.184 488.882L296.915 479.328Z" fill="#6D6D6D" stroke="#353535" stroke-width="6" stroke-miterlimit="10"/>
<path d="M350.779 452.979C358.929 452.979 365.537 446.168 365.537 437.766C365.537 429.364 358.929 422.552 350.779 422.552C342.628 422.552 336.021 429.364 336.021 437.766C336.021 446.168 342.628 452.979 350.779 452.979Z" fill="#A3A3A3" stroke="#353535" stroke-width="6" stroke-miterlimit="10"/>
<path d="M283.299 520.437C292.254 520.437 299.513 512.954 299.513 503.723C299.513 494.491 292.254 487.008 283.299 487.008C274.344 487.008 267.084 494.491 267.084 503.723C267.084 512.954 274.344 520.437 283.299 520.437Z" fill="#A3A3A3" stroke="#353535" stroke-width="6" stroke-miterlimit="10"/>
<path d="M283.299 512.83C288.179 512.83 292.134 508.753 292.134 503.722C292.134 498.692 288.179 494.615 283.299 494.615C278.419 494.615 274.463 498.692 274.463 503.722C274.463 508.753 278.419 512.83 283.299 512.83Z" fill="#CCCCCC" stroke="#353535" stroke-width="6" stroke-miterlimit="10"/>
<path d="M295.144 478.301C298.002 484.601 302.916 489.667 309.029 492.613C311.22 493.678 313.651 494.11 316.062 493.864C318.473 493.617 320.773 492.7 322.719 491.212C330.875 485.006 343.108 479.602 357.575 465.189C360.077 462.675 361.649 459.34 362.021 455.759C362.393 452.178 361.542 448.576 359.614 445.573C355.828 439.667 350.39 432.561 343.691 427.557C340.902 425.462 337.499 424.419 334.052 424.601C330.606 424.783 327.325 426.18 324.758 428.558C314.854 437.766 305.145 450.577 296.212 464.489C294.881 466.495 294.082 468.825 293.895 471.248C293.707 473.671 294.138 476.103 295.144 478.301Z" fill="white" stroke="#353535" stroke-width="6" stroke-miterlimit="10"/>
<path opacity="0.3" d="M350.294 438.466C352.22 441.47 353.07 445.072 352.698 448.653C352.325 452.233 350.754 455.568 348.255 458.083C333.788 472.496 322.428 478.701 314.272 484.806C312.327 486.295 310.026 487.211 307.615 487.458C305.204 487.705 302.773 487.273 300.582 486.207C299.417 485.607 298.349 485.006 297.378 484.406C300.35 489.194 304.551 493.04 309.514 495.516C311.706 496.581 314.137 497.013 316.547 496.766C318.958 496.519 321.259 495.603 323.205 494.114C331.36 487.909 343.594 482.905 358.158 468.392C360.66 465.878 362.232 462.543 362.604 458.962C362.976 455.381 362.125 451.779 360.197 448.775C356.605 443.27 351.653 436.665 345.439 431.76C347.196 433.885 348.818 436.125 350.294 438.466Z" fill="#1C1C1C"/>
<path d="M250.773 595.402C268.055 592.799 281.939 582.791 286.988 567.978C280.294 566.875 273.998 563.975 268.735 559.571C261.934 553.922 253.248 551.262 244.559 552.164C235.983 553.957 228.423 559.127 223.489 566.577C219.673 572.368 214.451 577.027 208.343 580.088C217.372 592.599 233.49 598.004 250.773 595.402Z" fill="white"/>
<path d="M215.14 545.959C217.937 541.226 221.71 537.186 226.191 534.124C230.673 531.062 235.753 529.054 241.071 528.242C246.39 527.431 251.816 527.835 256.966 529.426C262.116 531.018 266.863 533.758 270.871 537.452C278.153 543.457 287.086 553.466 294.368 554.667C296.892 547.461 298.349 544.258 297.086 535.35C292.523 504.023 264.851 482.304 235.141 486.808C205.43 491.312 184.264 515.533 188.827 546.86C189.902 555.023 192.903 562.79 197.566 569.479C204.168 566.177 209.916 553.866 215.14 545.959Z" fill="white"/>
<path d="M202.809 565.576L212.712 577.987C212.712 577.987 220.868 572.882 223.587 566.977C226.305 561.072 238.151 552.565 244.656 552.565C251.161 552.565 259.414 552.465 272.425 562.674C275.873 565.404 280.117 566.85 284.464 566.777L288.931 552.665C288.931 552.665 275.92 542.756 270.968 537.952C266.017 533.148 251.647 527.243 242.714 528.644C233.782 530.045 221.548 536.251 215.334 546.459C209.12 556.668 204.557 563.774 202.809 565.576Z" fill="#00FFB6"/>
<path d="M255.648 530.511L251.516 553.337L258.483 554.678L262.615 531.852L255.648 530.511Z" fill="#00996A"/>
<path d="M270.114 536.829L261.508 556.324L267.959 559.35L276.565 539.856L270.114 536.829Z" fill="#00996A"/>
<path d="M278.762 546.931L272.569 560.96L277.252 563.157L283.446 549.128L278.762 546.931Z" fill="#00996A"/>
<path d="M228.267 535.018L221.979 538.39L232.373 558.99L238.661 555.618L228.267 535.018Z" fill="#00996A"/>
<path d="M216.012 545.9L210.693 550.73L224.429 566.802L229.747 561.972L216.012 545.9Z" fill="#00996A"/>
<path d="M210.665 558.223L206.804 561.729L216.688 573.294L220.549 569.788L210.665 558.223Z" fill="#00996A"/>
<path d="M245.518 529.003L238.507 530.076L241.817 553.044L248.828 551.971L245.518 529.003Z" fill="#00996A"/>
<path d="M250.87 595.902C268.153 593.3 282.037 583.291 287.086 568.478C280.391 567.375 274.096 564.476 268.832 560.071C262.031 554.423 253.346 551.762 244.656 552.665C236.08 554.457 228.521 559.628 223.587 567.077C219.315 573.583 213.975 578.887 208.635 581.59C217.684 594.101 233.587 598.605 250.87 595.902Z" stroke="#353535" stroke-width="6" stroke-linecap="round" stroke-linejoin="round"/>
<path d="M215.237 546.46C218.034 541.727 221.807 537.686 226.288 534.624C230.77 531.563 235.85 529.555 241.168 528.743C246.487 527.931 251.913 528.335 257.063 529.927C262.213 531.518 266.96 534.258 270.968 537.952C278.25 543.957 287.183 553.966 294.465 555.167C296.989 547.961 298.445 544.758 297.183 535.851C292.62 504.524 264.948 482.805 235.238 487.309C205.527 491.813 184.361 516.034 188.924 547.361C189.999 555.524 192.999 563.29 197.663 569.98C204.265 566.677 209.993 554.467 215.237 546.46Z" stroke="#353535" stroke-width="6" stroke-linecap="round" stroke-linejoin="round"/>
<path d="M202.809 565.576L212.712 577.987" stroke="#353535" stroke-width="6" stroke-linecap="round" stroke-linejoin="round"/>
<path d="M288.251 552.465L282.328 567.378" stroke="#353535" stroke-width="6" stroke-linecap="round" stroke-linejoin="round"/>
<path d="M312.641 413.244C311.291 463.287 274.308 487.619 229.529 486.307C184.749 484.996 149.126 458.603 150.475 408.58C151.825 358.557 188.342 325.899 233.131 327.17C277.92 328.441 313.98 363.211 312.641 413.244Z" fill="white"/>
<path d="M281.347 347.317C273.298 371.628 253.802 388.543 231.5 387.903C209.197 387.262 190.633 369.266 183.924 344.535C183.924 344.535 199.585 326.059 233.15 327.02C266.716 327.981 281.347 347.317 281.347 347.317Z" fill="#00FFB6"/>
<path opacity="0.3" d="M291.377 349.91C299.591 364.923 306.116 387.012 305.611 405.618C304.271 455.661 267.278 479.992 222.499 478.681C196.643 477.95 171.875 464.439 157.447 447.224C170.156 472.596 197.167 486.027 228.752 486.928C273.531 488.209 310.514 463.858 311.864 413.865C312.554 390.725 305.299 368.076 291.377 349.91Z" fill="#1C1C1C"/>
<path d="M272.92 338.18C264.356 361.029 245.491 376.683 224.024 376.072C211.198 375.702 199.624 369.597 190.818 359.778C199.906 375.562 214.644 386.011 231.539 386.491C253.87 387.132 273.289 370.217 281.386 345.906C278.911 342.953 276.063 340.355 272.92 338.18Z" fill="#00D895"/>
<path d="M312.631 413.735C311.281 463.778 274.298 488.109 229.519 486.798C184.739 485.487 149.116 459.094 150.456 409.071C151.796 359.047 188.322 326.389 233.121 327.671C277.92 328.952 313.971 363.702 312.631 413.735Z" stroke="#353535" stroke-width="6" stroke-miterlimit="10"/>
<path d="M281.357 347.257C273.298 371.568 253.802 388.483 231.5 387.852C209.197 387.222 190.633 369.216 183.924 344.475" stroke="#353535" stroke-width="6" stroke-miterlimit="10"/>
<path d="M304.708 371.398L311.873 371.608C314.005 371.665 316.047 372.501 317.634 373.969C319.221 375.436 320.249 377.438 320.534 379.615C321.835 389.444 323.641 406.859 322.602 421.742C322.436 424.126 321.384 426.351 319.666 427.956C317.948 429.561 315.696 430.422 313.378 430.359L310.718 430.279C310.718 430.279 315.631 394.038 304.708 371.398Z" fill="#606060" stroke="#353535" stroke-width="6" stroke-miterlimit="10"/>
<path d="M158.456 370.778L150.572 370.557C148.645 370.506 146.762 371.159 145.257 372.401C143.752 373.643 142.722 375.393 142.349 377.343C140.494 387.142 137.494 405.498 137.911 421.021C137.978 423.157 138.835 425.186 140.306 426.692C141.777 428.197 143.752 429.065 145.824 429.118L149.291 429.218C149.291 429.218 146.3 392.757 158.456 370.778Z" fill="#606060" stroke="#353535" stroke-width="6" stroke-miterlimit="10"/>
<g opacity="0.4">
<path d="M322.33 421.421C322.724 415.036 322.743 408.632 322.388 402.245C321.833 404.215 320.66 405.94 319.053 407.15C317.445 408.359 315.494 408.986 313.504 408.931L311.563 408.87C311.664 415.917 311.3 422.963 310.475 429.959L313.136 430.039C315.449 430.096 317.695 429.233 319.407 427.628C321.119 426.024 322.166 423.801 322.33 421.421Z" fill="#353535"/>
</g>
<g opacity="0.4">
<path d="M149.038 407.79L145.921 407.7C144.254 407.655 142.641 407.084 141.298 406.064C139.956 405.043 138.95 403.623 138.416 401.995C137.774 408.21 137.505 414.461 137.61 420.711C137.674 422.848 138.53 424.878 140.002 426.384C141.474 427.89 143.45 428.758 145.523 428.808L148.989 428.908C148.537 421.876 148.553 414.82 149.038 407.79Z" fill="#353535"/>
</g>
<path d="M204.469 425.365L257.259 424.734C257.259 424.734 251.744 463.007 229.907 462.667C209.984 462.347 204.469 425.365 204.469 425.365Z" fill="#1C1C1C"/>
<path d="M229.907 462.667C236.801 462.767 242.064 459.404 246.044 454.75C244.17 452.149 241.72 450.047 238.897 448.619C236.075 447.191 232.963 446.48 229.82 446.543C226.891 446.495 223.988 447.112 221.317 448.35C218.645 449.589 216.271 451.418 214.363 453.709C218.149 458.744 223.208 462.567 229.907 462.667Z" fill="#F476A9"/>
<path d="M210.576 425.395H251.035C251.035 428.288 249.92 431.063 247.935 433.109C245.95 435.155 243.259 436.304 240.452 436.304H221.159C218.353 436.304 215.661 435.155 213.676 433.109C211.691 431.063 210.576 428.288 210.576 425.395Z" fill="white"/>
<path d="M204.469 428.958L257.259 428.327L253.889 423.774C252.365 434.253 248.705 446.393 241.267 454C236.413 459.004 229.063 460.866 223.033 456.802C217.208 452.869 213.819 445.452 211.537 438.907C209.854 434.209 208.612 429.356 207.828 424.414C207.139 419.85 200.41 421.792 201.1 426.326C203.042 438.937 207.945 454.23 218.237 462.087C221.593 464.617 225.61 466.048 229.765 466.194C233.921 466.341 238.023 465.195 241.539 462.907C248.821 458.213 253.19 450.046 256.239 442.029C258.284 436.767 259.749 431.285 260.608 425.685C260.938 423.453 259.734 421.111 257.249 421.141L204.459 421.772C199.983 421.822 199.974 429.018 204.469 428.958Z" fill="#1C1C1C"/>
<path d="M283.833 403.686C277.289 395.419 264.725 396.49 257.86 403.686C254.705 406.989 259.637 412.083 262.793 408.771C267.211 404.137 274.726 403.506 278.901 408.771C281.745 412.364 286.668 407.249 283.833 403.686Z" fill="#1C1C1C"/>
<path d="M182.875 408.771C187.05 403.506 194.527 404.137 198.993 408.771C202.139 412.083 207.071 406.999 203.925 403.686C197.051 396.49 184.507 395.419 177.943 403.686C175.127 407.249 180.04 412.364 182.875 408.771Z" fill="#1C1C1C"/>
<path d="M288.931 321.465L303.126 302.088L310.097 292.58C310.365 292.272 310.603 291.937 310.806 291.579L311.048 291.309C310.272 291.479 310.184 291.629 310.777 291.739C311.263 292.026 311.766 292.283 312.282 292.51C313.329 293.153 314.277 293.952 315.097 294.882C316.814 296.816 317.983 299.199 318.474 301.771C318.965 304.343 318.761 307.005 317.884 309.465C316.893 311.957 315.342 314.172 313.358 315.926C311.375 317.68 309.016 318.923 306.475 319.554C299.989 321.185 293.028 318.553 288.387 313.799C286.163 311.527 282.726 315.06 284.95 317.332C290.135 322.626 297.572 325.769 304.941 324.878C308.39 324.468 311.691 323.206 314.565 321.199C317.439 319.191 319.8 316.498 321.447 313.348C322.992 310.274 323.703 306.826 323.505 303.37C323.306 299.914 322.206 296.576 320.321 293.711C318.436 290.806 315.771 288.532 312.651 287.166C310.582 286.285 308.592 286.455 307.136 288.337C305.679 290.218 304.359 292.1 302.97 293.981L284.668 318.933C284.346 319.507 284.257 320.189 284.421 320.83C284.585 321.471 284.988 322.02 285.542 322.356C286.102 322.675 286.759 322.759 287.377 322.592C287.996 322.424 288.528 322.017 288.863 321.455L288.931 321.465Z" fill="#1C1C1C"/>
<path d="M318.466 324.017C316.631 324.361 314.915 325.194 313.489 326.434C312.064 327.673 310.978 329.276 310.34 331.083C309.72 332.886 309.59 334.828 309.963 336.702C310.336 338.575 311.198 340.308 312.456 341.713C314.932 344.625 319.253 346.206 322.865 344.835C326.836 343.334 328.36 339.09 327.719 335.027C326.981 330.463 323.204 327.4 319.864 324.758C319.309 324.425 318.648 324.332 318.026 324.499C317.404 324.666 316.872 325.079 316.544 325.649C316.234 326.227 316.152 326.906 316.314 327.545C316.477 328.184 316.872 328.735 317.418 329.082L317.942 329.502L318.855 330.262C319.458 330.768 320.035 331.306 320.583 331.874C320.826 332.124 321.059 332.384 321.282 332.645C321.505 332.905 321.505 332.915 321.612 333.045C321.903 333.425 321.331 332.584 321.767 333.275C321.963 333.562 322.145 333.86 322.311 334.166C322.399 334.316 322.476 334.476 322.554 334.626C322.787 335.067 322.554 334.546 322.632 334.766C322.709 334.987 322.836 335.387 322.913 335.707C322.991 336.028 323.039 336.658 323.01 336.128C323.01 336.428 323.01 336.718 323.01 337.008C323.01 337.299 323.01 337.299 323.01 337.449C323.01 338.119 323.127 336.988 323.01 337.639C322.957 337.92 322.889 338.197 322.806 338.47C322.806 338.6 322.719 338.74 322.67 338.87C322.855 338.4 322.719 338.76 322.67 338.87C322.622 338.98 322.175 339.631 322.496 339.23C322.379 339.381 321.69 339.981 322.098 339.701C322.02 339.701 321.301 340.171 321.593 340.041C321.281 340.174 320.955 340.268 320.622 340.321C321.001 340.251 320.476 340.321 320.379 340.321H319.864C319.69 340.321 319.525 340.321 319.35 340.321C319.029 340.321 319.661 340.421 319.214 340.321C318.767 340.221 318.573 340.151 318.243 340.041C318.554 340.201 317.913 339.931 318.243 340.041L317.845 339.841C317.554 339.681 317.282 339.49 317 339.3C316.932 339.3 316.641 339.02 317 339.3L316.583 338.93C316.369 338.72 316.156 338.5 315.961 338.269C315.767 338.039 315.602 337.789 315.864 338.149C315.777 338.029 315.689 337.899 315.612 337.769C315.446 337.516 315.297 337.252 315.165 336.978C315.097 336.848 315.029 336.708 314.971 336.568C315.146 336.968 314.971 336.448 314.903 336.318C314.816 336.028 314.757 335.737 314.689 335.437C314.689 335.327 314.689 334.967 314.689 335.437C314.689 335.287 314.689 335.137 314.689 334.977C314.689 334.817 314.689 334.376 314.689 334.066C314.689 334.506 314.689 334.186 314.689 334.066C314.689 333.946 314.777 333.616 314.835 333.395C314.893 333.175 314.922 333.105 314.971 332.965C315.019 332.825 315.262 332.254 315.049 332.715C315.192 332.406 315.351 332.105 315.524 331.814C315.602 331.684 315.68 331.554 315.767 331.434C315.855 331.314 315.893 331.243 315.952 331.153C315.829 331.327 315.829 331.347 315.952 331.213C316.175 330.953 316.398 330.703 316.641 330.463L316.971 330.163C317.389 329.792 316.767 330.272 317.194 330.002C317.622 329.732 317.816 329.612 318.165 329.432C318.593 329.252 318.243 329.432 318.165 329.432L318.787 329.212C319.145 329.115 319.508 329.038 319.874 328.982C320.492 328.801 321.016 328.378 321.334 327.804C321.652 327.229 321.738 326.548 321.573 325.909C321.386 325.279 320.972 324.746 320.416 324.42C319.86 324.095 319.204 324.001 318.583 324.157L318.466 324.017Z" fill="#1C1C1C"/>
<path d="M330.826 349.129C330.991 348.609 331.166 348.128 331.35 347.588L331.661 346.757C331.661 346.807 331.545 347.037 331.661 346.757C331.778 346.477 331.826 346.377 331.914 346.186C332.137 345.697 332.39 345.222 332.671 344.765C332.777 344.621 332.874 344.471 332.962 344.315C332.807 344.525 333.118 344.135 333.156 344.095C333.195 344.055 333.37 343.855 333.477 343.734C333.584 343.614 334.118 343.144 333.768 343.424C333.926 343.302 334.091 343.192 334.263 343.094C334.36 343.034 334.943 342.773 334.681 342.864C334.419 342.954 335.04 342.764 335.147 342.734C335.254 342.704 335.409 342.673 335.535 342.643C335.661 342.613 335.904 342.643 335.603 342.643C335.302 342.643 335.991 342.643 336.069 342.643C336.322 342.643 336.603 342.733 336.186 342.643C336.428 342.713 336.681 342.793 336.924 342.844C336.545 342.763 336.778 342.764 337.011 342.914L337.322 343.114L337.215 343.044C337.089 342.944 337.079 342.944 337.215 343.044C337.351 343.144 337.38 343.224 337.409 343.254C337.438 343.284 337.137 342.823 337.409 343.254C337.409 343.254 337.603 343.624 337.516 343.424C337.428 343.224 337.593 343.684 337.613 343.734C337.632 343.784 337.691 344.075 337.729 344.245C337.768 344.415 337.729 344.305 337.729 344.245C337.729 344.505 337.778 344.775 337.797 345.035C337.797 345.576 337.797 346.126 337.856 346.667C337.914 347.207 337.856 347.598 337.856 348.068C337.856 348.278 337.856 348.499 337.856 348.719C337.856 348.939 337.739 349.669 337.856 349.129C337.719 350.111 337.498 351.079 337.195 352.021C337.195 352.131 336.914 352.732 337.021 352.482C337.127 352.232 337.021 352.482 337.021 352.562C337.021 352.642 336.885 352.862 336.807 353.002C336.686 353.236 336.553 353.463 336.409 353.683C336.292 353.863 335.962 354.223 336.283 353.883C336.108 354.063 335.953 354.273 335.778 354.454C335.603 354.634 335.088 354.954 335.545 354.674C335.351 354.794 335.176 354.934 334.982 355.044C334.788 355.154 334.749 355.154 334.642 355.224C334.37 355.414 335.147 355.034 334.584 355.224C333.971 355.415 333.454 355.842 333.139 356.416C332.825 356.99 332.737 357.668 332.894 358.307C333.071 358.942 333.482 359.48 334.039 359.805C334.597 360.131 335.256 360.218 335.875 360.048C341.166 358.047 342.827 352.192 342.866 346.857C342.866 343.774 342.526 340.331 339.681 338.62C338.438 337.939 337.038 337.62 335.633 337.696C334.227 337.772 332.868 338.24 331.7 339.05C328.787 341.052 327.476 344.515 326.36 347.838C326.193 348.477 326.278 349.159 326.596 349.735C326.914 350.31 327.44 350.733 328.059 350.911C328.679 351.07 329.335 350.978 329.891 350.654C330.447 350.33 330.862 349.799 331.049 349.169L330.826 349.129Z" fill="#1C1C1C"/>
<path d="M346.361 362.38L352.663 367.245C354.692 368.806 357.304 369.507 359.352 367.545C360.152 366.733 360.701 365.696 360.93 364.563C361.16 363.431 361.06 362.254 360.644 361.179C359.77 358.847 357.876 357.096 356.265 355.294C354.653 353.493 353.216 351.291 351.012 350.6C348.487 349.78 346.157 351.401 344.487 353.193C342.972 354.804 341.806 356.731 341.07 358.843C340.333 360.955 340.042 363.205 340.215 365.443C340.451 367.926 341.247 370.317 342.538 372.426C343.829 374.536 345.58 376.305 347.653 377.594C350.342 379.255 352.779 374.931 350.109 373.27C347.828 371.872 346.153 369.625 345.431 366.992C344.708 364.359 344.993 361.541 346.225 359.118C346.872 357.836 347.772 356.707 348.866 355.805C349.041 355.675 349.225 355.545 349.4 355.434C349.798 355.184 349.682 355.494 349.4 355.294C349.933 355.694 350.422 356.154 350.857 356.666L354.614 360.829C355.091 361.328 355.514 361.878 355.876 362.471C356.158 363.001 356.255 363.271 356.168 363.601C356.022 364.102 356.061 363.882 356.1 363.772C356.1 363.892 355.847 364.052 355.993 363.912C356.138 363.772 356.284 363.832 356.265 363.762C356.245 363.692 355.556 363.281 355.41 363.171L354.07 362.17L348.789 358.097C348.232 357.765 347.57 357.673 346.948 357.842C346.326 358.011 345.794 358.426 345.468 358.998C345.158 359.575 345.077 360.252 345.239 360.89C345.402 361.527 345.797 362.075 346.342 362.421L346.361 362.38Z" fill="#1C1C1C"/>
<path d="M383.616 363.892C378.495 368.477 373.021 372.624 367.246 376.292C366.69 376.627 366.285 377.175 366.121 377.817C365.957 378.459 366.048 379.142 366.372 379.715C366.696 380.289 367.229 380.706 367.851 380.875C368.474 381.043 369.136 380.95 369.693 380.616C375.814 376.716 381.617 372.308 387.043 367.435C387.486 366.963 387.732 366.332 387.727 365.676C387.722 365.02 387.468 364.392 387.019 363.927C386.569 363.462 385.961 363.198 385.324 363.192C384.688 363.185 384.074 363.436 383.616 363.892Z" fill="#1C1C1C"/>
<path d="M360.323 385.5C363.45 385.5 363.45 380.496 360.323 380.496C357.197 380.496 357.197 385.5 360.323 385.5Z" fill="#1C1C1C"/>
</svg>
