<svg width="228" height="325" viewBox="0 0 228 325" fill="none" xmlns="http://www.w3.org/2000/svg">
<path opacity="0.1" d="M121.098 325C175.892 325 220.311 317.299 220.311 307.8C220.311 298.3 175.892 290.599 121.098 290.599C66.3044 290.599 21.8855 298.3 21.8855 307.8C21.8855 317.299 66.3044 325 121.098 325Z" fill="#353535"/>
<path d="M100.461 242.31V223.895H88.987V242.31H100.461Z" fill="#6D6D6D"/>
<path d="M103.002 244.858H86.4465V221.347H103.002V244.858ZM91.5274 239.762H97.9209V226.443H91.5274V239.762Z" fill="#353535"/>
<path d="M94.288 233.476C102.103 233.476 108.438 227.122 108.438 219.283C108.438 211.444 102.103 205.089 94.288 205.089C86.473 205.089 80.1378 211.444 80.1378 219.283C80.1378 227.122 86.473 233.476 94.288 233.476Z" fill="#A3A3A3"/>
<path d="M94.2879 236.025C92.095 236.031 89.9224 235.602 87.8961 234.76C85.8698 233.919 84.0301 232.683 82.4834 231.124C79.7524 228.385 78.0523 224.782 77.6729 220.928C77.2936 217.073 78.2584 213.206 80.403 209.985C82.5475 206.764 85.7392 204.388 89.4341 203.263C93.1289 202.138 97.0985 202.332 100.666 203.814C104.234 205.295 107.18 207.971 109.001 211.387C110.822 214.802 111.406 218.745 110.654 222.545C109.902 226.344 107.859 229.763 104.875 232.221C101.891 234.679 98.1494 236.023 94.2879 236.025ZM94.2879 207.646C91.992 207.643 89.7469 208.324 87.837 209.602C85.927 210.88 84.4382 212.698 83.5587 214.825C82.6792 216.952 82.4485 219.294 82.8963 221.552C83.344 223.811 84.45 225.886 86.0739 227.514C87.4227 228.871 89.0843 229.873 90.9116 230.431C92.739 230.99 94.6755 231.087 96.5495 230.715C98.4234 230.343 100.177 229.513 101.654 228.298C103.132 227.084 104.288 225.522 105.019 223.752C105.751 221.982 106.036 220.059 105.85 218.152C105.663 216.245 105.009 214.413 103.948 212.82C102.886 211.227 101.449 209.922 99.7643 209.019C98.0792 208.116 96.1982 207.645 94.2879 207.646Z" fill="#353535"/>
<path d="M94.288 227.012C98.5439 227.012 101.994 223.552 101.994 219.283C101.994 215.014 98.5439 211.553 94.288 211.553C90.0321 211.553 86.5819 215.014 86.5819 219.283C86.5819 223.552 90.0321 227.012 94.288 227.012Z" fill="#CCCCCC"/>
<path d="M94.2881 229.561C91.9172 229.561 89.6195 228.737 87.7867 227.228C85.9539 225.72 84.6993 223.621 84.2367 221.288C83.7742 218.956 84.1324 216.535 85.2502 214.437C86.3679 212.34 88.1761 210.697 90.3666 209.787C92.5571 208.877 94.9945 208.758 97.2631 209.448C99.5317 210.139 101.491 211.598 102.808 213.576C104.124 215.553 104.716 217.928 104.483 220.294C104.25 222.661 103.206 224.873 101.528 226.554C100.58 227.511 99.4516 228.269 98.2087 228.786C96.9659 229.302 95.6333 229.565 94.2881 229.561ZM94.2881 214.102C93.2648 214.099 92.2639 214.402 91.4123 214.971C90.5608 215.54 89.897 216.35 89.5051 217.299C89.1132 218.247 89.0109 219.29 89.2111 220.297C89.4114 221.303 89.9051 222.228 90.6298 222.952C91.2308 223.553 91.9702 223.997 92.7826 224.243C93.595 224.489 94.4554 224.531 95.2877 224.364C96.1199 224.198 96.8984 223.828 97.5544 223.288C98.2103 222.748 98.7235 222.054 99.0485 221.267C99.3735 220.481 99.5003 219.626 99.4178 218.779C99.3352 217.932 99.0459 217.118 98.5753 216.41C98.1047 215.701 97.4673 215.12 96.7196 214.718C95.9718 214.315 95.1368 214.103 94.2881 214.102Z" fill="#353535"/>
<path d="M98.9285 290.769H87.0901C81.5294 290.769 77.0214 295.29 77.0214 300.868C77.0214 306.446 81.5294 310.968 87.0901 310.968H98.9285C104.489 310.968 108.997 306.446 108.997 300.868C108.997 295.29 104.489 290.769 98.9285 290.769Z" fill="#A3A3A3"/>
<path d="M98.9285 313.516H87.0732C83.729 313.516 80.5219 312.184 78.1572 309.812C75.7926 307.44 74.464 304.223 74.464 300.868C74.464 297.514 75.7926 294.297 78.1572 291.925C80.5219 289.553 83.729 288.221 87.0732 288.221H98.9285C102.273 288.221 105.48 289.553 107.844 291.925C110.209 294.297 111.538 297.514 111.538 300.868C111.538 304.223 110.209 307.44 107.844 309.812C105.48 312.184 102.273 313.516 98.9285 313.516ZM87.0732 293.317C85.0766 293.317 83.1618 294.113 81.75 295.529C80.3382 296.945 79.5449 298.866 79.5449 300.868C79.5449 302.871 80.3382 304.792 81.75 306.208C83.1618 307.624 85.0766 308.42 87.0732 308.42H98.9285C100.925 308.42 102.84 307.624 104.252 306.208C105.664 304.792 106.457 302.871 106.457 300.868C106.457 298.866 105.664 296.945 104.252 295.529C102.84 294.113 100.925 293.317 98.9285 293.317H87.0732Z" fill="#353535"/>
<path d="M102.231 241.8C96.6846 239.791 90.6124 239.791 85.066 241.8C83.0776 242.523 81.3222 243.774 79.9874 245.42C78.6526 247.066 77.7884 249.044 77.4871 251.144C76.1406 259.893 71.8473 270.68 71.5594 288.348C71.5124 291.401 72.5288 294.374 74.4333 296.756C76.3378 299.138 79.0111 300.778 81.9922 301.395C87.8606 302.593 95.4396 303.476 102.578 302.312C105.554 301.838 108.277 300.357 110.297 298.114C112.317 295.872 113.51 293.004 113.68 289.987C114.315 278.342 112.579 264.624 109.802 250.736C109.417 248.718 108.517 246.833 107.191 245.267C105.864 243.701 104.155 242.507 102.231 241.8Z" fill="white"/>
<path d="M95.3804 305.387C90.7041 305.349 86.0431 304.843 81.4671 303.875C77.9027 303.144 74.7055 301.186 72.429 298.339C70.1525 295.493 68.9402 291.937 69.0021 288.289C69.2222 275.717 71.4156 266.561 73.1685 259.205C73.9307 256.037 74.5826 253.259 74.9806 250.711C75.3511 248.159 76.4077 245.756 78.0369 243.762C79.6661 241.767 81.8064 240.255 84.2277 239.388C90.3229 237.19 96.9911 237.19 103.086 239.388C105.411 240.246 107.477 241.689 109.086 243.578C110.694 245.467 111.793 247.739 112.274 250.176C115.501 266.314 116.788 279.37 116.203 290.098C116.018 293.701 114.601 297.13 112.19 299.808C109.779 302.486 106.523 304.249 102.968 304.801C100.459 305.201 97.9212 305.397 95.3804 305.387ZM93.6868 242.879C91.0435 242.884 88.4203 243.341 85.9299 244.23C84.3746 244.789 83.001 245.763 81.9565 247.047C80.912 248.332 80.2363 249.877 80.0022 251.518C79.5788 254.278 78.8674 257.251 78.1138 260.394C76.4202 267.512 74.2946 276.363 74.0829 288.373C74.0394 290.833 74.8558 293.231 76.3902 295.15C77.9246 297.069 80.0803 298.389 82.4835 298.881C89.7999 300.376 96.5998 300.681 102.155 299.781C104.562 299.408 106.768 298.216 108.402 296.405C110.037 294.594 111 292.274 111.131 289.835C111.69 279.565 110.437 266.9 107.295 251.22C106.985 249.643 106.278 248.172 105.24 246.946C104.202 245.721 102.869 244.783 101.367 244.221C98.8961 243.338 96.2931 242.884 93.6698 242.879H93.6868Z" fill="#353535"/>
<path opacity="0.3" d="M91.9847 299.832C89.0071 299.22 86.3353 297.585 84.4296 295.21C82.5238 292.835 81.5032 289.868 81.5435 286.819C81.8483 269.168 85.134 258.525 86.4805 249.776C86.7827 247.677 87.6471 245.699 88.9818 244.054C90.3165 242.408 92.0715 241.157 94.0594 240.433C95.0667 240.09 96.093 239.806 97.1332 239.584C92.4351 238.507 87.5279 238.802 82.9915 240.433C81.0026 241.155 79.2468 242.406 77.9118 244.052C76.5769 245.698 75.713 247.676 75.4125 249.776C74.0661 258.525 69.5356 269.168 69.2392 286.819C69.1903 289.871 70.2049 292.845 72.108 295.226C74.0111 297.608 76.6833 299.249 79.6636 299.866C85.1679 300.987 92.171 301.811 98.9031 300.953C96.4474 300.648 94.1018 300.265 91.9847 299.832Z" fill="#1C1C1C"/>
<path d="M154.937 239.762V221.347H143.462V239.762H154.937Z" fill="#6D6D6D"/>
<path d="M157.469 242.31H140.922V218.799H157.469V242.31ZM146.003 237.214H152.388V223.895H146.003V237.214Z" fill="#353535"/>
<path d="M148.755 230.928C156.57 230.928 162.905 224.573 162.905 216.735C162.905 208.896 156.57 202.541 148.755 202.541C140.94 202.541 134.605 208.896 134.605 216.735C134.605 224.573 140.94 230.928 148.755 230.928Z" fill="#A3A3A3"/>
<path d="M148.755 233.476C146.563 233.482 144.393 233.052 142.368 232.21C140.343 231.369 138.505 230.134 136.959 228.575C134.23 225.838 132.531 222.236 132.153 218.383C131.775 214.531 132.74 210.665 134.884 207.447C137.028 204.228 140.219 201.854 143.912 200.73C147.606 199.607 151.573 199.802 155.139 201.283C158.705 202.765 161.648 205.441 163.467 208.855C165.287 212.269 165.87 216.211 165.117 220.008C164.364 223.805 162.321 227.222 159.338 229.678C156.354 232.134 152.615 233.476 148.755 233.476ZM140.549 224.982C142.444 226.886 144.938 228.073 147.606 228.339C150.275 228.606 152.953 227.936 155.185 226.444C157.416 224.952 159.063 222.73 159.845 220.156C160.626 217.583 160.494 214.818 159.471 212.331C158.447 209.845 156.596 207.791 154.233 206.52C151.869 205.249 149.139 204.839 146.508 205.36C143.877 205.882 141.508 207.302 139.804 209.379C138.099 211.456 137.166 214.062 137.162 216.752C137.157 218.28 137.453 219.794 138.035 221.207C138.616 222.62 139.471 223.903 140.549 224.982Z" fill="#353535"/>
<path d="M148.755 224.464C153.011 224.464 156.461 221.004 156.461 216.735C156.461 212.466 153.011 209.005 148.755 209.005C144.499 209.005 141.049 212.466 141.049 216.735C141.049 221.004 144.499 224.464 148.755 224.464Z" fill="#CCCCCC"/>
<path d="M148.755 227.013C146.387 227.01 144.093 226.184 142.263 224.676C140.434 223.167 139.183 221.069 138.723 218.739C138.262 216.409 138.622 213.99 139.74 211.896C140.857 209.802 142.664 208.161 144.853 207.253C147.041 206.345 149.476 206.227 151.742 206.917C154.008 207.608 155.965 209.065 157.28 211.041C158.595 213.016 159.186 215.388 158.954 217.752C158.721 220.116 157.678 222.326 156.004 224.006C155.054 224.964 153.925 225.723 152.68 226.239C151.436 226.755 150.102 227.018 148.755 227.013ZM148.755 211.553C147.733 211.553 146.733 211.857 145.882 212.426C145.032 212.996 144.37 213.806 143.979 214.754C143.588 215.702 143.486 216.745 143.687 217.751C143.887 218.757 144.381 219.68 145.105 220.404C145.707 221.005 146.446 221.449 147.259 221.695C148.072 221.941 148.933 221.982 149.765 221.815C150.598 221.648 151.376 221.278 152.032 220.737C152.688 220.197 153.201 219.502 153.525 218.715C153.85 217.928 153.976 217.073 153.893 216.226C153.809 215.378 153.519 214.564 153.047 213.856C152.576 213.148 151.937 212.567 151.188 212.166C150.44 211.764 149.604 211.554 148.755 211.553Z" fill="#353535"/>
<path d="M153.404 288.221H141.565C136.005 288.221 131.497 292.742 131.497 298.32C131.497 303.898 136.005 308.42 141.565 308.42H153.404C158.965 308.42 163.473 303.898 163.473 298.32C163.473 292.742 158.965 288.221 153.404 288.221Z" fill="#A3A3A3"/>
<path d="M153.396 310.968H141.54C138.196 310.968 134.989 309.635 132.624 307.263C130.26 304.891 128.931 301.674 128.931 298.32C128.931 294.966 130.26 291.749 132.624 289.377C134.989 287.005 138.196 285.672 141.54 285.672H153.396C156.74 285.672 159.947 287.005 162.312 289.377C164.676 291.749 166.005 294.966 166.005 298.32C166.005 301.674 164.676 304.891 162.312 307.263C159.947 309.635 156.74 310.968 153.396 310.968ZM141.54 290.769C139.544 290.769 137.629 291.564 136.217 292.98C134.805 294.397 134.012 296.317 134.012 298.32C134.012 300.323 134.805 302.243 136.217 303.66C137.629 305.076 139.544 305.871 141.54 305.871H153.396C155.392 305.871 157.307 305.076 158.719 303.66C160.131 302.243 160.924 300.323 160.924 298.32C160.924 296.317 160.131 294.397 158.719 292.98C157.307 291.564 155.392 290.769 153.396 290.769H141.54Z" fill="#353535"/>
<path d="M156.698 239.252C151.155 237.243 145.085 237.243 139.542 239.252C137.552 239.974 135.796 241.224 134.461 242.87C133.126 244.516 132.262 246.495 131.963 248.596C130.616 257.345 126.323 268.132 126.035 285.8C125.986 288.853 127.002 291.828 128.907 294.21C130.812 296.592 133.486 298.232 136.468 298.847C142.336 300.045 149.915 300.928 157.045 299.764C160.021 299.29 162.746 297.809 164.767 295.567C166.789 293.325 167.984 290.457 168.156 287.439C168.791 275.794 167.046 262.076 164.269 248.188C163.884 246.17 162.985 244.285 161.658 242.719C160.331 241.153 158.622 239.959 156.698 239.252Z" fill="white"/>
<path d="M149.856 302.839C145.18 302.802 140.519 302.296 135.943 301.327C132.378 300.598 129.179 298.64 126.903 295.793C124.626 292.946 123.414 289.39 123.478 285.74C123.689 273.169 125.883 264.013 127.644 256.657C128.406 253.48 129.058 250.711 129.448 248.163C129.821 245.61 130.879 243.208 132.51 241.214C134.14 239.219 136.281 237.707 138.703 236.84C144.799 234.642 151.467 234.642 157.562 236.84C159.885 237.698 161.95 239.141 163.557 241.03C165.165 242.919 166.261 245.191 166.742 247.628C169.968 263.766 171.255 276.822 170.671 287.55C170.487 291.152 169.072 294.581 166.662 297.259C164.253 299.937 160.997 301.701 157.443 302.253C154.934 302.653 152.397 302.849 149.856 302.839ZM148.162 240.331C145.516 240.336 142.89 240.792 140.397 241.682C138.843 242.243 137.47 243.217 136.426 244.501C135.382 245.785 134.705 247.33 134.469 248.97C134.046 251.73 133.335 254.703 132.581 257.846C130.887 264.955 128.762 273.815 128.559 285.825C128.513 288.286 129.329 290.684 130.864 292.603C132.398 294.523 134.555 295.842 136.959 296.333C144.267 297.827 151.067 298.133 156.622 297.233C159.03 296.863 161.238 295.672 162.873 293.86C164.508 292.049 165.47 289.727 165.598 287.286C166.157 277.017 164.904 264.352 161.762 248.664C161.457 247.085 160.751 245.613 159.713 244.388C158.675 243.164 157.339 242.228 155.834 241.673C153.366 240.79 150.766 240.336 148.145 240.331H148.162Z" fill="#353535"/>
<path opacity="0.3" d="M146.452 297.284C143.47 296.669 140.796 295.029 138.891 292.647C136.986 290.265 135.97 287.29 136.019 284.237C136.324 266.586 139.618 255.943 140.964 247.194C141.265 245.094 142.129 243.115 143.464 241.47C144.799 239.824 146.555 238.573 148.543 237.851C149.548 237.508 150.571 237.224 151.609 237.001C146.911 235.925 142.004 236.219 137.467 237.851C135.479 238.574 133.724 239.826 132.389 241.471C131.055 243.117 130.19 245.095 129.888 247.194C128.542 255.943 124.02 266.586 123.715 284.237C123.666 287.29 124.682 290.265 126.587 292.647C128.491 295.029 131.166 296.669 134.148 297.284C139.652 298.405 146.655 299.229 153.387 298.371C150.923 298.099 148.569 297.717 146.452 297.284Z" fill="#1C1C1C"/>
<path d="M64.4569 174.891L79.364 164.142L72.6666 154.797L57.7595 165.545L64.4569 174.891Z" fill="#6D6D6D"/>
<path d="M63.8788 178.409L54.2167 164.929L73.2531 151.211L82.9154 164.692L63.8788 178.409ZM61.3384 166.093L65.0645 171.3L75.8444 163.528L72.1185 158.321L61.3384 166.093Z" fill="#353535"/>
<path d="M28.1713 208.425C29.3204 201.378 24.5573 194.732 17.5325 193.579C10.5077 192.427 3.88155 197.204 2.73246 204.251C1.58337 211.297 6.34652 217.943 13.3713 219.096C20.396 220.249 27.0222 215.471 28.1713 208.425Z" fill="#A3A3A3"/>
<path d="M15.4919 221.831C14.641 221.831 13.7915 221.763 12.9514 221.627C8.90884 220.964 5.29466 218.717 2.9038 215.38C0.512945 212.044 -0.458689 207.891 0.202726 203.836C0.86414 199.781 3.10437 196.156 6.43061 193.758C9.75685 191.36 13.8965 190.385 17.9391 191.049C21.7606 191.677 25.207 193.724 27.5937 196.783C29.9804 199.842 31.1329 203.689 30.8226 207.561C30.5123 211.433 28.7619 215.046 25.9187 217.683C23.0755 220.321 19.3475 221.789 15.4749 221.797L15.4919 221.831ZM15.4919 195.975C13.8611 195.976 12.2534 196.363 10.8001 197.105C9.3468 197.847 8.08899 198.923 7.12919 200.246C6.16938 201.568 5.53483 203.1 5.2772 204.715C5.01956 206.33 5.1461 207.984 5.64665 209.541C6.14719 211.098 7.00762 212.514 8.15752 213.674C9.30742 214.834 10.7144 215.705 12.2636 216.215C13.8129 216.726 15.4604 216.863 17.0722 216.613C18.684 216.364 20.2142 215.736 21.538 214.781C23.205 213.584 24.4801 211.918 25.2015 209.993C25.9229 208.068 26.0581 205.972 25.59 203.97C25.1219 201.968 24.0715 200.151 22.5722 198.749C21.0729 197.347 19.1922 196.423 17.1686 196.094C16.6138 196.009 16.0531 195.969 15.4919 195.975Z" fill="#353535"/>
<path d="M80.0022 171.3C87.8171 171.3 94.1524 164.945 94.1524 157.106C94.1524 149.267 87.8171 142.913 80.0022 142.913C72.1872 142.913 65.852 149.267 65.852 157.106C65.852 164.945 72.1872 171.3 80.0022 171.3Z" fill="#A3A3A3"/>
<path d="M80.0191 173.848C79.1114 173.846 78.2054 173.772 77.3093 173.627C73.0595 172.928 69.244 170.607 66.6613 167.15C64.0785 163.693 62.9287 159.368 63.4522 155.081C63.9757 150.793 66.132 146.874 69.4701 144.145C72.8081 141.415 77.0692 140.087 81.3616 140.436C85.6541 140.786 89.6455 142.788 92.5005 146.022C95.3554 149.256 96.8528 153.472 96.6793 157.789C96.5059 162.105 94.6751 166.187 91.5699 169.18C88.4647 172.173 84.3257 173.846 80.0191 173.848ZM80.0191 145.461C77.1031 145.462 74.2942 146.563 72.1509 148.546C70.0076 150.53 68.6868 153.249 68.451 156.165C68.2152 159.08 69.0816 161.977 70.8782 164.281C72.6748 166.585 75.27 168.126 78.1476 168.599C81.1863 169.098 84.2981 168.365 86.7985 166.563C89.299 164.761 90.9834 162.036 91.4808 158.988C91.9783 155.94 91.2482 152.818 89.4512 150.31C87.6543 147.802 84.9377 146.113 81.899 145.614C81.2718 145.512 80.6375 145.461 80.0021 145.461H80.0191Z" fill="#353535"/>
<path d="M80.0022 164.836C84.2581 164.836 87.7083 161.375 87.7083 157.106C87.7083 152.837 84.2581 149.376 80.0022 149.376C75.7463 149.376 72.2963 152.837 72.2963 157.106C72.2963 161.375 75.7463 164.836 80.0022 164.836Z" fill="#CCCCCC"/>
<path d="M80.0277 167.384C77.5857 167.394 75.2203 166.529 73.3584 164.944C71.4966 163.359 70.261 161.159 69.8744 158.74C69.4879 156.321 69.9759 153.844 71.2505 151.755C72.5251 149.665 74.5021 148.102 76.8251 147.346C79.148 146.59 81.6637 146.693 83.9182 147.634C86.1726 148.576 88.0173 150.294 89.1194 152.48C90.2214 154.666 90.5083 157.175 89.9281 159.554C89.3479 161.934 87.9389 164.027 85.9554 165.456C84.2296 166.705 82.1562 167.38 80.0277 167.384ZM80.0277 151.925C78.729 151.921 77.4768 152.409 76.5203 153.29C75.5639 154.171 74.9734 155.382 74.8666 156.68C74.7598 157.978 75.1444 159.269 75.9439 160.296C76.7435 161.322 77.8992 162.009 79.1809 162.219C79.8715 162.389 80.5896 162.414 81.2903 162.293C81.9909 162.171 82.6591 161.906 83.2529 161.513C83.8466 161.121 84.3531 160.61 84.7408 160.012C85.1285 159.414 85.3888 158.742 85.5057 158.039C85.6226 157.335 85.5935 156.615 85.4201 155.923C85.2467 155.232 84.9328 154.583 84.4981 154.019C84.0633 153.455 83.5171 152.986 82.8936 152.643C82.27 152.301 81.5827 152.091 80.8745 152.027C80.5876 151.965 80.2956 151.931 80.0023 151.925H80.0277Z" fill="#353535"/>
<path d="M57.1213 163.791C61.9831 167.134 65.5269 172.077 67.1392 177.764C67.7156 179.8 67.7311 181.955 67.1838 184C66.6366 186.044 65.5472 187.902 64.0314 189.375C57.7312 195.576 51.4986 205.378 37.3822 215.928C34.9429 217.753 31.9448 218.667 28.9054 218.512C25.866 218.357 22.9759 217.142 20.7338 215.078C16.3388 211.001 11.2071 205.336 7.9807 198.846C6.62742 196.147 6.23647 193.064 6.87277 190.111C7.50907 187.157 9.13436 184.512 11.4781 182.614C20.5306 175.3 32.6484 168.709 45.52 162.865C47.3699 162.006 49.4095 161.64 51.4417 161.802C53.4739 161.964 55.4301 162.649 57.1213 163.791Z" fill="white"/>
<path d="M29.5914 221.066C25.6691 221.073 21.8901 219.589 19.0147 216.913C13.0023 211.341 8.52273 205.633 5.70284 199.925C4.07537 196.708 3.60199 193.028 4.36232 189.502C5.12266 185.976 7.07045 182.821 9.87778 180.567C18.202 173.848 29.5153 167.282 44.47 160.478C46.7234 159.449 49.2028 159.017 51.6704 159.225C54.1379 159.434 56.5109 160.275 58.5611 161.667C63.8972 165.349 67.7894 170.779 69.5697 177.025C70.2791 179.503 70.3031 182.129 69.6393 184.62C68.9755 187.111 67.6487 189.374 65.8012 191.167C63.9636 192.977 62.1261 195.109 60.0091 197.58C55.0806 203.305 48.9496 210.432 38.8979 217.966C36.2092 219.977 32.9454 221.065 29.5914 221.066ZM50.4994 164.301C49.1443 164.3 47.8046 164.59 46.5701 165.15C32.0049 171.767 21.0471 178.12 13.0701 184.559C11.1696 186.087 9.85174 188.226 9.33818 190.614C8.82462 193.003 9.1468 195.496 10.2503 197.674C12.7908 202.77 17.0248 208.088 22.4613 213.176C24.2614 214.846 26.5879 215.831 29.0367 215.96C31.4856 216.088 33.9021 215.353 35.8664 213.881C45.4693 206.703 51.4055 199.814 56.19 194.268C58.2985 191.821 60.2885 189.511 62.27 187.557C63.4609 186.411 64.3186 184.961 64.7511 183.363C65.1837 181.765 65.1748 180.079 64.7257 178.486C63.269 173.364 60.0805 168.91 55.7072 165.889C54.1725 164.841 52.3559 164.287 50.4994 164.301Z" fill="#353535"/>
<path opacity="0.3" d="M16.1525 205.989C18.3917 208.056 21.2808 209.272 24.3196 209.427C27.3585 209.582 30.3556 208.667 32.7923 206.839C46.9087 196.289 53.607 187.396 59.8904 181.195C61.4069 179.725 62.4971 177.868 63.0444 175.825C63.5917 173.782 63.5759 171.627 62.9983 169.592C62.6978 168.567 62.3387 167.56 61.9228 166.577C65.524 169.787 68.1407 173.959 69.4679 178.605C70.0432 180.642 70.0573 182.797 69.5086 184.842C68.9599 186.887 67.8689 188.744 66.3516 190.216C60.0598 196.417 54.0812 206.355 39.9733 216.862C37.5352 218.69 34.5365 219.606 31.4963 219.451C28.456 219.296 25.5655 218.08 23.325 216.012C18.5367 211.691 14.4635 206.633 11.2579 201.029C12.8753 202.83 14.5605 204.52 16.1525 205.989Z" fill="#1C1C1C"/>
<path d="M165.564 126.454L152.583 139.476L160.696 147.614L173.678 134.593L165.564 126.454Z" fill="#6D6D6D"/>
<path d="M160.687 151.22L148.984 139.473L165.556 122.85L177.267 134.588L160.687 151.22ZM156.173 139.473L160.687 144.008L170.078 134.588L165.556 130.061L156.173 139.473Z" fill="#353535"/>
<path d="M212.571 104.12C219.689 104.12 225.46 98.332 225.46 91.1921C225.46 84.0522 219.689 78.2642 212.571 78.2642C205.453 78.2642 199.683 84.0522 199.683 91.1921C199.683 98.332 205.453 104.12 212.571 104.12Z" fill="#A3A3A3"/>
<path d="M212.571 106.668C209.52 106.668 206.536 105.761 203.999 104.06C201.462 102.36 199.484 99.9425 198.317 97.1146C197.149 94.2867 196.843 91.175 197.439 88.1729C198.034 85.1709 199.503 82.4132 201.661 80.2488C203.819 78.0845 206.568 76.6105 209.561 76.0133C212.554 75.4162 215.656 75.7227 218.475 76.894C221.295 78.0654 223.704 80.049 225.4 82.594C227.095 85.1391 228 88.1312 228 91.1921C227.996 95.2953 226.369 99.2291 223.476 102.131C220.584 105.032 216.662 106.664 212.571 106.668ZM212.571 80.8124C210.524 80.8124 208.524 81.4211 206.822 82.5617C205.12 83.7022 203.794 85.3233 203.011 87.22C202.228 89.1166 202.023 91.2037 202.422 93.2171C202.821 95.2306 203.807 97.0801 205.254 98.5317C206.701 99.9834 208.545 100.972 210.552 101.372C212.56 101.773 214.64 101.567 216.531 100.782C218.422 99.9962 220.038 98.6658 221.175 96.9589C222.312 95.252 222.919 93.245 222.919 91.1921C222.917 88.4399 221.826 85.8012 219.886 83.8551C217.946 81.909 215.315 80.8146 212.571 80.8124Z" fill="#353535"/>
<path d="M153.7 161.311C161.515 161.311 167.851 154.956 167.851 147.117C167.851 139.278 161.515 132.923 153.7 132.923C145.885 132.923 139.55 139.278 139.55 147.117C139.55 154.956 145.885 161.311 153.7 161.311Z" fill="#A3A3A3"/>
<path d="M153.7 163.851C150.399 163.852 147.17 162.872 144.424 161.033C141.678 159.194 139.538 156.579 138.273 153.519C137.009 150.46 136.678 147.093 137.322 143.845C137.965 140.596 139.555 137.612 141.89 135.27C144.225 132.929 147.199 131.334 150.438 130.688C153.676 130.043 157.033 130.375 160.083 131.643C163.133 132.911 165.74 135.058 167.573 137.813C169.407 140.567 170.384 143.805 170.383 147.117C170.376 151.553 168.616 155.805 165.489 158.942C162.362 162.079 158.123 163.844 153.7 163.851ZM153.7 135.472C151.404 135.47 149.158 136.152 147.248 137.43C145.338 138.709 143.848 140.527 142.968 142.655C142.088 144.783 141.857 147.124 142.304 149.384C142.751 151.644 143.856 153.719 145.48 155.349C147.103 156.978 149.172 158.088 151.424 158.538C153.676 158.988 156.011 158.758 158.133 157.877C160.255 156.996 162.068 155.503 163.345 153.588C164.621 151.673 165.302 149.421 165.302 147.117C165.297 144.032 164.074 141.073 161.899 138.891C159.725 136.708 156.777 135.479 153.7 135.472Z" fill="#353535"/>
<path d="M153.7 154.847C157.956 154.847 161.406 151.386 161.406 147.117C161.406 142.848 157.956 139.388 153.7 139.388C149.444 139.388 145.995 142.848 145.995 147.117C145.995 151.386 149.444 154.847 153.7 154.847Z" fill="#CCCCCC"/>
<path d="M153.7 157.395C151.674 157.395 149.693 156.792 148.008 155.663C146.323 154.533 145.01 152.928 144.234 151.05C143.458 149.172 143.256 147.106 143.651 145.112C144.046 143.118 145.022 141.287 146.455 139.849C147.888 138.412 149.714 137.433 151.701 137.037C153.689 136.64 155.749 136.844 157.622 137.621C159.494 138.399 161.094 139.717 162.22 141.407C163.346 143.097 163.947 145.084 163.947 147.117C163.943 149.841 162.862 152.453 160.941 154.38C159.02 156.306 156.417 157.39 153.7 157.395ZM153.7 141.936C152.679 141.936 151.68 142.239 150.831 142.809C149.981 143.378 149.319 144.187 148.928 145.134C148.537 146.081 148.435 147.123 148.634 148.128C148.834 149.133 149.326 150.056 150.048 150.781C150.77 151.505 151.691 151.999 152.693 152.199C153.695 152.399 154.733 152.296 155.677 151.904C156.621 151.512 157.428 150.848 157.996 149.996C158.563 149.143 158.866 148.142 158.866 147.117C158.864 145.743 158.319 144.427 157.351 143.456C156.382 142.484 155.07 141.938 153.7 141.936Z" fill="#353535"/>
<path d="M163.972 125.542C166.476 130.893 170.765 135.199 176.098 137.714C178.009 138.611 180.127 138.972 182.226 138.759C184.325 138.547 186.327 137.769 188.021 136.508C195.143 131.276 205.804 126.689 218.447 114.423C220.637 112.301 222.017 109.477 222.349 106.442C222.682 103.406 221.946 100.349 220.268 97.8004C216.966 92.7889 212.223 86.7581 206.363 82.5111C203.924 80.7374 200.954 79.8545 197.945 80.009C194.936 80.1635 192.071 81.3462 189.825 83.3605C181.162 91.1411 172.728 102.048 164.895 113.871C163.751 115.572 163.064 117.54 162.902 119.585C162.741 121.63 163.109 123.682 163.972 125.542Z" fill="white"/>
<path d="M181.019 141.384C178.934 141.383 176.877 140.913 174.998 140.008C169.144 137.232 164.433 132.503 161.669 126.629C160.631 124.374 160.187 121.889 160.382 119.413C160.576 116.936 161.401 114.551 162.778 112.487C171.882 98.7773 180.172 88.6354 188.124 81.4919C190.794 79.0742 194.213 77.6537 197.806 77.4695C201.398 77.2854 204.944 78.349 207.846 80.481C212.978 84.193 217.872 89.5443 222.386 96.3905C224.392 99.434 225.274 103.086 224.878 106.713C224.482 110.34 222.834 113.714 220.218 116.25C211.199 124.99 203.197 129.908 196.77 133.866C193.992 135.565 191.604 137.035 189.521 138.564C187.058 140.386 184.08 141.374 181.019 141.384ZM198.582 82.5622C195.972 82.5606 193.455 83.5324 191.519 85.2887C183.898 92.1434 175.87 101.963 167.013 115.307C166.118 116.64 165.58 118.181 165.449 119.783C165.319 121.385 165.6 122.994 166.267 124.455C168.535 129.27 172.399 133.146 177.2 135.421C178.694 136.12 180.35 136.399 181.991 136.229C183.631 136.058 185.195 135.444 186.515 134.452C188.759 132.805 191.358 131.208 194.136 129.517C200.352 125.695 208.092 120.938 216.712 112.589C218.475 110.879 219.586 108.605 219.854 106.161C220.121 103.716 219.528 101.254 218.177 99.202C214.062 92.9589 209.463 87.9134 204.899 84.6177C203.062 83.2811 200.851 82.5617 198.582 82.5622Z" fill="#353535"/>
<path opacity="0.3" d="M212.105 91.7951C213.781 94.3505 214.514 97.4132 214.177 100.453C213.84 103.494 212.454 106.32 210.259 108.443C197.557 120.709 187.768 125.899 180.621 131.131C178.927 132.394 176.924 133.173 174.825 133.385C172.726 133.598 170.608 133.236 168.697 132.337C167.739 131.872 166.809 131.35 165.911 130.774C168.483 134.866 172.167 138.135 176.53 140.194C178.44 141.091 180.556 141.452 182.654 141.24C184.751 141.027 186.753 140.249 188.445 138.988C195.567 133.756 206.271 129.441 218.93 117.167C221.117 115.043 222.495 112.219 222.827 109.185C223.16 106.15 222.425 103.094 220.751 100.544C217.261 95.0788 212.928 90.2047 207.913 86.104C209.522 88.0576 210.911 89.9859 212.105 91.7951Z" fill="#1C1C1C"/>
<path d="M125.307 224.965C140.388 222.715 152.456 214.229 156.91 201.658C151.067 200.72 145.57 198.266 140.964 194.54C138.124 191.998 134.762 190.115 131.115 189.021C127.468 187.928 123.627 187.652 119.862 188.213C116.097 188.773 112.501 190.157 109.329 192.266C106.156 194.375 103.485 197.158 101.503 200.418C98.1741 205.326 93.6266 209.278 88.3095 211.885C96.2187 222.613 110.225 227.208 125.307 224.965Z" fill="white"/>
<path d="M94.2456 182.988C96.6826 178.976 99.9694 175.55 103.873 172.954C107.776 170.357 112.201 168.654 116.834 167.963C121.467 167.273 126.194 167.612 130.682 168.958C135.169 170.304 139.307 172.623 142.802 175.751C149.136 180.847 156.969 189.341 163.303 190.386C165.48 184.262 166.809 181.544 165.691 173.992C161.754 147.389 137.543 128.974 111.631 132.821C85.7182 136.669 67.2746 157.182 71.2123 183.786C72.1452 190.719 74.7785 197.312 78.876 202.974C84.6597 200.18 89.6982 189.749 94.2456 182.988Z" fill="white"/>
<path d="M83.4827 199.67L92.0862 210.194C92.0862 210.194 99.2333 205.854 101.57 200.851C103.908 195.848 114.273 188.653 119.921 188.645C125.569 188.636 132.809 188.56 144.174 197.232C147.183 199.537 150.89 200.737 154.674 200.63L158.578 188.619C158.578 188.619 147.197 180.235 142.895 176.141C138.593 172.047 126.027 167.07 118.236 168.225C110.445 169.38 99.8008 174.646 94.3304 183.378C88.86 192.11 85.0069 198.09 83.4827 199.67Z" fill="#00FFB6"/>
<path d="M135.651 170.96L129.549 169.817L125.942 189.206L132.044 190.348L135.651 170.96Z" fill="#00996A"/>
<path d="M147.965 177.857L142.315 175.278L134.823 191.792L140.472 194.371L147.965 177.857Z" fill="#00996A"/>
<path d="M153.856 185.741L149.778 183.879L144.373 195.793L148.451 197.654L153.856 185.741Z" fill="#00996A"/>
<path d="M109.185 194.262L114.691 191.389L105.618 173.891L100.111 176.764L109.185 194.262Z" fill="#00996A"/>
<path d="M102.358 200.525L107.015 196.409L95.058 182.795L90.4006 186.911L102.358 200.525Z" fill="#00996A"/>
<path d="M95.6799 205.981L99.0412 203.011L90.4149 193.189L87.0536 196.16L95.6799 205.981Z" fill="#00996A"/>
<path d="M120.855 168.738L114.716 169.653L117.605 189.162L123.745 188.247L120.855 168.738Z" fill="#00996A"/>
<path d="M117.169 228.567C104.035 228.567 93.111 223.7 86.455 214.67C86.2329 214.371 86.0792 214.026 86.0048 213.66C85.9303 213.294 85.9369 212.916 86.0242 212.553C86.1114 212.19 86.2771 211.85 86.5096 211.559C86.7421 211.267 87.0356 211.03 87.3695 210.865C91.5188 208.826 95.9308 204.647 99.462 199.423C101.64 195.867 104.568 192.832 108.04 190.531C111.512 188.231 115.444 186.721 119.56 186.107C123.676 185.493 127.875 185.791 131.864 186.979C135.853 188.168 139.535 190.217 142.649 192.985C146.915 196.429 152.003 198.698 157.41 199.568C157.781 199.626 158.134 199.767 158.445 199.979C158.756 200.191 159.016 200.469 159.206 200.794C159.396 201.119 159.512 201.483 159.546 201.858C159.579 202.234 159.529 202.612 159.399 202.965C154.717 216.157 142.15 225.5 125.764 227.938C122.919 228.362 120.046 228.572 117.169 228.567ZM92.3658 213.863C99.5468 221.644 111.25 224.906 124.994 222.876C138.305 220.888 148.704 213.906 153.455 203.951C148.33 202.664 143.546 200.276 139.432 196.952C136.866 194.631 133.82 192.908 130.512 191.906C127.205 190.905 123.717 190.65 120.299 191.158C116.882 191.667 113.619 192.928 110.744 194.85C107.869 196.773 105.454 199.309 103.671 202.277C100.689 206.84 96.8491 210.775 92.3658 213.863Z" fill="#353535"/>
<path d="M79.0029 205.956C78.6064 205.956 78.2152 205.863 77.8609 205.685C77.5065 205.506 77.1988 205.247 76.9622 204.928C72.6168 198.929 69.8235 191.942 68.8327 184.593C64.8442 157.65 82.7373 135.005 111.385 130.732C138.652 126.672 164.192 146.098 168.333 174.052C169.451 181.595 168.223 185.026 166.36 190.191L165.835 191.66C165.643 192.229 165.256 192.712 164.743 193.023C164.23 193.334 163.624 193.453 163.032 193.359C157.536 192.509 151.761 187.337 146.181 182.368C144.487 180.856 142.861 179.42 141.337 178.188C138.115 175.279 134.292 173.12 130.141 171.865C125.991 170.61 121.615 170.291 117.327 170.929C113.039 171.568 108.944 173.149 105.336 175.56C101.728 177.97 98.696 181.151 96.4558 184.873C95.355 186.496 94.2287 188.339 93.0686 190.284C89.1648 196.663 85.1339 203.255 80.1292 205.718C79.7775 205.884 79.3917 205.966 79.0029 205.956ZM118.608 135.293C116.44 135.292 114.275 135.451 112.13 135.769C86.3957 139.608 70.2976 159.824 73.8542 183.837C74.6374 189.549 76.6266 195.028 79.6889 199.908C82.7882 197.309 85.9214 192.195 88.7328 187.591C89.9522 185.595 91.1123 183.71 92.2724 181.985C94.9079 177.682 98.4507 174.01 102.652 171.227C106.853 168.443 111.611 166.616 116.591 165.874C121.571 165.132 126.653 165.492 131.48 166.93C136.306 168.368 140.76 170.848 144.529 174.196C146.138 175.504 147.798 176.974 149.551 178.528C153.607 182.138 158.112 186.173 161.855 187.71C163.49 183.14 164.192 180.754 163.312 174.799C159.874 151.865 140.507 135.293 118.566 135.293H118.608Z" fill="#353535"/>
<path d="M92.0862 212.742C91.7102 212.742 91.3389 212.658 90.9992 212.497C90.6594 212.335 90.3597 212.1 90.1215 211.808L81.5434 201.284C81.3206 201.027 81.1514 200.727 81.046 200.403C80.9406 200.079 80.9011 199.737 80.9298 199.397C80.9586 199.058 81.0549 198.727 81.2133 198.426C81.3716 198.124 81.5888 197.857 81.8517 197.641C82.1146 197.425 82.418 197.264 82.744 197.168C83.07 197.072 83.4119 197.042 83.7496 197.081C84.0872 197.12 84.4137 197.226 84.7097 197.393C85.0056 197.561 85.265 197.786 85.4725 198.056L94.0763 208.572C94.3834 208.945 94.5782 209.398 94.638 209.878C94.6979 210.358 94.6202 210.845 94.4141 211.283C94.2081 211.72 93.8822 212.09 93.4745 212.348C93.0667 212.607 92.594 212.743 92.1116 212.742H92.0862Z" fill="#353535"/>
<path d="M152.803 203.688C152.471 203.689 152.143 203.623 151.837 203.492C151.529 203.365 151.248 203.177 151.012 202.941C150.775 202.705 150.587 202.424 150.459 202.115C150.331 201.805 150.265 201.474 150.265 201.139C150.264 200.804 150.329 200.472 150.457 200.163L155.64 187.592C155.897 186.966 156.391 186.469 157.013 186.21C157.636 185.95 158.336 185.949 158.959 186.207C159.582 186.465 160.078 186.961 160.337 187.585C160.596 188.209 160.597 188.911 160.339 189.537L155.148 202.116C154.956 202.581 154.631 202.979 154.213 203.259C153.796 203.538 153.305 203.688 152.803 203.688Z" fill="#353535"/>
<path d="M125.637 75.5885C129.987 75.5885 133.512 72.0519 133.512 67.6891C133.512 63.3263 129.987 59.7896 125.637 59.7896C121.288 59.7896 117.762 63.3263 117.762 67.6891C117.762 72.0519 121.288 75.5885 125.637 75.5885Z" fill="#1C1C1C"/>
<path d="M126.535 67.4597C128.251 67.4597 129.642 66.064 129.642 64.3424C129.642 62.6207 128.251 61.2251 126.535 61.2251C124.818 61.2251 123.427 62.6207 123.427 64.3424C123.427 66.064 124.818 67.4597 126.535 67.4597Z" fill="white"/>
<path d="M67.173 92.8826C71.5225 92.8826 75.0484 89.3458 75.0484 84.983C75.0484 80.6203 71.5225 77.0835 67.173 77.0835C62.8236 77.0835 59.2976 80.6203 59.2976 84.983C59.2976 89.3458 62.8236 92.8826 67.173 92.8826Z" fill="#1C1C1C"/>
<path d="M68.0707 84.7535C69.7871 84.7535 71.1784 83.3578 71.1784 81.6362C71.1784 79.9145 69.7871 78.5189 68.0707 78.5189C66.3543 78.5189 64.9628 79.9145 64.9628 81.6362C64.9628 83.3578 66.3543 84.7535 68.0707 84.7535Z" fill="white"/>
<path d="M95.8546 115.774C91.6837 115.834 87.5342 115.164 83.5927 113.795C83.0706 113.588 82.6519 113.181 82.4288 112.664C82.2056 112.147 82.1963 111.562 82.4029 111.038C82.6095 110.515 83.0152 110.095 83.5305 109.871C84.0458 109.647 84.6288 109.638 85.1509 109.845C86.057 110.202 106.719 117.948 125.375 97.5286C125.562 97.3234 125.788 97.1571 126.039 97.0394C126.291 96.9217 126.563 96.8548 126.84 96.8426C127.117 96.8304 127.394 96.8731 127.655 96.9682C127.915 97.0633 128.155 97.209 128.36 97.3969C128.564 97.5849 128.73 97.8115 128.847 98.0636C128.965 98.3158 129.031 98.5887 129.043 98.8667C129.056 99.1447 129.013 99.4225 128.918 99.6841C128.824 99.9456 128.678 100.186 128.491 100.391C117.711 112.198 106.127 115.239 98.302 115.68C97.4636 115.748 96.6421 115.774 95.8546 115.774Z" fill="#1C1C1C"/>
<path d="M163.32 59.9595C171.221 101.682 144.106 128.762 105.737 136.1C67.3678 143.439 32.225 128.158 24.3327 86.427C16.4404 44.6956 41.65 10.8297 80.0361 3.49084C118.422 -3.84804 155.42 18.2281 163.32 59.9595Z" fill="white"/>
<path d="M124.731 11.1526C122.267 32.8125 108.709 50.4802 89.5882 54.1157C70.4671 57.7511 51.4054 46.3096 41.1928 27.0536C41.1928 27.0536 51.202 8.81673 79.9767 3.32956C108.751 -2.15762 124.731 11.1526 124.731 11.1526Z" fill="#00FFB6"/>
<path opacity="0.3" d="M133.758 11.4243C143.462 22.3307 153.015 39.4548 155.953 54.948C163.854 96.6793 136.739 123.75 98.3697 131.089C76.2001 135.336 52.6417 128.736 37.2889 117.159C52.7094 135.846 78.1477 141.91 105.22 136.754C143.606 129.441 170.713 102.336 162.804 60.6134C159.2 41.2972 148.914 23.8772 133.758 11.4243Z" fill="#1C1C1C"/>
<path d="M115.907 5.14722C112.74 25.7029 99.5043 42.1984 81.0946 45.7064C70.086 47.796 59.1368 44.857 49.8557 38.41C60.4578 49.7921 74.9044 55.704 89.3849 52.9434C108.506 49.2994 122.055 31.6402 124.519 9.9803C121.879 7.98701 118.982 6.36127 115.907 5.14722Z" fill="#00D895"/>
<path d="M87.4712 140.857C53.2261 140.857 28.2959 121.125 21.894 87.3443C18.0071 66.7972 21.8939 46.8021 32.8009 31.0371C43.4538 15.6628 60.0768 5.14716 79.6297 1.42675C99.1826 -2.29365 118.753 1.31633 134.571 11.6196C150.889 22.2712 162.016 39.4207 165.903 59.8999C173.423 99.6352 150.017 130.69 106.279 139.022C100.081 140.223 93.7838 140.837 87.4712 140.857ZM94.6437 5.06224C89.9236 5.06601 85.2144 5.51531 80.5782 6.40427C42.0821 13.7347 19.5059 47.3627 26.8816 86.3675C30.4637 105.284 40.1513 119.622 54.8943 127.836C68.6974 135.523 86.1333 137.655 105.331 134.002C124.528 130.35 139.957 121.958 149.991 109.726C160.712 96.6623 164.48 79.7591 160.907 60.8428C157.282 41.7396 146.951 25.7708 131.802 15.8837C120.725 8.73568 107.814 4.97565 94.6437 5.06224Z" fill="#353535"/>
<path d="M82.6189 57.2753C65.4371 57.2753 48.5516 46.2925 38.9656 28.2086L43.4453 25.8132C53.37 44.5002 71.7288 54.88 89.1224 51.5673C106.516 48.2547 119.819 31.8781 122.207 10.7958L127.288 11.3733C124.638 34.6726 109.692 52.8245 90.0963 56.5619C87.6315 57.0328 85.1281 57.2716 82.6189 57.2753Z" fill="#353535"/>
<path d="M149.001 26.7562L155.148 25.584C156.972 25.233 158.86 25.5446 160.475 26.4628C162.091 27.3811 163.327 28.8461 163.964 30.5955C166.851 38.495 171.534 52.6037 173.338 65.1409C173.631 67.1478 173.139 69.1906 171.965 70.8418C170.79 72.493 169.025 73.6247 167.038 74.0002L164.768 74.4334C164.768 74.4334 162.397 43.481 149.001 26.7562Z" fill="#606060"/>
<path d="M162.448 77.4743L162.236 74.6287C162.236 74.3314 159.755 44.2539 146.994 28.3445L144.352 25.0404L154.649 23.0782C157.065 22.6105 159.568 23.0224 161.709 24.2399C163.849 25.4574 165.486 27.4006 166.327 29.7205C169.079 37.2632 173.948 51.8051 175.828 64.7756C176.217 67.4329 175.566 70.1384 174.011 72.3251C172.456 74.5117 170.118 76.0101 167.487 76.5059L162.448 77.4743ZM153.421 28.5059C162.973 42.9458 166.123 63.8073 166.97 71.3925C168.211 71.0446 169.283 70.2551 169.986 69.1717C170.689 68.0883 170.975 66.7852 170.789 65.5061C168.994 53.0283 164.226 38.8262 161.542 31.4703C161.116 30.2912 160.286 29.3024 159.2 28.6801C158.114 28.0578 156.843 27.8425 155.614 28.0727L153.421 28.5059Z" fill="#353535"/>
<path d="M24.2395 53.5804L17.465 54.8716C15.8119 55.1869 14.3239 56.0806 13.2663 57.3934C12.2087 58.7063 11.65 60.3531 11.6897 62.0405C11.876 70.5346 12.6636 86.2826 15.8053 99.0747C16.2465 100.834 17.3429 102.357 18.8692 103.33C20.3955 104.303 22.2355 104.653 24.0109 104.307L26.9832 103.746C26.9832 103.746 17.8884 74.0682 24.2395 53.5804Z" fill="#606060"/>
<path d="M22.6815 106.983C20.5393 106.985 18.4581 106.268 16.7697 104.946C15.0814 103.623 13.8832 101.771 13.3666 99.6862C10.1487 86.6053 9.36117 70.5176 9.17488 62.0915C9.11788 59.7992 9.8766 57.5614 11.3151 55.7792C12.7535 53.997 14.7777 52.7869 17.0249 52.3657L27.9317 50.2932L26.6784 54.3449C20.6407 73.8218 29.3459 102.71 29.4306 102.999L30.2774 105.717L24.519 106.813C23.9134 106.929 23.2981 106.986 22.6815 106.983ZM20.7762 56.8676L17.9562 57.4028C16.894 57.604 15.9377 58.1775 15.2582 59.0209C14.5788 59.8643 14.2205 60.9225 14.2473 62.0065C14.4251 70.2202 15.1957 85.8833 18.2866 98.531C18.5723 99.6581 19.2772 100.633 20.2566 101.255C21.2361 101.877 22.4158 102.1 23.5538 101.878L23.7994 101.827C21.8432 94.4029 17.1857 73.7793 20.7762 56.8421V56.8676Z" fill="#353535"/>
<g opacity="0.4">
<path d="M173.059 64.9284C172.247 59.5623 171.116 54.2497 169.671 49.019C169.556 50.7564 168.869 52.4061 167.718 53.7097C166.567 55.0132 165.017 55.8968 163.312 56.222L161.618 56.5363C162.984 62.3607 163.949 68.2723 164.506 74.2294L166.784 73.7962C168.765 73.4092 170.522 72.2724 171.69 70.6215C172.858 68.9705 173.348 66.932 173.059 64.9284Z" fill="#353535"/>
</g>
<g opacity="0.4">
<path d="M22.9355 86.0192L20.2679 86.5288C18.8392 86.8008 17.3617 86.6275 16.034 86.0323C14.7064 85.437 13.5924 84.4484 12.8415 83.1992C13.4174 88.4736 14.3167 93.7073 15.5344 98.8707C15.9774 100.631 17.0754 102.154 18.603 103.127C20.1307 104.1 21.9719 104.449 23.7484 104.103L26.7123 103.534C25.0572 97.7888 23.7953 91.9369 22.9355 86.0192Z" fill="#353535"/>
</g>
<path d="M137.433 63.6714C138.194 65.4425 138.414 67.4 138.065 69.2965C137.717 71.1929 136.815 72.9431 135.475 74.3258C134.135 75.7085 132.416 76.6617 130.536 77.0647C128.656 77.4677 126.699 77.3025 124.913 76.59C123.126 75.8775 121.591 74.6497 120.5 73.0618C119.409 71.4739 118.812 69.5972 118.784 67.669C118.757 65.7408 119.3 63.8476 120.344 62.2289C121.389 60.6102 122.889 59.3387 124.655 58.575C125.827 58.0654 127.088 57.793 128.366 57.7735C129.643 57.7539 130.912 57.9876 132.099 58.4611C133.286 58.9346 134.369 59.6386 135.284 60.5327C136.199 61.4268 136.93 62.4935 137.433 63.6714Z" fill="#1C1C1C"/>
<path d="M128.847 65.1237L129.007 65.5059C129.306 66.0882 129.816 66.5331 130.432 66.7482C131.049 66.9633 131.724 66.9322 132.318 66.6612C132.9 66.3635 133.346 65.8522 133.562 65.2337C133.778 64.6152 133.748 63.937 133.479 63.34L133.309 62.9577C133.176 62.6493 132.983 62.3711 132.74 62.1397C132.497 61.9083 132.21 61.7286 131.897 61.6114C131.583 61.4942 131.249 61.442 130.914 61.4578C130.58 61.4737 130.252 61.5573 129.95 61.7036C129.649 61.8499 129.38 62.0558 129.16 62.3091C128.94 62.5624 128.774 62.8577 128.671 63.1773C128.567 63.4969 128.53 63.834 128.56 64.1685C128.59 64.5031 128.688 64.828 128.847 65.1237Z" fill="white"/>
<path d="M69.3325 77.5847C70.0922 79.3556 70.3114 81.3127 69.9626 83.2086C69.6138 85.1045 68.7126 86.8542 67.3728 88.2365C66.033 89.6188 64.3147 90.5716 62.4352 90.9747C60.5556 91.3778 58.599 91.213 56.8128 90.5011C55.0266 89.7891 53.4909 88.5621 52.3997 86.975C51.3086 85.3878 50.7109 83.5119 50.6823 81.5841C50.6537 79.6564 51.1955 77.7635 52.2391 76.1445C53.2827 74.5255 54.7812 73.2532 56.5455 72.4883C58.915 71.4634 61.5932 71.4246 63.9911 72.3803C66.3891 73.3361 68.3105 75.2081 69.3325 77.5847Z" fill="#1C1C1C"/>
<path d="M65.9537 77.9924L65.7841 77.6101C65.4858 77.0277 64.9757 76.583 64.3593 76.3679C63.7428 76.1528 63.0673 76.1839 62.4732 76.4549C61.8926 76.7541 61.4492 77.266 61.2348 77.8843C61.0204 78.5027 61.0515 79.1801 61.3216 79.7761C61.3724 79.9035 61.4232 80.0309 61.4825 80.1583C61.7807 80.7406 62.2911 81.1855 62.9075 81.4006C63.524 81.6157 64.1992 81.5845 64.7934 81.3136C65.3755 81.0159 65.8207 80.5046 66.0368 79.8861C66.2528 79.2676 66.2232 78.5894 65.9537 77.9924Z" fill="white"/>
<path d="M112.537 94.3178C111.454 96.9487 109.731 99.2659 107.527 101.059C105.323 102.851 102.706 104.062 99.9161 104.581C97.126 105.101 94.2507 104.911 91.552 104.031C88.8533 103.151 86.417 101.608 84.4649 99.5417C81.7636 96.7132 77.2163 100.765 79.9261 103.61C82.5572 106.53 85.8929 108.72 89.6124 109.972C93.3318 111.224 97.3098 111.495 101.164 110.759C105.018 110.023 108.618 108.304 111.619 105.768C114.619 103.232 116.918 99.9649 118.295 96.28C119.785 92.636 114.019 90.6993 112.537 94.3178Z" fill="#1C1C1C"/>
</svg>
