<svg width="363" height="295" viewBox="0 0 363 295" fill="none" xmlns="http://www.w3.org/2000/svg">
<g clip-path="url(#clip0_8_1432)">
<path d="M2.41854 210.674C3.75426 210.674 4.83708 209.591 4.83708 208.255C4.83708 206.92 3.75426 205.837 2.41854 205.837C1.08282 205.837 0 206.92 0 208.255C0 209.591 1.08282 210.674 2.41854 210.674Z" fill="#FBE1BF"/>
<path d="M64.9322 210.674C66.2679 210.674 67.3507 209.591 67.3507 208.255C67.3507 206.92 66.2679 205.837 64.9322 205.837C63.5965 205.837 62.5137 206.92 62.5137 208.255C62.5137 209.591 63.5965 210.674 64.9322 210.674Z" fill="#FBE1BF"/>
<path d="M23.2564 210.674C24.5922 210.674 25.675 209.591 25.675 208.255C25.675 206.92 24.5922 205.837 23.2564 205.837C21.9207 205.837 20.8379 206.92 20.8379 208.255C20.8379 209.591 21.9207 210.674 23.2564 210.674Z" fill="#FBE1BF"/>
<path d="M85.7701 210.674C87.1058 210.674 88.1886 209.591 88.1886 208.255C88.1886 206.92 87.1058 205.837 85.7701 205.837C84.4344 205.837 83.3516 206.92 83.3516 208.255C83.3516 209.591 84.4344 210.674 85.7701 210.674Z" fill="#FBE1BF"/>
<path d="M44.0943 210.674C45.43 210.674 46.5129 209.591 46.5129 208.255C46.5129 206.92 45.43 205.837 44.0943 205.837C42.7586 205.837 41.6758 206.92 41.6758 208.255C41.6758 209.591 42.7586 210.674 44.0943 210.674Z" fill="#FBE1BF"/>
<path d="M106.608 210.674C107.944 210.674 109.027 209.591 109.027 208.255C109.027 206.92 107.944 205.837 106.608 205.837C105.272 205.837 104.189 206.92 104.189 208.255C104.189 209.591 105.272 210.674 106.608 210.674Z" fill="#FBE1BF"/>
<path d="M2.42245 189.837C3.75817 189.837 4.84099 188.754 4.84099 187.419C4.84099 186.083 3.75817 185 2.42245 185C1.08672 185 0.00390625 186.083 0.00390625 187.419C0.00390625 188.754 1.08672 189.837 2.42245 189.837Z" fill="#FBE1BF"/>
<path d="M64.9361 189.837C66.2718 189.837 67.3547 188.754 67.3547 187.419C67.3547 186.083 66.2718 185 64.9361 185C63.6004 185 62.5176 186.083 62.5176 187.419C62.5176 188.754 63.6004 189.837 64.9361 189.837Z" fill="#FBE1BF"/>
<path d="M23.2603 189.837C24.5961 189.837 25.6789 188.754 25.6789 187.419C25.6789 186.083 24.5961 185 23.2603 185C21.9246 185 20.8418 186.083 20.8418 187.419C20.8418 188.754 21.9246 189.837 23.2603 189.837Z" fill="#FBE1BF"/>
<path d="M85.774 189.837C87.1097 189.837 88.1926 188.754 88.1926 187.419C88.1926 186.083 87.1097 185 85.774 185C84.4383 185 83.3555 186.083 83.3555 187.419C83.3555 188.754 84.4383 189.837 85.774 189.837Z" fill="#FBE1BF"/>
<path d="M44.0982 189.837C45.434 189.837 46.5168 188.754 46.5168 187.419C46.5168 186.083 45.434 185 44.0982 185C42.7625 185 41.6797 186.083 41.6797 187.419C41.6797 188.754 42.7625 189.837 44.0982 189.837Z" fill="#FBE1BF"/>
<path d="M106.612 189.837C107.948 189.837 109.03 188.754 109.03 187.419C109.03 186.083 107.948 185 106.612 185C105.276 185 104.193 186.083 104.193 187.419C104.193 188.754 105.276 189.837 106.612 189.837Z" fill="#FBE1BF"/>
<path d="M2.41854 231.511C3.75426 231.511 4.83708 230.429 4.83708 229.093C4.83708 227.757 3.75426 226.674 2.41854 226.674C1.08282 226.674 0 227.757 0 229.093C0 230.429 1.08282 231.511 2.41854 231.511Z" fill="#FBE1BF"/>
<path d="M64.9322 231.511C66.2679 231.511 67.3507 230.429 67.3507 229.093C67.3507 227.757 66.2679 226.674 64.9322 226.674C63.5965 226.674 62.5137 227.757 62.5137 229.093C62.5137 230.429 63.5965 231.511 64.9322 231.511Z" fill="#FBE1BF"/>
<path d="M23.2564 231.511C24.5922 231.511 25.675 230.429 25.675 229.093C25.675 227.757 24.5922 226.674 23.2564 226.674C21.9207 226.674 20.8379 227.757 20.8379 229.093C20.8379 230.429 21.9207 231.511 23.2564 231.511Z" fill="#FBE1BF"/>
<path d="M85.7701 231.511C87.1058 231.511 88.1886 230.429 88.1886 229.093C88.1886 227.757 87.1058 226.674 85.7701 226.674C84.4344 226.674 83.3516 227.757 83.3516 229.093C83.3516 230.429 84.4344 231.511 85.7701 231.511Z" fill="#FBE1BF"/>
<path d="M44.0943 231.511C45.43 231.511 46.5129 230.429 46.5129 229.093C46.5129 227.757 45.43 226.674 44.0943 226.674C42.7586 226.674 41.6758 227.757 41.6758 229.093C41.6758 230.429 42.7586 231.511 44.0943 231.511Z" fill="#FBE1BF"/>
<path d="M106.608 231.511C107.944 231.511 109.027 230.429 109.027 229.093C109.027 227.757 107.944 226.674 106.608 226.674C105.272 226.674 104.189 227.757 104.189 229.093C104.189 230.429 105.272 231.511 106.608 231.511Z" fill="#FBE1BF"/>
<path d="M2.41854 252.348C3.75426 252.348 4.83708 251.265 4.83708 249.93C4.83708 248.594 3.75426 247.511 2.41854 247.511C1.08282 247.511 0 248.594 0 249.93C0 251.265 1.08282 252.348 2.41854 252.348Z" fill="#FBE1BF"/>
<path d="M64.9322 252.348C66.2679 252.348 67.3507 251.265 67.3507 249.93C67.3507 248.594 66.2679 247.511 64.9322 247.511C63.5965 247.511 62.5137 248.594 62.5137 249.93C62.5137 251.265 63.5965 252.348 64.9322 252.348Z" fill="#FBE1BF"/>
<path d="M23.2564 252.348C24.5922 252.348 25.675 251.265 25.675 249.93C25.675 248.594 24.5922 247.511 23.2564 247.511C21.9207 247.511 20.8379 248.594 20.8379 249.93C20.8379 251.265 21.9207 252.348 23.2564 252.348Z" fill="#FBE1BF"/>
<path d="M85.7701 252.348C87.1058 252.348 88.1886 251.265 88.1886 249.93C88.1886 248.594 87.1058 247.511 85.7701 247.511C84.4344 247.511 83.3516 248.594 83.3516 249.93C83.3516 251.265 84.4344 252.348 85.7701 252.348Z" fill="#FBE1BF"/>
<path d="M44.0943 252.348C45.43 252.348 46.5129 251.265 46.5129 249.93C46.5129 248.594 45.43 247.511 44.0943 247.511C42.7586 247.511 41.6758 248.594 41.6758 249.93C41.6758 251.265 42.7586 252.348 44.0943 252.348Z" fill="#FBE1BF"/>
<path d="M106.608 252.348C107.944 252.348 109.027 251.265 109.027 249.93C109.027 248.594 107.944 247.511 106.608 247.511C105.272 247.511 104.189 248.594 104.189 249.93C104.189 251.265 105.272 252.348 106.608 252.348Z" fill="#FBE1BF"/>
<path d="M2.41854 273.185C3.75426 273.185 4.83708 272.102 4.83708 270.767C4.83708 269.431 3.75426 268.348 2.41854 268.348C1.08282 268.348 0 269.431 0 270.767C0 272.102 1.08282 273.185 2.41854 273.185Z" fill="#FBE1BF"/>
<path d="M64.9322 273.185C66.2679 273.185 67.3507 272.102 67.3507 270.767C67.3507 269.431 66.2679 268.348 64.9322 268.348C63.5965 268.348 62.5137 269.431 62.5137 270.767C62.5137 272.102 63.5965 273.185 64.9322 273.185Z" fill="#FBE1BF"/>
<path d="M23.2564 273.185C24.5922 273.185 25.675 272.102 25.675 270.767C25.675 269.431 24.5922 268.348 23.2564 268.348C21.9207 268.348 20.8379 269.431 20.8379 270.767C20.8379 272.102 21.9207 273.185 23.2564 273.185Z" fill="#FBE1BF"/>
<path d="M85.7701 273.185C87.1058 273.185 88.1886 272.102 88.1886 270.767C88.1886 269.431 87.1058 268.348 85.7701 268.348C84.4344 268.348 83.3516 269.431 83.3516 270.767C83.3516 272.102 84.4344 273.185 85.7701 273.185Z" fill="#FBE1BF"/>
<path d="M44.0943 273.185C45.43 273.185 46.5129 272.102 46.5129 270.767C46.5129 269.431 45.43 268.348 44.0943 268.348C42.7586 268.348 41.6758 269.431 41.6758 270.767C41.6758 272.102 42.7586 273.185 44.0943 273.185Z" fill="#FBE1BF"/>
<path d="M106.608 273.185C107.944 273.185 109.027 272.102 109.027 270.767C109.027 269.431 107.944 268.348 106.608 268.348C105.272 268.348 104.189 269.431 104.189 270.767C104.189 272.102 105.272 273.185 106.608 273.185Z" fill="#FBE1BF"/>
<path d="M2.41854 294.023C3.75426 294.023 4.83708 292.94 4.83708 291.604C4.83708 290.268 3.75426 289.186 2.41854 289.186C1.08282 289.186 0 290.268 0 291.604C0 292.94 1.08282 294.023 2.41854 294.023Z" fill="#FBE1BF"/>
<path d="M64.9322 294.023C66.2679 294.023 67.3507 292.94 67.3507 291.604C67.3507 290.268 66.2679 289.186 64.9322 289.186C63.5965 289.186 62.5137 290.268 62.5137 291.604C62.5137 292.94 63.5965 294.023 64.9322 294.023Z" fill="#FBE1BF"/>
<path d="M23.2564 294.023C24.5922 294.023 25.675 292.94 25.675 291.604C25.675 290.268 24.5922 289.186 23.2564 289.186C21.9207 289.186 20.8379 290.268 20.8379 291.604C20.8379 292.94 21.9207 294.023 23.2564 294.023Z" fill="#FBE1BF"/>
<path d="M85.7701 294.023C87.1058 294.023 88.1886 292.94 88.1886 291.604C88.1886 290.268 87.1058 289.186 85.7701 289.186C84.4344 289.186 83.3516 290.268 83.3516 291.604C83.3516 292.94 84.4344 294.023 85.7701 294.023Z" fill="#FBE1BF"/>
<path d="M44.0943 294.023C45.43 294.023 46.5129 292.94 46.5129 291.604C46.5129 290.268 45.43 289.186 44.0943 289.186C42.7586 289.186 41.6758 290.268 41.6758 291.604C41.6758 292.94 42.7586 294.023 44.0943 294.023Z" fill="#FBE1BF"/>
<path d="M106.608 294.023C107.944 294.023 109.027 292.94 109.027 291.604C109.027 290.268 107.944 289.186 106.608 289.186C105.272 289.186 104.189 290.268 104.189 291.604C104.189 292.94 105.272 294.023 106.608 294.023Z" fill="#FBE1BF"/>
</g>
<path opacity="0.28" d="M310.861 82.9235C313.498 81.615 315.996 79.8935 318.268 77.8206C320.505 75.7263 322.511 73.3446 324.23 70.7439C325.944 68.2274 327.405 65.5402 328.581 62.7405C329.767 59.9463 330.523 57.0223 330.814 54.1022C330.955 52.6302 330.901 51.178 330.655 49.7905C330.417 48.3422 329.878 47.0215 329.076 45.9222C328.168 44.7084 326.859 43.9325 325.361 43.7182C323.815 43.5439 322.185 43.8668 320.658 44.6493C319.941 44.998 319.242 45.4066 318.568 45.8708C317.934 46.3349 317.317 46.8315 316.72 47.3587C316.145 47.8644 315.594 48.4057 315.073 48.9792L314.244 49.8428L313.517 50.7101C311.698 52.9481 310.055 55.3416 308.613 57.8569C307.171 60.3055 306.025 62.9117 305.208 65.5981C304.435 68.1464 303.99 70.7455 303.887 73.3143L303.839 74.2426L303.869 75.1532C303.885 75.751 303.9 76.3738 303.93 76.9493C304.013 78.111 304.153 79.2573 304.349 80.3837C304.466 81.0353 304.615 81.6766 304.764 82.318C304.18 82.477 303.643 82.5784 303.017 82.729C300.708 83.1854 298.403 83.3053 296.164 83.0855C294.027 82.8443 291.99 82.2373 290.123 81.2854C286.626 79.3369 283.712 76.4634 281.599 72.8808C279.623 69.5217 278.134 65.7976 277.176 61.8159C276.286 58.1749 275.683 54.4125 275.37 50.5653C275.062 47.2019 274.966 43.783 275.081 40.3314C275.227 35.2744 276.134 30.1435 277.766 25.1422C278.998 21.5623 280.076 19.6181 279.882 19.6043C279.531 20.0027 279.235 20.4528 279.006 20.9357C278.271 22.2535 277.622 23.6156 277.065 25.0097C275.131 30.0578 273.987 35.3014 273.688 40.4953C273.451 44.0418 273.438 47.5625 273.65 51.032C273.862 55.0098 274.377 58.9089 275.192 62.6902C276.092 66.9023 277.562 70.8548 279.556 74.4299C281.75 78.3804 284.84 81.5692 288.586 83.7487C290.652 84.8667 292.917 85.5959 295.301 85.9106C297.799 86.2077 300.378 86.1145 302.967 85.6336C303.859 85.4813 304.75 85.2746 305.636 85.0142C306.412 87.3774 307.394 89.6238 308.571 91.7261C311.75 97.2826 315.748 102.155 320.434 106.187C323.807 109.138 327.439 111.745 331.294 113.981C335.543 116.498 340.105 118.457 344.901 119.822L346.421 120.178L344.889 120.725C343.25 121.358 341.684 122.065 340.197 122.755C337.575 124.012 335.014 125.474 332.536 127.128C328.295 129.961 325.993 132.237 326.174 132.558C326.355 132.879 328.985 131.306 333.214 129.065C335.349 127.962 337.883 126.679 340.741 125.469C342.176 124.853 343.681 124.251 345.241 123.685C346.03 123.408 346.828 123.124 347.636 122.859C348.044 122.724 348.41 122.63 349.005 122.389C349.787 122.095 350.499 121.541 351.035 120.812C351.314 120.416 351.524 119.973 351.651 119.512C351.747 119.15 351.799 118.783 351.808 118.422C351.809 117.889 351.756 117.368 351.652 116.866C351.51 116.058 351.348 115.264 351.206 114.481C350.897 112.92 350.583 111.425 350.277 109.998C349.628 107.171 348.956 104.708 348.327 102.588C347.084 98.4855 346 96.0484 345.596 96.2435C345.191 96.4386 345.508 99.2241 346.207 103.594L347.503 111.225C347.75 112.659 348.004 114.159 348.265 115.725C348.394 116.504 348.532 117.302 348.67 118.101C348.675 118.122 348.684 118.141 348.697 118.156C348.155 117.888 347.374 117.539 346.233 117.092C341.816 115.302 337.561 113.174 333.493 110.721C329.846 108.458 326.397 105.882 323.172 103.01C318.752 99.1361 314.97 94.4898 311.943 89.2129C310.966 87.4493 310.13 85.5816 309.443 83.6268C309.926 83.414 310.41 83.2012 310.884 82.9699L310.861 82.9235ZM308.131 78.7651C307.944 77.7722 307.807 76.7606 307.72 75.7345C307.685 75.2249 307.678 74.6958 307.657 74.1639L307.634 73.3721L307.677 72.5599C307.742 70.3553 308.113 68.1202 308.776 65.9299C309.467 63.6086 310.444 61.3544 311.678 59.235C312.952 56.9643 314.411 54.8027 316.033 52.7818L316.652 52.0269L317.299 51.3277C317.723 50.8636 318.167 50.4215 318.628 50.0034C319.077 49.566 319.52 49.2697 320.028 48.8527C320.49 48.529 320.97 48.2444 321.462 48.0018C322.285 47.5022 323.194 47.2913 324.047 47.4021C324.9 47.5129 325.649 47.9391 326.178 48.6144C327.255 50.3052 327.694 52.4541 327.419 54.693C327.191 57.1878 326.569 59.6899 325.58 62.0873C324.544 64.6135 323.251 67.0418 321.729 69.32C320.243 71.6347 318.498 73.7593 316.544 75.6315C314.565 77.4584 312.385 78.9785 310.083 80.1372C309.585 80.3973 309.078 80.6389 308.576 80.8646C308.4 80.1676 308.238 79.4733 308.085 78.7224" fill="#F8961F"/>
<defs>
<clipPath id="clip0_8_1432">
<rect width="110" height="110" fill="white" transform="translate(0 185)"/>
</clipPath>
</defs>
</svg>
