<svg width="30" height="25" viewBox="0 0 30 25" fill="none" xmlns="http://www.w3.org/2000/svg">
<path d="M27.9215 13.4032C27.7094 20.9749 21.899 24.6562 14.8636 24.4579C7.82829 24.2595 2.23145 20.2647 2.44348 12.696C2.65552 5.1273 8.3927 0.185997 15.4296 0.379833C22.4665 0.573669 28.132 5.83449 27.9215 13.4032Z" fill="white"/>
<path d="M23.005 3.42819C21.7404 7.10652 18.6773 9.66576 15.1734 9.56884C11.6694 9.47192 8.75275 6.74914 7.69867 3.0072C7.69867 3.0072 10.1592 0.211727 15.4327 0.357103C20.7061 0.50248 23.005 3.42819 23.005 3.42819Z" fill="#00FFB6"/>
<path opacity="0.3" d="M24.5807 3.82196C25.8713 6.09347 26.8964 9.43562 26.8171 12.2493C26.6066 19.821 20.7946 23.5039 13.7592 23.304C9.69545 23.1919 5.80557 21.1475 3.53876 18.5429C5.53557 22.3832 9.77935 24.414 14.7416 24.5518C21.777 24.7441 27.5874 21.0597 27.7994 13.4971C27.9077 9.9964 26.7678 6.57011 24.5807 3.82196Z" fill="#1C1C1C"/>
<path d="M21.6809 2.04559C20.3354 5.50435 17.3715 7.87127 13.9988 7.77889C11.9836 7.72438 10.1653 6.79911 8.78171 5.31506C10.208 7.70317 12.5252 9.28415 15.1795 9.35684C18.688 9.45375 21.7465 6.89452 23.0111 3.21618C22.6225 2.76861 22.1751 2.37489 21.6809 2.04559Z" fill="#00D895"/>
<path d="M15.3991 25C15.216 25 15.033 25 14.8484 24.9924C6.83217 24.7713 1.78297 19.9724 1.9828 12.7641C2.08806 9.03883 3.53571 5.70425 6.06337 3.3752C8.52696 1.10368 11.8524 -0.0941608 15.4403 0.00578574C19.0281 0.105732 22.3292 1.48227 24.7165 3.88402C27.1801 6.363 28.4798 9.77481 28.3776 13.4895C28.2754 17.2042 26.8414 20.2374 24.2345 22.2727C21.9463 24.0626 18.9015 25 15.3991 25ZM15.0315 0.908332C11.8372 0.908332 8.88542 2.01381 6.68573 4.03999C4.34112 6.20247 2.9957 9.3099 2.89807 12.7899C2.80197 16.2214 3.95671 19.088 6.23573 21.0824C8.37135 22.9496 11.3567 23.9869 14.8743 24.0838C18.392 24.1807 21.4337 23.3085 23.667 21.5624C26.0543 19.6968 27.3662 16.8968 27.4623 13.4653C27.5584 9.99893 26.3518 6.82335 24.0651 4.52155C21.8441 2.2879 18.7719 1.00677 15.4144 0.914391C15.2862 0.911362 15.1581 0.908332 15.0315 0.908332Z" fill="#353535"/>
<path d="M15.3579 10.0186H15.1596C11.5672 9.92018 8.39122 7.14136 7.25323 3.12533L8.13491 2.88C9.16306 6.51443 11.9958 9.02217 15.184 9.11C18.3722 9.19784 21.3407 6.85364 22.5717 3.27676L23.4367 3.57054C22.1034 7.45029 18.8741 10.0186 15.3579 10.0186Z" fill="#353535"/>
<path d="M26.6752 7.07324L27.801 7.10353C28.1357 7.11235 28.4563 7.23906 28.7056 7.46099C28.9549 7.68293 29.1165 7.98563 29.1617 8.315C29.3661 9.80208 29.6498 12.437 29.4866 14.6904C29.4608 15.0511 29.2956 15.3879 29.0256 15.6306C28.7555 15.8733 28.4015 16.003 28.0374 15.9927L27.6194 15.9821C27.6194 15.9821 28.3913 10.4972 26.6752 7.07324Z" fill="#606060"/>
<path d="M28.0771 16.447H28.0191L27.1038 16.4182L27.174 15.9154C27.1816 15.8624 27.9047 10.5304 26.274 7.2731L25.9338 6.59619L27.8223 6.64768C28.2655 6.65858 28.6903 6.82607 29.0202 7.12002C29.3502 7.41398 29.5637 7.81513 29.6224 8.25137C29.8176 9.6703 30.1196 12.3976 29.9503 14.7191C29.9174 15.1894 29.7055 15.6296 29.3576 15.9505C29.0098 16.2714 28.5519 16.4489 28.0771 16.447ZM27.3861 7.5472C28.5134 10.4244 28.2708 14.1815 28.132 15.5369C28.364 15.5237 28.5832 15.4269 28.7484 15.2646C28.9136 15.1023 29.0134 14.8857 29.029 14.6555C29.1922 12.4158 28.8978 9.75965 28.7086 8.37554C28.6784 8.1537 28.5697 7.94972 28.4021 7.79996C28.2345 7.6502 28.0188 7.56438 27.7933 7.55779L27.3861 7.5472Z" fill="#353535"/>
<path d="M3.69132 6.97932L2.45264 6.94449C2.14955 6.93642 1.85342 7.03531 1.61685 7.22357C1.38028 7.41184 1.2186 7.67729 1.16059 7.97273C0.869232 9.45375 0.397896 12.2311 0.46349 14.5798C0.473894 14.9031 0.608424 15.2103 0.839563 15.4383C1.0707 15.6664 1.38094 15.7981 1.70671 15.8064L2.25131 15.82C2.25131 15.82 1.78146 10.3048 3.69132 6.97932Z" fill="#606060"/>
<path d="M2.7501 16.2895L1.69447 16.2592C1.25169 16.2489 0.829769 16.0704 0.515602 15.7605C0.201435 15.4506 0.018987 15.0329 0.00582889 14.5934C-0.0582398 12.1932 0.420732 9.36138 0.712092 7.88641C0.790382 7.48545 1.00956 7.12513 1.33058 6.86969C1.65159 6.61424 2.05357 6.48029 2.46483 6.4917L4.4647 6.54773L4.08792 7.20495C2.27874 10.3669 2.70282 15.7307 2.71502 15.7852L2.7501 16.2895ZM2.416 7.39879C2.22533 7.39858 2.04056 7.46442 1.89353 7.58494C1.7465 7.70547 1.64643 7.87313 1.61056 8.05904C1.32683 9.49767 0.860078 12.2553 0.921096 14.5707C0.928083 14.778 1.01484 14.9747 1.16354 15.1203C1.31225 15.266 1.51157 15.3495 1.72043 15.3536H1.76463C1.70209 13.9907 1.66854 10.2276 2.95602 7.41545L2.44043 7.40031L2.416 7.39879Z" fill="#353535"/>
<g opacity="0.4">
<path d="M29.4439 14.6419C29.5057 13.6753 29.5087 12.7059 29.453 11.7389C29.366 12.0371 29.1818 12.2982 28.9292 12.4813C28.6766 12.6644 28.3699 12.759 28.0573 12.7505L27.7522 12.7414C27.768 13.8081 27.7109 14.8746 27.5813 15.9336L27.9978 15.9442C28.3614 15.9537 28.7146 15.8236 28.984 15.581C29.2533 15.3384 29.4181 15.002 29.4439 14.6419Z" fill="#353535"/>
</g>
<g opacity="0.4">
<path d="M2.21777 12.5779L1.72807 12.5642C1.46639 12.5574 1.21314 12.4711 1.00233 12.3171C0.791515 12.163 0.633261 11.9486 0.548902 11.7026C0.44823 12.6425 0.405461 13.5877 0.420788 14.5329C0.431227 14.8563 0.566031 15.1635 0.797532 15.3914C1.02903 15.6192 1.33964 15.7504 1.66554 15.758L2.21013 15.7731C2.13908 14.7091 2.14164 13.6415 2.21777 12.5779Z" fill="#353535"/>
</g>
<path d="M23.0599 12.5339C23.1316 12.8707 23.101 13.2211 22.9721 13.5406C22.8431 13.8602 22.6216 14.1346 22.3355 14.3292C22.0494 14.5237 21.7116 14.6296 21.3648 14.6335C21.0181 14.6374 20.678 14.5391 20.3875 14.351C20.0971 14.163 19.8693 13.8936 19.7331 13.577C19.5969 13.2604 19.5584 12.9109 19.6224 12.5725C19.6864 12.2342 19.85 11.9223 20.0926 11.6763C20.3353 11.4304 20.6459 11.2614 20.9853 11.1907C21.2103 11.1436 21.4426 11.1411 21.6686 11.1831C21.8947 11.2251 22.1102 11.311 22.3029 11.4357C22.4955 11.5604 22.6615 11.7216 22.7914 11.9101C22.9213 12.0985 23.0125 12.3105 23.0599 12.5339Z" fill="#1C1C1C"/>
<path d="M21.4917 12.4809L21.507 12.5536C21.5385 12.6665 21.6128 12.763 21.7143 12.8228C21.8158 12.8826 21.9366 12.9012 22.0515 12.8747C22.165 12.843 22.2618 12.7692 22.3217 12.6685C22.3817 12.5677 22.4002 12.448 22.3734 12.334L22.3582 12.2629C22.3266 12.1503 22.2526 12.0541 22.1514 11.9943C22.0503 11.9345 21.9299 11.9157 21.8151 11.9418C21.7017 11.9732 21.6048 12.0467 21.5446 12.1471C21.4844 12.2475 21.4654 12.367 21.4917 12.4809Z" fill="white"/>
<path d="M10.5421 12.5339C10.6138 12.8707 10.5832 13.2211 10.4543 13.5406C10.3253 13.8602 10.1038 14.1346 9.81767 14.3292C9.53157 14.5237 9.19377 14.6296 8.84702 14.6335C8.50027 14.6374 8.16016 14.5391 7.86971 14.351C7.57925 14.163 7.35152 13.8936 7.21532 13.577C7.07912 13.2604 7.04057 12.9109 7.10456 12.5725C7.16856 12.2342 7.33222 11.9223 7.57482 11.6763C7.81743 11.4304 8.12809 11.2614 8.46748 11.1907C8.69255 11.1436 8.92474 11.1411 9.15081 11.1831C9.37688 11.2251 9.59239 11.311 9.78504 11.4357C9.97769 11.5604 10.1437 11.7216 10.2736 11.9101C10.4035 12.0985 10.4947 12.3105 10.5421 12.5339Z" fill="#1C1C1C"/>
<path d="M9.93038 12.481L9.91514 12.4098C9.88359 12.2972 9.80955 12.201 9.70841 12.1412C9.60728 12.0815 9.48681 12.0627 9.37208 12.0887C9.25867 12.1201 9.16177 12.1936 9.10155 12.294C9.04132 12.3944 9.02238 12.5139 9.04866 12.6278C9.04866 12.6521 9.05936 12.6763 9.06393 12.7005C9.09549 12.8131 9.16953 12.9093 9.27067 12.9691C9.3718 13.0289 9.49226 13.0477 9.607 13.0216C9.72073 12.9902 9.81786 12.9165 9.87812 12.8158C9.93839 12.715 9.9571 12.5951 9.93038 12.481Z" fill="white"/>
<path d="M17.5683 16.9997C17.2828 17.4206 16.8957 17.764 16.4424 17.9984C15.9891 18.2329 15.4838 18.3511 14.9727 18.3422C14.4616 18.3333 13.9609 18.1977 13.5161 17.9476C13.0713 17.6975 12.6966 17.3409 12.426 16.9104C12.0508 16.3198 11.102 16.8649 11.4787 17.4601C11.8385 18.0639 12.3488 18.5657 12.9604 18.9172C13.572 19.2687 14.2644 19.4581 14.9711 19.467C15.6778 19.476 16.3749 19.3043 16.9954 18.9685C17.6159 18.6326 18.1389 18.144 18.5141 17.5494C18.9076 16.9664 17.9588 16.4212 17.5683 16.9997Z" fill="#1C1C1C"/>
</svg>
